<svg
  id="icon-open-folder"
  xmlns="http://www.w3.org/2000/svg"
  width="100%"
  height="100%"
  viewBox="0 0 130 130"
>
  <g fill-rule="nonzero">
    <path
      d="M27.25 15c-2.826 0-5.155 2.364-5.155 5.233v64.37a1.76 1.76 0 0 0 .108 1.2C22.686 88.181 24.78 90 27.25 90h67.005c2.564 0 4.671-1.962 5.047-4.47.014-.108.047-.218.054-.327v-.109l.054-.272v-.055l8.536-46.766.054-.163v-.164c0-2.868-2.329-5.232-5.154-5.232v-5.233c0-2.868-2.33-5.232-5.155-5.232H53.075c.006.007-.014 0-.054 0-.054-.041-.208-.17-.483-.49-.423-.491-.913-1.309-1.45-2.181-.537-.872-1.114-1.799-1.825-2.616-.712-.818-1.705-1.69-3.114-1.69h-18.9zm0 3.488h18.899c-.108 0 .114 0 .537.49.422.491.912 1.31 1.45 2.181.536.872 1.127 1.799 1.825 2.616.698.818 1.65 1.69 3.06 1.69h44.67c.967 0 1.719.763 1.719 1.744v5.233H35.84c-2.704 0-4.859 2.207-5.047 4.905h-.053l-.054.327-5.154 28.234V20.233c0-.982.751-1.745 1.718-1.745zm8.59 17.442h67.006c.966 0 1.718.763 1.718 1.744l-8.43 46.276-.053.109c-.02.068-.04.143-.054.218-.02.068-.04.143-.054.218v.163c-.026.089-.04.178-.053.273-.007.054.006.109 0 .163a1.183 1.183 0 0 0 0 .219c-.215.708-.88 1.199-1.665 1.199H27.25c-.967 0-1.718-.763-1.718-1.745l8.536-46.766.054-.163v-.164c0-.98.752-1.744 1.718-1.744z"
    />
  </g>
</svg>
