<svg
  id="icon-bath"
  xmlns="http://www.w3.org/2000/svg"
  width="100%"
  height="100%"
  viewBox="0 0 130 130"
>
  <g fill-rule="nonzero">
    <path
      d="M19.657 32a1.84 1.84 0 0 0-1.523 1.828v6.739a1.809 1.809 0 0 0 .996 2.227l.058.057h.118l.058.057h.176c.117.029.234.05.351.058h.118c2.233 0 3.749 1.477 3.749 3.655v12.793c0 9.102 6.32 16.855 14.88 19.304-.403 1.606-1.772 2.627-3.632 2.627a1.896 1.896 0 0 0-1.648.906 1.805 1.805 0 0 0 0 1.842c.344.571.974.914 1.648.907 3.537 0 6.473-2.384 7.264-5.597a20.53 20.53 0 0 0 2.109.114H85.62c.71 0 1.42-.043 2.11-.114.79 3.213 3.726 5.597 7.263 5.597a1.896 1.896 0 0 0 1.648-.907 1.805 1.805 0 0 0 0-1.842 1.896 1.896 0 0 0-1.648-.906c-1.86 0-3.23-1.021-3.632-2.627 8.56-2.449 14.88-10.202 14.88-19.304V46.62c0-2.178 1.516-3.655 3.75-3.655.175.007.358-.015.527-.058.263-.078.498-.22.703-.4a.883.883 0 0 0 .117-.056v-.058a1.75 1.75 0 0 0 .234-.228v-.057c.14-.193.235-.4.293-.628a1.19 1.19 0 0 0 0-.229v-.343V33.828c0-1.007-.842-1.828-1.875-1.828H19.657zm2.226 3.655h86.234v3.655H21.883v-3.655zm4.57 7.31h77.094c-.637 1.079-1.054 2.32-1.054 3.656v12.793c0 9.052-7.587 16.448-16.872 16.448H44.38c-9.285 0-16.872-7.396-16.872-16.448V46.62c0-1.335-.417-2.577-1.054-3.655z"
    />
  </g>
</svg>
