<svg
  id="icon-taxi"
  xmlns="http://www.w3.org/2000/svg"
  width="100%"
  height="100%"
  viewBox="0 0 130 130"
>
  <g fill-rule="nonzero">
    <path
      d="M59.375 18c-3.105 0-5.625 2.57-5.625 5.664v2.394a55.79 55.79 0 0 0-2.52.35c-2.6.46-3.728.992-3.867 1.05-.007.008-.234.06-.234.06-2.776.933-7.002 2.218-8.965 6.013v.059c-.476.92-1.186 2.73-2.227 5.371-.798 2.03-1.735 4.591-2.695 7.065h-5.566c-2.783 0-4.849.927-6.094 2.336C20.337 49.77 20 51.442 20 52.74c0 1.452.762 2.905 1.934 3.62 1.171.715 2.483.876 3.867.876h3.105c-.293.78-1.289 3.386-1.289 3.386l-.117.35v22.422c0 3.072 2.542 5.605 5.625 5.605h7.5c3.083 0 5.625-2.533 5.625-5.605v-1.869h37.5v1.869c0 3.072 2.542 5.605 5.625 5.605h7.5c3.083 0 5.625-2.533 5.625-5.605V60.974l-.117-.35s-.982-2.599-1.29-3.387h3.106c1.384 0 2.696-.16 3.867-.876 1.172-.715 1.934-2.168 1.934-3.62 0-1.3-.337-2.97-1.582-4.38-1.245-1.408-3.31-2.335-6.094-2.335h-5.566c-.117-.277-.235-.547-.293-.7-2.029-5.226-3.992-10.204-4.688-11.795-1.794-4.058-6.408-5.313-8.906-6.014-.08-.022-.22-.095-.293-.117v.059c-.176-.073-1.245-.591-3.808-1.051a55.79 55.79 0 0 0-2.52-.35v-2.394c0-3.095-2.52-5.664-5.625-5.664h-11.25zm0 3.737h11.25c1.033 0 1.875.817 1.875 1.927v2.043a113.103 113.103 0 0 0-7.5-.233c-2.959 0-5.383.095-7.5.233v-2.043c0-1.11.842-1.927 1.875-1.927zM65 29.21c6.475 0 10.635.489 13.125.934 2.49.445 3.105.759 3.105.759l.176.058.117.059c2.286.65 5.97 2.145 6.797 4.028.542 1.234 2.674 6.693 4.63 11.678.468 1.19 1.252 3.131.995 4.32-.132.6-.359 1.03-1.23 1.519-.872.489-2.512.934-5.215.934h-45c-2.703 0-4.343-.445-5.215-.934-.871-.49-1.098-.92-1.23-1.518-.257-1.19.527-3.131.996-4.321l-.117-.058c.857-2.226 1.735-4.533 2.46-6.365 1.033-2.62 1.956-4.722 2.11-5.021 1.04-2.014 4.285-3.387 7.031-4.32h.117l.118-.06s.615-.313 3.105-.758 6.65-.934 13.125-.934zM27.676 49.763h4.043c-.71 1.861-.835 2.226-1.407 3.737h-4.511c-1.048 0-1.7-.182-1.875-.292-.176-.11-.176.058-.176-.467 0-.679.19-1.416.645-1.927.454-.51 1.245-1.05 3.28-1.05zm70.488 0h4.16c2.036 0 2.827.54 3.281 1.051.455.511.645 1.248.645 1.927 0 .525 0 .358-.176.467-.176.11-.835.292-1.875.292h-4.57c-.6-1.533-.733-1.847-1.465-3.737zM33.945 54.61c.432.453.93.89 1.524 1.227 1.692.948 3.933 1.4 7.031 1.4h45c3.098 0 5.34-.452 7.031-1.4.594-.336 1.092-.774 1.524-1.227 1.098 2.876 2.63 6.905 2.695 7.065v14.539c0 .869-.732 1.576-1.7 1.576h-64.1c-.968 0-1.7-.7-1.7-1.576V61.674c.059-.16 1.626-4.218 2.695-7.065zm4.805 4.496c-3.083 0-5.625 2.533-5.625 5.606 0 1.656.688 3.13 1.64 4.145.953 1.015 2.103 1.7 3.223 2.336 1.59.897 2.674 1.583 3.926 2.102 1.253.518 2.6.759 4.336.759 4.116 0 7.5-3.365 7.5-7.474 0-4.11-3.384-7.474-7.5-7.474h-7.5zm45 0c-4.116 0-7.5 3.365-7.5 7.474s3.384 7.474 7.5 7.474c1.736 0 3.083-.241 4.336-.76 1.252-.518 2.336-1.204 3.926-2.101 1.12-.635 2.27-1.321 3.222-2.336a6.108 6.108 0 0 0 1.641-4.145c0-3.073-2.542-5.606-5.625-5.606h-7.5zm-45 3.737h7.5c2.095 0 3.75 1.65 3.75 3.737s-1.655 3.737-3.75 3.737c-1.406 0-2.102-.124-2.93-.467-.827-.343-1.853-.993-3.515-1.927-1.055-.591-1.831-1.153-2.285-1.635-.455-.482-.645-.796-.645-1.576 0-1.051.82-1.869 1.875-1.869zm45 0h7.5c1.055 0 1.875.818 1.875 1.869 0 .78-.19 1.094-.645 1.576-.454.482-1.23 1.044-2.285 1.635-1.662.934-2.688 1.584-3.515 1.927-.828.343-1.524.467-2.93.467-2.095 0-3.75-1.65-3.75-3.737s1.655-3.737 3.75-3.737zm-52.5 18.392a5.498 5.498 0 0 0 1.7.292h9.55v1.869c0 1.05-.82 1.868-1.875 1.868h-7.5a1.848 1.848 0 0 1-1.875-1.868v-2.16zm67.5 0v2.16c0 1.052-.82 1.87-1.875 1.87h-7.5a1.848 1.848 0 0 1-1.875-1.87v-1.868h9.55c.594 0 1.158-.116 1.7-.292z"
    />
  </g>
</svg>
