<svg
  id="icon-wifi"
  xmlns="http://www.w3.org/2000/svg"
  width="100%"
  height="100%"
  viewBox="0 0 130 130"
>
  <g fill-rule="nonzero">
    <path
      d="M65 20a70.468 70.468 0 0 0-48.551 19.302L15 40.676l11.096 11.4 1.457-1.374C37.287 41.487 50.466 35.806 65 35.806c14.534 0 27.713 5.68 37.455 14.896l1.449 1.373L115 40.676l-1.449-1.374A70.468 70.468 0 0 0 65 20zm0 3.952c17.04 0 32.459 6.506 44.197 16.971l-5.544 5.688C93.363 37.52 79.871 31.855 65 31.855c-14.87 0-28.363 5.665-38.653 14.756l-5.544-5.688C32.54 30.458 47.96 23.952 65 23.952zm0 19.757a46.3 46.3 0 0 0-31.903 12.688l-1.449 1.367 11.144 11.445 1.44-1.374c5.42-5.132 12.694-8.32 20.768-8.32s15.348 3.188 20.767 8.32l1.441 1.374 11.144-11.445-1.441-1.367A46.334 46.334 0 0 0 65 43.71zm0 3.952c10.587 0 20.157 3.975 27.557 10.35l-5.591 5.734C81.03 58.736 73.418 55.564 65 55.564c-8.418 0-16.03 3.172-21.966 8.18l-5.59-5.733c7.4-6.375 16.969-10.35 27.556-10.35zm0 19.758a22.146 22.146 0 0 0-15.255 6.074l-1.44 1.366L65 92l1.44-1.482 15.255-15.66-1.44-1.365A22.146 22.146 0 0 0 65 67.419zm0 3.951c4.119 0 7.737 1.575 10.775 3.867L65 86.304 54.225 75.237C57.263 72.945 60.88 71.37 65 71.37z"
    />
  </g>
</svg>
