<svg
  id="icon-birthday"
  xmlns="http://www.w3.org/2000/svg"
  width="100%"
  height="100%"
  viewBox="0 0 130 130"
>
  <g fill-rule="evenodd">
    <path
      d="M42.085.804l-1.404 1.683S38.8 4.735 36.91 7.52c-.945 1.393-1.897 2.923-2.642 4.432-.744 1.508-1.333 2.954-1.333 4.517 0 4.405 3.157 8.109 7.32 8.963v2.016h-1.83c-3.01 0-5.49 2.48-5.49 5.49v16.467H16.468c-6.041 0-10.979 4.938-10.979 10.979v1.644c-.01.115-.01.231 0 .347V75.02H0v1.83C0 81.882 4.118 86 9.149 86H75.02c5.031 0 9.15-4.118 9.15-9.149v-1.83h-5.49V62.484c.042-.224.042-.454 0-.679v-1.422c0-6.041-4.938-10.979-10.979-10.979H51.234V32.936c0-3.01-2.48-5.49-5.49-5.49h-1.83v-2.015c4.163-.854 7.32-4.558 7.32-8.963 0-1.563-.588-3.009-1.333-4.517-.745-1.509-1.696-3.04-2.641-4.432-1.89-2.784-3.77-5.032-3.77-5.032L42.085.804zm0 5.904c.682.864 1.075 1.29 2.144 2.866.885 1.305 1.763 2.724 2.391 3.996.628 1.272.954 2.44.954 2.898 0 2.406-1.524 4.408-3.66 5.157v-1.497c.008-.495-.186-.971-.536-1.32-.35-.35-.827-.543-1.321-.535-1.01.016-1.816.845-1.802 1.855v1.497c-2.135-.75-3.66-2.751-3.66-5.157 0-.458.327-1.626.955-2.898.628-1.272 1.506-2.691 2.39-3.996 1.07-1.576 1.463-2.002 2.145-2.866zm-3.66 24.398h3.353c.197.033.399.033.597 0h3.37c1.034 0 1.83.796 1.83 1.83v16.468h-10.98V32.936c0-1.034.797-1.83 1.83-1.83zM16.469 53.064h51.234c4.063 0 7.32 3.256 7.32 7.319v1.319c-.487.826-2.71 4.17-7.32 4.17-5.226 0-9.588-4.846-9.588-4.846-.332-.387-.81-.62-1.319-.64-.51-.02-1.004.173-1.365.533 0 0-4.928 4.953-13.345 4.953-8.417 0-13.344-4.953-13.344-4.953-.361-.36-.856-.553-1.366-.533-.51.02-.987.253-1.318.64 0 0-4.363 4.846-9.589 4.846-4.61 0-6.833-3.344-7.32-4.17v-1.319c0-4.063 3.257-7.32 7.32-7.32zm11.118 11.454c1.64 1.402 6.28 5.014 14.5 5.014 8.22 0 12.858-3.612 14.498-5.014 1.423 1.495 5.105 5.014 11.118 5.014 3.173 0 5.57-1.214 7.32-2.584v8.073H9.148v-8.073c1.749 1.37 4.146 2.584 7.32 2.584 6.012 0 9.694-3.519 11.117-5.014zM4.414 78.68h75.343c-.8 2.035-2.401 3.66-4.736 3.66H9.15c-2.335 0-3.936-1.625-4.735-3.66z"
      transform="translate(-18711 -113) translate(18671 73) translate(40 40) translate(22 11)"
    />
  </g>
</svg>
