<svg
  id="icon-wedding"
  xmlns="http://www.w3.org/2000/svg"
  width="100%"
  height="100%"
  viewBox="0 0 130 130"
>
  <g fill-rule="nonzero">
    <path
      d="M59.37 11l-7.792 5.832-1.547 1.201 1.203 1.43 2.235 2.63C38.079 27.125 27 41.55 27 58.574 27 79.774 44.26 97 65.5 97S104 79.774 104 58.574c0-17.004-11.107-31.428-26.469-36.48l2.235-2.631 1.203-1.43-1.547-1.2L71.63 11H59.37zm1.26 3.66h9.74l4.87 3.66H65.5v3.659h7.39l-4.583 5.49h-5.614l-4.584-5.49h3.724v-3.66H55.76l4.87-3.66zm-4.64 10.464l2.578 3.145c-13.872 3.145-24.235 15.517-24.235 30.305 0 17.162 13.972 31.107 31.167 31.107s31.167-13.945 31.167-31.107c0-14.788-10.363-27.16-24.235-30.305l2.578-3.088c14.603 4.131 25.323 17.469 25.323 33.393 0 19.22-15.576 34.766-34.833 34.766-19.257 0-34.833-15.546-34.833-34.766 0-15.924 10.72-29.319 25.323-33.45zm9.51 6.004c15.21 0 27.5 12.265 27.5 27.446 0 15.182-12.29 27.447-27.5 27.447S38 73.756 38 58.574c0-15.181 12.29-27.446 27.5-27.446z"
    />
  </g>
</svg>
