<svg
  id="icon-beach"
  xmlns="http://www.w3.org/2000/svg"
  width="100%"
  height="100%"
  viewBox="0 0 130 130"
>
  <g fill-rule="nonzero">
    <path
      d="M55.06 13c-11.346 0-19.462 9.64-19.779 21.586-.006.238-.103.432-.103.67a1.68 1.68 0 0 0 1.34 1.61 1.686 1.686 0 0 0 1.87-.94c3.676-8.617 13.015-11.038 19.519-9.016-4.466.328-8.99 1.224-12.892 3.606-5.663 3.458-9.837 9.48-9.837 17.929 0 6.182 1.41 11.958 5.125 19.525.343.65 1.068.998 1.786.87a1.671 1.671 0 0 0 1.373-1.437c1.365-12.544 6.588-19.486 12.374-23.647 3.042-2.19 6.239-3.56 9.164-4.482-.214 23.847-7.753 36.295-15.17 42.915-7.643 6.82-15.118 7.47-15.118 7.47h-.156c-5.346-1.764-8.387-3.812-8.387-3.812a1.676 1.676 0 0 0-1.243-.31 1.646 1.646 0 1 0-.621 2.988s9.902 6.904 25.784 6.904c5.74 0 10.581-1.281 15.118-2.679.097-.032.214-.019.31-.051.163-.026.318-.077.467-.155.02-.006.032-.045.052-.051.51-.161 1.048-.303 1.553-.464 5.21-1.648 10.064-3.194 15.636-3.194 11.138 0 20.606 6.285 20.606 6.285a1.65 1.65 0 0 0 1.774.329 1.645 1.645 0 0 0 .09-3.008s-10.083-6.903-22.47-6.903c-5.139 0-9.585 1.223-13.928 2.576 1.236-2.357 2.22-5.165 3.055-8.243 1.372-5.068 2.272-10.922 2.9-16.64 1.158-10.549 1.326-20.518 1.346-25.039 4.86.954 9.047 3.336 12.219 7.007 4.206 4.868 6.646 12.1 6.005 21.74a1.678 1.678 0 0 0 1.081 1.669c.693.257 1.47.045 1.922-.535 5.521-7.155 8.595-12.345 8.595-18.959 0-8.571-6.394-14.405-13.41-17.67-5.164-2.402-10.258-3.201-14.6-3.246.084-.058.064-.097.155-.155 1.54-.953 3.52-1.77 5.799-1.854h.052c4.491.013 11.947 2.112 16.464 7.058.505.54 1.301.695 1.968.373a1.67 1.67 0 0 0 .932-1.764c-1.114-6.975-3.275-11.67-6.213-14.683C94.628 14.159 90.946 13 87.367 13c-7.986 0-14.193 4.81-15.688 6.028C66.767 14.578 60.023 13 55.059 13zm0 3.297c4.594 0 11.325 1.649 15.325 5.925.608.67 1.637.734 2.33.154 0 0 7.423-6.079 14.652-6.079 2.886 0 5.482.85 7.766 3.194 1.58 1.623 2.854 4.43 3.935 7.934-4.873-3.233-10.543-4.533-14.704-4.533h-.052c-3.003.096-5.592 1.094-7.559 2.318-1.967 1.223-3.3 2.498-3.987 3.864a1.667 1.667 0 0 0 .194 1.796 1.689 1.689 0 0 0 1.722.574c2.951-.715 10.569.077 16.93 3.04 6.362 2.961 11.495 7.708 11.495 14.63 0 4.212-1.994 8.037-5.023 12.52-.427-7.71-2.783-14.078-6.73-18.65-4.867-5.642-11.935-8.552-19.727-8.552a1.737 1.737 0 0 0-.259 0 52.027 52.027 0 0 0-5.229 1.03h-.052c-3.67.934-8.044 2.563-12.219 5.564-5.449 3.922-10.277 10.452-12.581 20.298-1.741-4.598-2.796-8.726-2.796-12.88 0-7.38 3.424-12.074 8.284-15.043 4.86-2.968 11.274-4.018 16.724-3.4a1.691 1.691 0 0 0 1.708-.927 1.673 1.673 0 0 0-.31-1.906c-6.052-6.176-17.96-5.925-25.267 1.288 2.252-7.213 7.967-12.159 15.43-12.159zM71.782 37.73h.103c.473.006.939.077 1.398.103-.013 4.308-.136 14.502-1.294 25.09-.615 5.615-1.547 11.262-2.848 16.073-1.262 4.656-2.919 8.513-4.815 10.664-4.433 1.353-8.97 2.473-14.238 2.473-3.307 0-6.317-.29-9.01-.773 3.127-1.178 7.055-3.2 10.977-6.697 8.239-7.348 16.219-21.148 16.258-46.263a50.113 50.113 0 0 1 3.469-.67z"
    />
  </g>
</svg>
