<svg
  id="icon-alarm-clock"
  xmlns="http://www.w3.org/2000/svg"
  width="100%"
  height="100%"
  viewBox="0 0 130 130"
>
  <g fill-rule="nonzero">
    <path
      d="M88.74 12.012a16.83 16.83 0 0 0-1.873.042 17.749 17.749 0 0 0-4.896 1.058h-.007l-.014.007c-.202.076-.271.111-.209.09l-2.562.982 24.618 24.601.989-2.54c.013-.043.097-.21.208-.509 2.201-6.265.787-13.526-4.22-18.524a17.775 17.775 0 0 0-12.034-5.207zm-47.676 0a17.807 17.807 0 0 0-11.846 5.207c-5.076 5.075-6.455 12.468-4.108 18.802v.014c.083.21.118.272.09.21l.982 2.561L50.8 14.198l-2.549-.989c-.042-.014-.202-.097-.501-.202a17.852 17.852 0 0 0-4.84-.974 20.4 20.4 0 0 0-1.846-.021zm.154 3.564c.494-.02.988-.02 1.476.014.473.028.926.202 1.393.278l-16.22 16.213c-.71-4.357.495-8.966 3.872-12.342a14.17 14.17 0 0 1 9.479-4.163zm47.404 0a14.215 14.215 0 0 1 9.638 4.163c3.37 3.376 4.576 7.985 3.872 12.35L85.9 15.868c.41-.07.808-.237 1.219-.265a13.56 13.56 0 0 1 1.504-.028zM65 19.126c-20.656 0-37.439 16.777-37.439 37.425 0 10.135 4.06 19.324 10.62 26.07l-8.315 8.312a1.768 1.768 0 0 0-.487 1.733c.16.627.647 1.114 1.274 1.274a1.77 1.77 0 0 0 1.734-.487l8.406-8.396c6.532 5.549 14.972 8.918 24.207 8.918 9.234 0 17.675-3.37 24.207-8.918l8.406 8.396a1.77 1.77 0 0 0 1.734.487 1.764 1.764 0 0 0 1.274-1.274 1.768 1.768 0 0 0-.487-1.733l-8.316-8.312c6.56-6.746 10.62-15.935 10.62-26.07 0-20.648-16.783-37.425-37.438-37.425zm0 3.564c18.726 0 33.873 15.141 33.873 33.86 0 18.72-15.147 33.86-33.873 33.86-18.727 0-33.873-15.14-33.873-33.86 0-18.719 15.146-33.86 33.873-33.86zm-.028 7.101a1.79 1.79 0 0 0-1.755 1.81v23.167h-12.48a1.794 1.794 0 0 0-1.567.885c-.32.556-.32 1.239 0 1.796.328.556.927.89 1.567.884H64.7a1.803 1.803 0 0 0 1.581-.516v-.006c.007-.007.014-.007.021-.014 0-.007.007-.007.007-.014.39-.404.564-.961.474-1.51V31.6a1.787 1.787 0 0 0-1.811-1.81z"
    />
  </g>
</svg>
