<svg
  id="icon-info"
  xmlns="http://www.w3.org/2000/svg"
  width="100%"
  height="100%"
  viewBox="0 0 130 130"
>
  <g fill-rule="nonzero">
    <path
      d="M65 12c-23.726 0-43 19.274-43 43s19.274 43 43 43 43-19.274 43-43-19.274-43-43-43zm0 3.74c21.705 0 39.26 17.555 39.26 39.26S86.706 94.26 65 94.26 25.74 76.706 25.74 55 43.294 15.74 65 15.74zm0 13.086a5.609 5.609 0 1 0 0 11.217 5.609 5.609 0 0 0 0-11.217zm-7.478 18.696v3.739h3.739v24.304h-3.74v3.74H72.48v-3.74h-3.74V47.522H57.521z"
    />
  </g>
</svg>
