<svg
  id="icon-typhoon"
  xmlns="http://www.w3.org/2000/svg"
  width="100%"
  height="100%"
  viewBox="0 0 130 130"
>
  <g fill-rule="evenodd">
    <path
      d="M47.672 0c-4.496.013-9.334.494-14.291 1.53C23.467 3.6 15.24 7.263 9.387 11.812 4.054 15.959.666 20.943.105 26.155c-.079.218-.118.455-.105.686 0 .171-.007.356 0 .527v.317c0 .843.132 1.647.37 2.425 1.192 5.491 5.312 10.033 10.968 13.237 1.984 1.12 4.199 2.083 6.539 2.9-.086.488.053.989.37 1.371 0 0 2.847 3.467 8.067 6.697h-.105c-.475.086-.896.37-1.147.785-.25.415-.316.916-.171 1.378 0 0 .982 3.632 4.06 7.171 3.079 3.54 8.378 7.067 16.611 7.067 7.594 0 12.762-3.533 12.762-3.533.6-.29.97-.903.95-1.57-.02-.665-.429-1.258-1.042-1.509-.62-.257-1.325-.125-1.806.336 0 0-4.285 2.9-10.864 2.9-7.29 0-11.502-2.946-14.08-5.905-2.577-2.96-3.375-5.854-3.375-5.854-.026-.105-.059-.217-.105-.316 4.37 2.406 10.066 4.482 17.033 4.482 7.851 0 13.072-1.8 16.295-3.691 3.223-1.892 4.588-4.06 4.588-4.06.481-.805.224-1.84-.58-2.321-.798-.481-1.84-.224-2.32.58 0 0-.745 1.331-3.428 2.9-2.683 1.57-7.218 3.217-14.555 3.217-10.955 0-18.47-5.478-21.937-8.648 4.284.982 8.899 1.529 13.71 1.529 12.65 0 21.477-2.736 27.212-6.17 2.867-1.72 4.917-3.606 6.328-5.432 1.41-1.826 2.215-3.579 2.215-5.273.006-.607-.31-1.173-.838-1.483-.527-.303-1.173-.303-1.7 0-.528.31-.844.876-.838 1.483 0 .5-.369 1.786-1.476 3.217-1.107 1.43-2.88 3.058-5.432 4.588-5.108 3.058-13.315 5.695-25.47 5.695-9.203 0-17.759-1.99-23.836-5.432-1.24-.705-2.354-1.463-3.375-2.267 1.226.461 2.511.876 3.902 1.213 7.646 1.852 17.594 1.898 27.527-.264 10.007-2.07 18.622-5.913 24.627-10.547 6.005-4.634 9.591-10.283 8.385-15.926-1.206-5.63-6.717-9.38-14.027-11.232C56.353.494 52.167-.013 47.672 0zm0 3.375c4.252-.007 8.167.475 11.496 1.318 6.651 1.688 10.784 4.832 11.602 8.649.817 3.803-1.701 8.325-7.172 12.55-5.472 4.226-13.685 7.937-23.256 9.915h-.053c-9.472 2.056-19.004 2.01-25.998.316-3.494-.844-6.315-2.11-8.174-3.586-1.24-.982-2.023-2.004-2.426-3.111-.158-.725-.243-1.45-.263-2.215.197-4.225 2.933-8.721 8.068-12.709 5.326-4.14 13.131-7.666 22.623-9.65 4.746-.99 9.301-1.47 13.553-1.477zm-1.108 6.645c-3.243.079-6.71.448-10.283 1.16-11.8 2.432-21.291 7.811-24.943 14.343-.455.818-.158 1.846.66 2.294.816.455 1.845.159 2.293-.659 2.762-4.944 11.522-10.362 22.676-12.656 9.03-1.806 17.218-1.292 22.517.738.877.336 1.853-.099 2.189-.975.336-.877-.099-1.853-.976-2.189-3.085-1.18-6.835-1.885-10.968-2.056-1.035-.047-2.083-.027-3.165 0zm-19.09 56.267c-.48.092-.896.396-1.14.817-.244.429-.29.937-.125 1.398 0 0 .778 2.446 3.006 4.746 2.228 2.3 6.07 4.535 11.812 4.535.607.007 1.174-.31 1.483-.837.304-.527.304-1.173 0-1.7-.31-.528-.876-.844-1.483-.838-4.884 0-7.692-1.78-9.386-3.533-1.694-1.753-2.162-3.375-2.162-3.375-.231-.804-1.016-1.325-1.846-1.213h-.158zm1.424 11.654c-.375.04-.731.211-1.002.475 0 0-2.94 2.584-7.33 2.584-.606-.007-1.173.31-1.483.837-.303.528-.303 1.173 0 1.7.31.528.877.845 1.483.838 5.735 0 9.598-3.48 9.598-3.48.554-.482.732-1.266.442-1.938-.29-.673-.976-1.082-1.708-1.016z"
      transform="translate(-17101 -113) translate(17061 73) translate(40 40) translate(27 10)"
    />
  </g>
</svg>
