<svg
  id="icon-mosque"
  xmlns="http://www.w3.org/2000/svg"
  width="100%"
  height="100%"
  viewBox="0 0 130 130"
>
  <g fill-rule="nonzero">
    <path
      d="M32.853 12.638a1.715 1.715 0 0 0-1.129.75c-1.04 1.562-3.163 2.749-5.372 4.558-2.21 1.81-4.352 4.598-4.352 8.955 0 1.917.517 3.465 1.182 4.665A1.716 1.716 0 0 0 22 33.228v3.11c.007.443.175.865.484 1.18l.967.965c1.108 1.267 1.987 2.702 1.987 3.861v50.94A1.72 1.72 0 0 0 27.158 95h30.946c.947 0 1.72-.77 1.72-1.716V81.273a5.154 5.154 0 0 1 5.157-5.148 5.154 5.154 0 0 1 5.158 5.148v12.011A1.72 1.72 0 0 0 71.858 95h30.946c.947 0 1.72-.77 1.72-1.716v-50.94c0-1.267.704-2.634 1.88-3.807l1.074-1.019c.309-.315.477-.737.484-1.18v-3.11a1.716 1.716 0 0 0-1.182-1.662c.665-1.2 1.182-2.748 1.182-4.665 0-4.558-1.982-7.426-4.191-9.223-2.21-1.796-4.432-2.855-5.641-4.397a1.718 1.718 0 0 0-1.505-.643 1.71 1.71 0 0 0-1.289.75c-1.04 1.562-3.163 2.749-5.373 4.558-2.21 1.81-4.351 4.598-4.351 8.955 0 1.897.564 3.452 1.235 4.665a1.712 1.712 0 0 0-1.235 1.662v3.11c.006.443.174.865.483 1.18l1.075 1.019c1.175 1.173 1.88 2.54 1.88 3.807v5.362l-22.78-19.41-1.29-1.127-1.289 1.126-22.78 19.411v-5.362c0-1.267.706-2.634 1.881-3.807l1.074-1.019c.31-.315.477-.737.484-1.18v-3.11a1.716 1.716 0 0 0-1.182-1.662c.665-1.2 1.182-2.748 1.182-4.665 0-4.558-1.981-7.426-4.19-9.223-2.21-1.796-4.433-2.855-5.642-4.397a1.718 1.718 0 0 0-1.504-.643h-.161zm.376 4.075c1.625 1.475 3.371 2.547 4.728 3.646 1.746 1.421 2.955 2.862 2.955 6.542 0 2.755-1.243 4.102-1.88 4.612H27.318c-.631-.51-1.88-1.857-1.88-4.612 0-3.365 1.235-4.832 3.062-6.327 1.403-1.146 3.176-2.306 4.728-3.86zm63.611 0c1.626 1.475 3.372 2.547 4.728 3.646 1.746 1.421 2.955 2.862 2.955 6.542 0 2.755-1.242 4.102-1.88 4.612H90.984c-.651-.563-1.934-2.011-1.934-4.612 0-3.365 1.236-4.832 3.062-6.327 1.404-1.146 3.177-2.306 4.728-3.86zM64.98 32.371l24.07 20.536v38.661H73.577V81.273c0-4.712-3.875-8.58-8.596-8.58s-8.596 3.868-8.596 8.58v10.295H40.912v-38.66L64.98 32.37zm-39.542 2.573h.914c.43.181.913.181 1.343 0h10.96c.416.168.873.168 1.29 0h.967v.644l-.538.536c-1.578 1.575-2.9 3.707-2.9 6.22v49.224h-8.597V42.344c0-2.614-1.551-4.631-2.848-6.113a.8.8 0 0 0-.053-.107l-.538-.536v-.644zm63.612 0h13.217c.416.168.873.168 1.29 0h.966v.644l-.537.536c-1.578 1.575-2.901 3.707-2.901 6.22v49.224h-8.596V42.344c0-2.513-1.323-4.645-2.902-6.22l-.537-.536v-.644zM64.98 44.06l-2.74 4.772h-5.533l2.794 4.826-2.794 4.612h5.534l2.74 4.986 2.74-4.986h5.534l-2.794-4.612 2.794-4.826H67.72l-2.74-4.772z"
    />
  </g>
</svg>
