<svg
  id="icon-shopping-cart-loaded"
  xmlns="http://www.w3.org/2000/svg"
  width="100%"
  height="100%"
  viewBox="0 0 130 130"
>
  <g fill-rule="nonzero">
    <path
      d="M65 11c-9.504 0-17.175 7.657-17.175 17.143v3.428H34.246l-.161 1.5-6.87 60L27 95h76l-.215-1.929-6.87-60-.16-1.5h-13.58v-3.428C82.175 18.657 74.504 11 65 11zm0 3.429c7.672 0 13.74 6.057 13.74 13.714v3.428H51.26v-3.428c0-7.657 6.068-13.714 13.74-13.714zM37.359 35h10.466v3.91c-1.025.594-1.718 1.68-1.718 2.947a3.432 3.432 0 0 0 3.435 3.429 3.432 3.432 0 0 0 3.435-3.429c0-1.268-.692-2.353-1.717-2.946V35h27.48v3.91c-1.025.594-1.717 1.68-1.717 2.947a3.432 3.432 0 0 0 3.435 3.429 3.432 3.432 0 0 0 3.435-3.429c0-1.268-.693-2.353-1.718-2.946V35h10.466l6.495 56.571H30.864L37.36 35z"
    />
  </g>
</svg>
