<svg
  id="icon-room-control"
  xmlns="http://www.w3.org/2000/svg"
  width="100%"
  height="100%"
  viewBox="0 0 130 130"
>
  <g fill-rule="nonzero">
    <path
      d="M33.785 13.008a2.136 2.136 0 0 0-.228.057 1.828 1.828 0 0 0-1.427 1.824v12.77h-3.652C25.475 27.658 23 30.13 23 33.13v3.648c0 3 2.475 5.472 5.478 5.472h10.957c3.003 0 5.478-2.472 5.478-5.472V33.13c0-3-2.475-5.473-5.478-5.473h-3.652V14.89a1.827 1.827 0 0 0-1.997-1.881zm31.044 0a2.136 2.136 0 0 0-.228.057 1.828 1.828 0 0 0-1.427 1.824v51.076h-3.652c-3.003 0-5.479 2.472-5.479 5.472v3.649c0 3 2.476 5.472 5.479 5.472h10.956c3.003 0 5.479-2.473 5.479-5.472v-3.649c0-3-2.476-5.472-5.479-5.472h-3.652V14.889a1.827 1.827 0 0 0-1.997-1.881zm31.043 0a2.136 2.136 0 0 0-.228.057 1.828 1.828 0 0 0-1.427 1.824v18.242h-3.652c-3.003 0-5.478 2.472-5.478 5.472v3.648c0 3 2.475 5.473 5.478 5.473h10.957c3.003 0 5.478-2.473 5.478-5.473v-3.648c0-3-2.475-5.472-5.478-5.472H97.87V14.889a1.827 1.827 0 0 0-1.997-1.881zM28.478 31.307h10.957c1.034 0 1.826.79 1.826 1.824v3.648a1.793 1.793 0 0 1-1.826 1.824H28.478a1.793 1.793 0 0 1-1.826-1.824V33.13c0-1.034.792-1.824 1.826-1.824zm62.087 5.472h10.957c1.034 0 1.826.79 1.826 1.824v3.648a1.793 1.793 0 0 1-1.826 1.824H90.565a1.793 1.793 0 0 1-1.826-1.824v-3.648c0-1.033.792-1.824 1.826-1.824zM32.13 44.075v12.427a1.372 1.372 0 0 0 0 .342v38.307a1.835 1.835 0 0 0 .906 1.603c.571.328 1.27.328 1.84 0 .571-.335.914-.948.907-1.603V56.844a1.372 1.372 0 0 0 0-.342V44.075H32.13zm62.087 5.473v12.427a1.372 1.372 0 0 0 0 .342V95.15a1.835 1.835 0 0 0 .906 1.603c.571.328 1.27.328 1.84 0 .571-.335.914-.948.907-1.603V62.317a1.372 1.372 0 0 0 0-.342V49.548h-3.653zM59.522 69.613h10.956c1.035 0 1.826.791 1.826 1.824v3.649a1.793 1.793 0 0 1-1.826 1.824H59.522a1.793 1.793 0 0 1-1.826-1.824v-3.649c0-1.033.791-1.824 1.826-1.824zm3.652 12.769v3.306a1.372 1.372 0 0 0 0 .342v9.12a1.835 1.835 0 0 0 .906 1.604c.57.328 1.27.328 1.84 0 .57-.335.913-.948.906-1.603v-9.12a1.372 1.372 0 0 0 0-.343v-3.306h-3.652z"
    />
  </g>
</svg>
