<svg
  id="icon-towel"
  xmlns="http://www.w3.org/2000/svg"
  width="100%"
  height="100%"
  viewBox="0 0 130 130"
>
  <g fill-rule="nonzero">
    <path
      d="M41.846 12c-3.585 0-6.59.908-8.63 2.957-2.042 2.049-2.947 5.064-2.947 8.663v1.66H25.153a1.663 1.663 0 0 0 .155 3.32h4.961v31.229c-.045.22-.045.454 0 .674v9.286c-.045.22-.045.454 0 .674v9.597c0 .914.743 1.66 1.654 1.66h8.27v11.62c0 .914.742 1.66 1.653 1.66H94.77a1.66 1.66 0 0 0 1.654-1.66V30.52a1.738 1.738 0 0 0 0-.26V28.6h8.27a1.662 1.662 0 0 0 1.453-.824 1.681 1.681 0 0 0 0-1.672 1.662 1.662 0 0 0-1.454-.824h-8.269v-1.66c0-3.424-1.085-6.387-3.153-8.456C91.203 13.096 88.244 12 84.846 12h-43zm0 3.32h43c2.713 0 4.73.81 6.099 2.179.743.745 1.279 1.718 1.654 2.853-1.441-1.102-3.03-1.712-4.445-1.712-1.667 0-3.896.454-5.582 2.282-1.686 1.83-2.687 4.78-2.687 9.338v25.056c-1.5.324-2.804 1.044-4.032 1.66-1.653.83-3.133 1.504-4.238 1.504-1.104 0-2.584-.674-4.238-1.504-1.653-.83-3.482-1.816-5.685-1.816-2.203 0-4.03.986-5.685 1.816-1.654.83-3.133 1.504-4.238 1.504-1.104 0-2.584-.674-4.238-1.504-1.654-.83-3.482-1.816-5.685-1.816-2.203 0-4.031.986-5.685 1.816-.93.467-1.796.914-2.584 1.193V27.25c.045-.22.045-.454 0-.674V23.62c0-3.041.75-5.006 2.016-6.277 1.266-1.27 3.223-2.023 6.253-2.023zm46.308 6.64c1.02 0 2.138.298 3.1 1.4.395.455.77 1.096 1.086 1.92h-8.476c.323-.986.717-1.673 1.137-2.127.918-.992 2.016-1.193 3.153-1.193zm-4.91 6.64h9.768c.045.512.103 1.063.103 1.66v61.42H43.5v-9.96h38.038a1.66 1.66 0 0 0 1.654-1.66V67.091c.046-.22.046-.454 0-.674V57.13c.046-.22.046-.454 0-.674V30.26c0-.59.02-1.148.052-1.66zM41.846 58.48c1.105 0 2.584.674 4.238 1.504 1.654.83 3.482 1.816 5.685 1.816 2.203 0 4.031-.986 5.685-1.816 1.654-.83 3.134-1.504 4.238-1.504 1.105 0 2.584.674 4.238 1.504 1.654.83 3.482 1.816 5.685 1.816 2.203 0 4.032-.986 5.685-1.816.93-.467 1.796-.914 2.585-1.193v6.485c-1.5.324-2.804 1.044-4.032 1.66-1.653.83-3.133 1.504-4.238 1.504-1.104 0-2.584-.674-4.238-1.504-1.653-.83-3.482-1.816-5.685-1.816-2.203 0-4.03.986-5.685 1.816-1.654.83-3.133 1.504-4.238 1.504-1.104 0-2.584-.674-4.238-1.504-1.654-.83-3.482-1.816-5.685-1.816-2.203 0-4.031.986-5.685 1.816-.93.466-1.796.914-2.584 1.193v-6.485c1.499-.324 2.804-1.044 4.031-1.66 1.654-.83 3.133-1.504 4.238-1.504zm0 9.96c1.105 0 2.584.674 4.238 1.504 1.654.83 3.482 1.816 5.685 1.816 2.203 0 4.031-.986 5.685-1.816 1.654-.83 3.134-1.504 4.238-1.504 1.105 0 2.584.674 4.238 1.504 1.654.83 3.482 1.816 5.685 1.816 2.203 0 4.032-.986 5.685-1.816.93-.466 1.796-.914 2.585-1.193V78.4H33.577v-6.796c1.499-.324 2.804-1.044 4.031-1.66 1.654-.83 3.133-1.504 4.238-1.504z"
    />
  </g>
</svg>
