<svg
  id="icon-contacts"
  xmlns="http://www.w3.org/2000/svg"
  width="100%"
  height="100%"
  viewBox="0 0 130 130"
>
  <g fill-rule="nonzero">
    <path
      d="M39.837 11.912c-1.471-.12-3.107.307-4.616 1.367-1.33.926-4.197 3.204-6.879 5.781-1.337 1.285-2.614 2.622-3.6 3.936-.993 1.315-1.86 2.517-1.807 4.265.052 1.569.209 6.207 3.548 13.317 3.338 7.103 9.814 16.85 22.444 29.488C61.564 82.703 71.31 89.179 78.414 92.517c7.103 3.34 11.749 3.496 13.317 3.548 1.74.053 2.943-.814 4.258-1.807 1.314-.994 2.651-2.263 3.936-3.6 2.57-2.682 4.847-5.55 5.773-6.88 2.114-3.01 1.763-6.564-.59-8.215-1.479-1.038-15.08-10.09-17.126-11.345-2.076-1.27-4.466-.695-6.603.433-1.68.889-6.229 3.495-7.528 4.242-.979-.62-4.69-3.092-12.675-11.076-7.992-7.985-10.457-11.697-11.077-12.675.747-1.3 3.347-5.826 4.243-7.536 1.12-2.129 1.748-4.542.41-6.633-.56-.889-3.107-4.765-5.676-8.656-2.577-3.892-5.019-7.581-5.654-8.463v-.007c-.829-1.143-2.121-1.815-3.585-1.935zm-.351 3.907c.523.067.837.276.837.276.306.426 2.987 4.444 5.556 8.328 2.57 3.891 5.191 7.88 5.647 8.604.075.112.18 1.382-.568 2.794v.007c-.844 1.606-4.78 8.485-4.78 8.485l-.545.963.56.956s2.935 4.952 12.272 14.288C67.808 69.857 72.76 72.8 72.76 72.8l.956.56.964-.546s6.864-3.928 8.485-4.78c1.411-.74 2.68-.642 2.83-.553 1.322.815 16.014 10.577 16.917 11.211.03.023.83 1.233-.336 2.89h-.007c-.702 1.01-3.003 3.93-5.4 6.424-1.203 1.248-2.435 2.413-3.48 3.197-1.046.784-1.98 1.03-1.83 1.038-1.629-.052-5.221-.09-11.817-3.19-6.595-3.091-16.005-9.283-28.411-21.696-12.399-12.399-18.59-21.81-21.69-28.412-3.092-6.596-3.13-10.188-3.182-11.809.007.15.254-.792 1.038-1.837.784-1.046 1.942-2.286 3.19-3.488 2.501-2.398 5.414-4.698 6.423-5.4v.007c.829-.582 1.553-.657 2.076-.597z"
    />
  </g>
</svg>
