<svg
  id="icon-social"
  xmlns="http://www.w3.org/2000/svg"
  width="100%"
  height="100%"
  viewBox="0 0 130 130"
>
  <g fill-rule="nonzero">
    <path
      d="M34.524 14C29.287 14 25 18.292 25 23.535v61.023c0 5.243 4.287 9.535 9.524 9.535h32.06c.207.034.416.034.622 0h10.807c.206.034.416.034.622 0h16.841c5.237 0 9.524-4.292 9.524-9.535V23.535c0-5.243-4.287-9.535-9.524-9.535H34.524zm0 3.814h60.952a5.69 5.69 0 0 1 5.714 5.72v61.024a5.69 5.69 0 0 1-5.714 5.721H80.238V63.581h7.277l2.667-13.348h-9.944v-3.814c0-1.064.101-1.147.458-1.378.356-.232 1.458-.53 3.352-.53h5.714V33.775l-1.086-.518s-4.376-2.093-10.343-2.093c-4.285 0-7.806 1.71-10.06 4.529C66.022 38.512 65 42.287 65 46.419v3.814h-5.714V63.58H65V90.28H34.524a5.69 5.69 0 0 1-5.714-5.72V23.534a5.69 5.69 0 0 1 5.714-5.721zm43.81 17.163c3.96 0 6.451.874 7.618 1.337v4.384h-1.904c-2.192 0-3.949.181-5.428 1.143-1.48.962-2.191 2.788-2.191 4.578v7.628h9.103l-1.142 5.72h-7.961V90.28h-7.62V59.767h-5.714v-5.72h5.715v-7.628c0-3.497.884-6.396 2.44-8.343 1.556-1.948 3.75-3.1 7.083-3.1z"
    />
  </g>
</svg>
