<svg
  id="icon-mobilekey"
  xmlns="http://www.w3.org/2000/svg"
  width="100%"
  height="100%"
  viewBox="0 0 130 130"
>
  <g fill-rule="nonzero">
    <path
      d="M42.438 15c-3.047 0-5.559 2.526-5.559 5.59v5.279a1.695 1.695 0 0 0 0 .604v57.169a1.695 1.695 0 0 0 0 .604v7.163c0 3.065 2.512 5.591 5.56 5.591h37.06c3.047 0 5.559-2.526 5.559-5.59v-7.142a1.695 1.695 0 0 0 0-.605V26.495a1.695 1.695 0 0 0 0-.604v-5.3c0-3.065-2.512-5.591-5.56-5.591h-37.06zm0 3.727h37.06c1.028 0 1.854.83 1.854 1.864v3.727H40.585v-3.727c0-1.034.825-1.864 1.853-1.864zm-1.853 9.318h40.767v54.046H40.585V28.045zm60.477 4.405l-2.628 2.642c5.422 4.95 8.86 12.048 8.86 19.976 0 7.447-3.026 14.196-7.89 19.088l2.599 2.613c5.544-5.561 8.997-13.22 8.997-21.7 0-8.955-3.85-16.992-9.938-22.62zM93.2 40.356l-2.642 2.657c3.424 2.897 5.617 7.214 5.617 12.055 0 4.368-1.795 8.3-4.647 11.167l2.62 2.636c3.525-3.538 5.733-8.408 5.733-13.803 0-5.867-2.599-11.123-6.681-14.712zM40.585 85.818h40.767v5.591a1.853 1.853 0 0 1-1.853 1.864h-37.06a1.853 1.853 0 0 1-1.854-1.864v-5.59zm14.824 1.864a1.862 1.862 0 0 0-1.628.924 1.89 1.89 0 0 0 0 1.879c.34.582.962.931 1.628.924h11.118a1.862 1.862 0 0 0 1.629-.924 1.89 1.89 0 0 0 0-1.879 1.862 1.862 0 0 0-1.629-.924H55.41z"
    />
  </g>
</svg>
