<svg
  id="icon-construction"
  xmlns="http://www.w3.org/2000/svg"
  width="100%"
  height="100%"
  viewBox="0 0 130 130"
>
  <g fill-rule="evenodd">
    <path
      d="M17.072 0C12.15 0 8.13 4.02 8.13 8.942c0 4.923 4.02 8.943 8.942 8.943 4.922 0 8.943-4.02 8.943-8.943C26.015 4.02 21.995 0 17.072 0zm0 17.885H9.755c-3.08 0-5.41 1.042-6.808 2.693C1.55 22.229 1.131 24.23.965 26.116.851 27.437.61 32.137.406 36.99.203 41.842.038 46.72 0 48.117c-.038 1.486.19 2.788.965 3.861.775 1.074 2.122 1.677 3.455 1.677.35 0 .813-.248 1.22-.305-.375 9.82-.724 19.028-.762 20.222-.064 1.918.241 3.69 1.016 5.132.775 1.442 2.255 2.591 4.014 2.591 1.658 0 3.207-.419 4.268-1.524 1.06-1.105 1.448-2.636 1.626-4.37.082-.8.502-5.71.762-8.739.26 3.03.68 7.94.762 8.74.172 1.689.483 3.181 1.474 4.318.99 1.137 2.56 1.575 4.217 1.575 1.918 0 3.563-1.232 4.217-2.743.654-1.512.667-3.189.61-4.98-.045-1.39-.07-8.123-.102-14.988-.032-6.84-.05-13.884-.102-16.361V30.13c3.735 1.702 8.708 3.9 12.703 5.64h-6.504c-.775.146-1.334.832-1.32 1.626v14.633c0 .896.73 1.626 1.625 1.626h.559c.553.375 1.277.375 1.83 0h2.489V79.67c0 .895.73 1.625 1.626 1.625h6.503c.896 0 1.626-.73 1.626-1.625v-4.878h21.137v4.878c0 .895.73 1.625 1.626 1.625h6.504c.895 0 1.626-.73 1.626-1.625V53.655c.584.006 1.13-.299 1.429-.807.292-.508.292-1.13 0-1.638-.299-.508-.845-.813-1.43-.807h-2.032l3.354-5.538c.349-.508.374-1.175.076-1.709-.305-.54-.883-.863-1.5-.832-.088.013-.17.026-.253.051-.476.09-.883.388-1.118.813l-4.268 7.215h-6.046l6.808-11.381h4.98c.584.006 1.13-.299 1.429-.807.292-.508.292-1.13 0-1.638-.299-.508-.845-.813-1.43-.807H53.453c.28-.99.165-2.058-.305-2.947-.572-1.08-1.543-1.95-2.795-2.54-2.159-1.017-21.994-11.07-22.102-11.128-.013-.006-.038.007-.05 0-1.34-.724-2.586-1.27-4.574-1.27h-6.554zm0-14.633c3.163 0 5.69 2.528 5.69 5.69 0 3.163-2.527 5.691-5.69 5.691-3.163 0-5.69-2.528-5.69-5.69 0-3.163 2.527-5.691 5.69-5.691zM9.755 21.137h13.871c1.588 0 1.74.152 3.05.864l.05.05S46.3 31.991 48.93 33.23c.736.349 1.156.8 1.32 1.117.166.318.147.413.052.61-.274.565-.451.686-.763.762-.31.076-.927.07-1.88-.355-2.33-1.036-16.646-7.133-20.933-9.197-.508-.248-1.105-.216-1.582.089-.47.298-.762.82-.755 1.384V42.273c.05 2.35.07 9.445.101 16.31.032 6.866.102 13.44.153 15.091.05 1.594-.115 2.94-.407 3.607-.292.667-.33.763-1.22.763-1.155 0-1.473-.166-1.727-.458-.254-.292-.565-1.073-.711-2.49-.222-2.165-1.677-18.977-2.388-26.725-.006-.09.006-.223 0-.305-.14-.775-.813-1.34-1.6-1.34-.788 0-1.461.565-1.601 1.34-.007.082.006.216 0 .305-.718 7.748-2.166 24.56-2.388 26.726-.14 1.372-.451 2.064-.762 2.388-.312.324-.775.559-1.931.559-.438 0-.718-.172-1.118-.915-.4-.743-.711-1.982-.66-3.455.044-1.334.47-12.887.914-24.44v-.152c.33-8.555.711-18.139.711-18.139.026-.895-.68-1.651-1.575-1.677-.895-.025-1.651.68-1.676 1.575 0 0-.337 9.553-.66 17.987 0 .05-.052.05-.052.102-.006.07-.006.133 0 .203-.038.997-.228 1.06-.305 1.118-.076.057-.425.152-1.067.152-.565 0-.641-.07-.813-.305-.171-.235-.387-.825-.355-1.88.038-1.32.203-6.287.406-11.127.204-4.84.426-9.73.508-10.67.134-1.543.528-2.883 1.27-3.76.744-.876 1.893-1.524 4.32-1.524zM35.77 39.022h5.894L35.77 48.93v-9.908zm9.654 0h5.995l-6.757 11.381h-6.047l6.809-11.381zm9.755 0h5.996l-6.758 11.381h-6.046l6.808-11.381zm9.756 0h5.995l-6.757 11.381h-6.047l6.809-11.381zM42.274 53.655h2.184c.318.203.693.298 1.067.254v14.074c-.012.102-.012.204 0 .305v9.756h-3.251V53.655zm6.503 0h5.437c.552.375 1.276.375 1.829 0h7.926c.553.375 1.277.375 1.83 0h4.115v13.007H48.777V53.655zm24.389 0h.559c.552.375 1.276.375 1.829 0h.864v24.389h-3.252V73.42c.006-.083.006-.172 0-.254v-4.878-14.633zm-24.389 16.26h21.137v1.625H48.777v-1.626z"
      transform="translate(-19631 -113) translate(19591 73) translate(40 40) translate(24 11)"
    />
  </g>
</svg>
