<svg
  id="icon-laundry"
  xmlns="http://www.w3.org/2000/svg"
  width="100%"
  height="100%"
  viewBox="0 0 130 130"
>
  <g fill-rule="nonzero">
    <path
      d="M34.763 12C31.603 12 29 14.587 29 17.727v72.546C29 93.413 31.603 96 34.763 96h61.474c3.16 0 5.763-2.587 5.763-5.727V17.727c0-3.14-2.603-5.727-5.763-5.727H34.763zm0 3.818h61.474c1.085 0 1.92.83 1.92 1.91v72.545c0 1.078-.835 1.909-1.92 1.909H34.763c-1.085 0-1.92-.83-1.92-1.91V17.728c0-1.078.835-1.909 1.92-1.909zm42.263 5.727c-2.122 0-3.842 1.71-3.842 3.819 0 2.108 1.72 3.818 3.842 3.818s3.842-1.71 3.842-3.818c0-2.11-1.72-3.819-3.842-3.819zm11.527 0c-2.122 0-3.842 1.71-3.842 3.819 0 2.108 1.72 3.818 3.842 3.818s3.842-1.71 3.842-3.818c0-2.11-1.72-3.819-3.842-3.819zM65.5 34.91c-12.318 0-22.384 9.666-22.993 21.76-.06.24-.073.49-.037.735-.003.14-.023.274-.023.414 0 12.63 10.344 22.91 23.053 22.91 12.705 0 23.053-10.28 23.053-22.91 0-.138-.02-.272-.023-.41a1.898 1.898 0 0 0-.037-.753c-.607-11.843-10.33-21.239-22.31-21.608a1.932 1.932 0 0 0-.683-.138zm0 3.818c9.083 0 16.652 6.233 18.666 14.64-1.9-.866-3.706-1.241-5.177-1.272-2.743-.058-4.869 1.115-6.87 2.058-2.002.943-3.92 1.756-6.619 1.756-2.7 0-4.617-.813-6.619-1.756-2-.943-4.125-2.114-6.866-2.058h-.004c-1.473.03-3.277.406-5.177 1.271 2.013-8.406 9.58-14.639 18.666-14.639zM52.09 55.91h.004c1.553-.032 3.044.705 5.14 1.693 2.096.987 4.756 2.125 8.266 2.125s6.17-1.138 8.266-2.125c2.096-.988 3.587-1.725 5.14-1.693 1.25.027 3.535.59 5.793 2.17-.141 10.443-8.66 18.83-19.199 18.83-10.543 0-19.058-8.386-19.2-18.83 2.26-1.581 4.544-2.145 5.79-2.17z"
    />
  </g>
</svg>
