<svg
  id="icon-messages"
  xmlns="http://www.w3.org/2000/svg"
  width="100%"
  height="100%"
  viewBox="0 0 130 130"
>
  <g fill-rule="nonzero">
    <path
      d="M22 24v62h86V24H22zm3.44 3.444h79.12v4.306c-.672.585-30.832 26.93-33.648 29.385l-.16.162C68.52 63.24 66.235 63.61 65 63.61c-1.23 0-3.52-.37-5.751-2.314-.639-.559-5.234-4.534-8.547-7.427A18229.66 18229.66 0 0 1 25.44 31.75v-4.306zm0 8.88c2.983 2.604 13.565 11.827 22.575 19.699L25.44 73.89V36.325zm79.12 0v37.567L81.985 56.023c9.01-7.872 19.592-17.095 22.575-19.698zM50.649 58.338c2.09 1.823 5.865 5.126 6.342 5.543l.054.054c2.91 2.503 6 3.122 7.955 3.122 1.969 0 5.086-.626 8.009-3.176.484-.417 4.286-3.7 6.396-5.543L104.56 78.25v4.306H25.44V78.25l25.209-19.913z"
    />
  </g>
</svg>
