<svg
  id="icon-birthday-2"
  xmlns="http://www.w3.org/2000/svg"
  width="100%"
  height="100%"
  viewBox="0 0 130 130"
>
  <g fill-rule="evenodd">
    <path
      d="M53.167.166L51.8 1.533l-6.2 6.2 7.567 7.568 7.567-7.568L53.167.166zM29 4.833c-1.068 0-1.933.866-1.933 1.934v9.666c0 1.068.865 1.934 1.933 1.934h1.933c2.312 0 2.814.695 3.308 1.805.494 1.11.559 2.778.559 3.995 0 1.578-.191 3.238-.46 4.833-1.7-.599-3.33-.956-4.842-.967-1.707-.012-3.404.467-4.618 1.68-.517.518-.864 1.136-1.132 1.79l-.034-.01-21.248 53.86 55.783-19.099-.011-.034c.716-.27 1.389-.641 1.948-1.2 1.446-1.446 1.839-3.531 1.624-5.615-.135-1.314-.516-2.702-1.065-4.143 1.527-.092 3.15-.162 4.988-.162 2.756 0 5.364.333 7.058.921.847.294 1.443.655 1.733.93.29.274.306.354.306.566v1.45c0 1.067.865 1.933 1.933 1.933h8.304c.522 0 1.023-.211 1.387-.586.364-.375.561-.881.547-1.404l-.058-2.41v-.003c.036-4.389-2.729-7.79-6.14-9.882-3.41-2.091-7.55-3.115-11.245-3.115-6.114 0-10.663 1.586-13.707 3.157-.96-1.304-2.017-2.617-3.171-3.924.69-.22 1.389-.424 2.065-.607 1.362-.37 2.65-.671 3.651-.895 1.002-.224 1.555-.32 2.058-.461 1.561-.437 3.692-.972 5.6-2.247C67.963 37.25 69.6 34.956 69.6 31.9c0-.837-.406-1.302-.672-1.933h.672c4.133 0 7.733-3.338 7.733-7.734v-2.658s.015-.263.197-.559c.182-.295.327-.65 1.737-.65H81.2c1.068 0 1.933-.865 1.933-1.933v-7.73c0-1.067-.865-1.932-1.933-1.933h-3.134c-5.139-.004-8.313 2.375-10.01 4.637-1.26 1.677-1.647 3.75-1.945 5.529-.13.78-.105.864-.162 1.43h-.216c-3.33 0-5.938 1.208-7.525 3.112-1.587 1.905-2.141 4.3-2.141 6.555v2.625c-3.169 1.044-6.798 2.74-9.92 5.694-1.84-1.565-3.67-2.964-5.464-4.131 1.982-3.494 3.784-8.208 3.784-13.854 0-3.33-1.104-6.692-3.414-9.267-2.31-2.574-5.85-4.267-10.263-4.267H29zm24.167.8l2.1 2.1-2.1 2.1-2.1-2.1 2.1-2.1zM12.567 7.9L11.2 9.266l-6.2 6.2 7.567 7.568 7.567-7.567-7.567-7.568zm18.366.827c3.372.039 5.676 1.21 7.243 2.957 1.593 1.775 2.424 4.213 2.424 6.684 0 4.025-1.172 7.309-2.538 10.138.217-1.481.605-2.792.605-4.338 0-1.217.065-3.418-.891-5.566-.957-2.148-3.354-4.101-6.843-4.101V8.726zm47.13 1.911H79.265V14.5c-2.456 0-4.244 1.217-5.029 2.492-.785 1.276-.77 2.583-.77 2.583v2.658c0 2.371-1.717 3.867-3.867 3.867h-3.867c-.718 0-1.376.398-1.71 1.033-.335.635-.29 1.404.117 1.995 0 .001.15.191.162.204l.027.03c.014.017.031.033.053.057.042.048.103.119.177.208.148.178.343.43.532.717.378.575.642 1.297.642 1.556 0 1.85-.656 2.624-1.827 3.406-1.172.782-2.909 1.297-4.494 1.74.064-.017-.828.181-1.861.412-1.034.231-2.372.546-3.814.937-2.215.6-4.42 1.562-6.465 2.586 3.238-4.028 7.683-6.22 11.25-7.22.834-.233 1.411-.994 1.411-1.861v-3.867c0-1.61.413-3.082 1.243-4.078.83-.995 2.087-1.722 4.557-1.722h1.934c1.027 0 1.875-.805 1.93-1.831 0 0 .07-1.287.328-2.828.258-1.542.837-3.338 1.22-3.848h.003c1.203-1.603 2.86-3.092 6.914-3.089zm-65.496 2.73l2.1 2.1-2.1 2.1-2.1-2.1 2.1-2.1zm67.666 16.6L75.4 34.8l4.833 4.833 4.83-4.833-4.83-4.833zM4.833 31.9L0 36.733l4.833 4.834 4.83-4.834-4.83-4.833zm24.635 0c1.014.007 2.414.377 4.022 1.027-.553 2.111-1.086 3.667-1.25 4.165-.273.826.04 1.733.765 2.215.724.482 1.682.421 2.339-.15.27-.236.746-.678 1.608-1.66.461-.526.999-1.19 1.564-1.95 1.646 1.034 3.364 2.286 5.082 3.72-.25.342-.511.664-.747 1.03l-3.875 6.024c-.494.774-.375 1.79.285 2.43.66.639 1.68.725 2.438.205l5.815-4.014c.341-.235.787-.479 1.291-.72 1.387 1.493 2.65 2.998 3.754 4.478-.618.475-1.101.895-1.194.985l-.003.004-4.388 4.335c-.651.643-.762 1.655-.265 2.424.497.77 1.465 1.084 2.32.755 0 0 2.537-.963 7.683-1.586.71 1.62 1.14 3.07 1.254 4.184.143 1.387-.133 2.104-.514 2.485-.148.149-.362.273-.63.37l-.196.068c-.344.09-.777.132-1.352.098-1.207-.072-2.867-.525-4.747-1.378-3.759-1.707-8.382-4.972-12.74-9.33-4.358-4.36-7.623-8.982-9.33-12.741-.854-1.88-1.307-3.544-1.379-4.75-.036-.6.012-1.053.11-1.401.01-.04.028-.068.041-.106.098-.29.229-.512.385-.668.318-.318.84-.555 1.854-.548zm-4.946 8.08c.134.33.259.658.411.994 1.975 4.348 5.484 9.236 10.12 13.873 4.636 4.637 9.525 8.145 13.873 10.12.175.08.344.14.517.215L9.134 78.983l15.388-39.002zm45.036 7.387c2.945 0 6.556.908 9.225 2.545 2.67 1.637 4.316 3.76 4.294 6.551-.002.149.007.335.011.57h-4.607c-.15-1.1-.548-2.18-1.295-2.888-.872-.828-1.945-1.363-3.13-1.775-2.371-.823-5.279-1.137-8.323-1.137-4.975 0-8.38.51-11.332.993.444-.423 5.212-4.86 15.157-4.86zm-2.858 22.4l-1.367 1.366-6.2 6.2 7.567 7.568 7.567-7.568-7.567-7.567zm0 5.467l2.1 2.1-2.1 2.099-2.1-2.1 2.1-2.1z"
      transform="translate(-18481 -113) translate(18441 73) translate(40 40) translate(22 11)"
    />
  </g>
</svg>
