<svg
  id="icon-settings"
  xmlns="http://www.w3.org/2000/svg"
  width="100%"
  height="100%"
  viewBox="0 0 130 130"
>
  <g fill-rule="nonzero">
    <path
      d="M58.281 11l-.215 1.451L56.24 23.74c-2.258.645-4.428 1.471-6.45 2.58l-9.299-6.611-1.183-.86-9.352 9.352.86 1.183 6.504 9.352c-1.116 2.022-1.969 4.186-2.634 6.45l-11.234 1.881-1.451.215v13.223l1.398.269L34.63 62.76a31.493 31.493 0 0 0 2.688 6.45l-6.612 9.299-.86 1.182 9.353 9.353 1.182-.86 9.3-6.558c2.035 1.13 4.225 1.976 6.503 2.634l1.881 11.288.215 1.451h13.223l.268-1.397 1.99-11.288c2.263-.665 4.373-1.62 6.395-2.741l9.46 6.611 1.183.86 9.353-9.353-.86-1.236-6.72-9.299a31.247 31.247 0 0 0 2.635-6.396l11.395-1.989 1.397-.268V47.28l-1.451-.215L95.26 45.24c-.651-2.251-1.579-4.38-2.687-6.396l6.611-9.46.86-1.183-9.353-9.352-1.236.86-9.245 6.665c-2.022-1.123-4.186-1.976-6.45-2.634l-1.989-11.341L71.504 11H58.28zm2.956 3.44h7.418l1.881 10.804.162 1.075 1.128.268c2.762.686 5.322 1.794 7.687 3.226l.967.59.914-.644 8.868-6.396 5.268 5.213-6.289 9.03-.645.914.538.967a28.153 28.153 0 0 1 3.171 7.687l.322 1.075 1.076.215 10.857 1.773v7.418l-10.858 1.881-1.128.215-.269 1.075a27.944 27.944 0 0 1-3.171 7.687l-.538.967.645.914 6.397 8.922-5.214 5.214-9.03-6.289-.914-.645-.968.591a28.102 28.102 0 0 1-7.686 3.225l-1.075.27-.215 1.074-1.881 10.804h-7.471L59.41 82.81l-.161-1.129-1.129-.269c-2.761-.685-5.362-1.74-7.74-3.17l-.914-.592-.967.645-8.923 6.235-5.214-5.267 6.29-8.816.644-.913-.537-.968c-1.445-2.385-2.587-4.965-3.279-7.74l-.269-1.075-1.075-.215-10.696-1.881v-7.418l10.696-1.773 1.129-.215.269-1.075a28.573 28.573 0 0 1 3.225-7.794l.591-.968-.645-.913-6.235-8.923 5.214-5.213 8.869 6.288.913.699.968-.591a27.99 27.99 0 0 1 7.74-3.172l1.129-.268.16-1.129 1.774-10.75zM65 38.52c-8.526 0-15.48 6.954-15.48 15.48S56.474 69.48 65 69.48 80.48 62.526 80.48 54 73.526 38.52 65 38.52zm0 3.44c6.672 0 12.04 5.368 12.04 12.04 0 6.672-5.368 12.04-12.04 12.04A12.012 12.012 0 0 1 52.96 54c0-6.672 5.368-12.04 12.04-12.04z"
    />
  </g>
</svg>
