<svg
  id="icon-covid-man"
  xmlns="http://www.w3.org/2000/svg"
  width="100%"
  height="100%"
  viewBox="0 0 130 130"
>
  <g fill-rule="evenodd">
    <path
      d="M31.148 0C21.32 0 13.558 2.9 8.327 8.26 3.096 13.621.519 21.291.519 30.381c0 3.764 1.686 11.017 3.052 15.315-.577.487-1.127.798-1.69 1.655-.937 1.426-1.633 3.461-1.35 5.87h.004c.46 3.907 1.689 6.55 2.884 8.219.854 1.192 1.354 1.432 1.815 1.761.608 3.455 2.795 7.518 6.053 11.673 3.444 4.393 7.951 8.604 12.906 10.958 1.785 2.233 4.426 3.778 7.495 3.778 3.068 0 5.706-1.544 7.492-3.774 4.943-2.357 9.423-6.578 12.845-10.973 3.231-4.15 5.395-8.207 6.004-11.65.474-.328.964-.55 1.822-1.72 1.215-1.655 2.464-4.292 2.926-8.203.284-2.417-.428-4.462-1.373-5.901-.57-.867-1.126-1.19-1.709-1.686 1.367-4.345 3.162-11.055 3.162-18.43 0-3.39-.702-8.02-2.994-12.054-2.148-3.78-6.027-6.889-11.529-7.278C45.841 4.134 40.43 0 31.148 0zm0 3.896c8.758 0 12.939 4.073 14.413 6.776.341.627.998 1.017 1.712 1.016 4.759 0 7.392 2.274 9.2 5.456 1.808 3.183 2.488 7.318 2.488 10.129 0 7.222-1.953 14.312-3.276 18.365-.152.469-.12.977.088 1.423-2.114 1.869-4.413 3.518-6.742 4.985l-.11-.076c-.057.08-.099.163-.153.243-1.64 1.02-3.29 1.969-4.904 2.755-4.673 2.274-9.102 3.474-11.57 3.474-2.674 0-7.301-1.152-12.191-3.337-4.276-1.911-8.807-4.587-12.727-7.83.311-.499.381-1.111.19-1.667-1.179-3.4-3.15-12.732-3.15-15.227 0-8.362 2.316-14.908 6.7-19.4C15.5 6.488 22.074 3.896 31.148 3.896zm15.048 14.831l-.08.008-.091.011-.023.004c-.692.1-1.277.563-1.533 1.214-.091.18-.88 1.707-3.048 3.489-2.3 1.89-5.943 3.82-11.68 3.82-3.653 0-8.201.026-12.146 1.453-1.972.714-3.831 1.815-5.193 3.527-1.362 1.712-2.142 4-2.142 6.708-.01.703.359 1.356.966 1.71.607.354 1.357.354 1.964 0s.976-1.007.966-1.71c0-2 .504-3.283 1.297-4.28.793-.998 1.961-1.746 3.466-2.29 3.01-1.09 7.227-1.222 10.821-1.222 6.633 0 11.267-2.331 14.154-4.703.992-.815 1.728-1.615 2.351-2.359 1.887 3.026 4.924 8.808 4.924 14.854-.01.703.359 1.356.966 1.71.607.354 1.357.354 1.964 0s.976-1.007.966-1.71c0-10.017-6.328-18.29-7.005-19.15-.346-.703-1.08-1.13-1.864-1.084zM20.974 46.753c-1.614 0-2.922 1.309-2.922 2.922 0 1.614 1.308 2.922 2.922 2.922s2.922-1.308 2.922-2.922c0-1.613-1.308-2.922-2.922-2.922zm21.429 0c-1.614 0-2.922 1.309-2.922 2.922 0 1.614 1.308 2.922 2.922 2.922 1.613 0 2.922-1.308 2.922-2.922 0-1.613-1.309-2.922-2.922-2.922zm15.984 3.196c.406.754.665 1.662.52 2.888-.39 3.31-1.382 5.244-2.195 6.35-.812 1.108-1.259 1.29-1.259 1.29-.574.303-.96.873-1.027 1.518-.186 1.767-2 5.654-4.752 9.448-.81-5.442-1.062-11.476 1.917-16.41 2.34-1.504 4.646-3.178 6.796-5.084zm-53.621.213c1.866 1.557 3.841 2.983 5.863 4.266 3.218 4.793 3.174 10.767 2.435 16.22-2.448-3.534-4.052-7.017-4.223-8.653-.068-.632-.44-1.192-.997-1.499 0 0-.447-.195-1.256-1.324-.809-1.129-1.797-3.09-2.188-6.407h.004c-.128-1.089.048-1.918.362-2.603zm11.623 7.458c.71.35 1.422.729 2.123 1.042 5.232 2.338 10.09 3.676 13.781 3.676 3.592 0 8.255-1.424 13.279-3.87.15-.073.302-.169.453-.243-1.643 6.088-.535 12.403.361 17.247-2.744 2.93-5.928 5.51-9.044 6.959-.322.151-.598.388-.795.685-1.051 1.569-2.818 2.598-4.859 2.598-2.04 0-3.804-1.027-4.855-2.595-.198-.297-.474-.534-.799-.684-3.373-1.561-6.801-4.45-9.702-7.663.899-4.92 1.863-11.157.057-17.152z"
      transform="translate(-16263 -113) translate(16223 73) translate(40 40) translate(33 10)"
    />
  </g>
</svg>
