<svg
  id="icon-service-bell"
  xmlns="http://www.w3.org/2000/svg"
  width="100%"
  height="100%"
  viewBox="0 0 130 130"
>
  <g fill-rule="nonzero">
    <path
      d="M65 10c-3.875 0-7.048 3.17-7.048 7.04 0 .908.18 1.788.496 2.585-9.91 2.571-16.353 11.172-16.353 22.055 0 13.784-3.386 20.061-6.607 23.595-1.61 1.767-3.2 2.84-4.57 3.85-.688.502-1.314 1.004-1.872 1.65C28.49 71.421 28 72.342 28 73.36c0 2.42 1.487 4.476 3.579 5.83s4.838 2.228 8.149 2.915c4.294.887 9.594 1.354 15.416 1.595-.44 1.169-.715 2.427-.715 3.74C54.429 93.25 59.184 98 65 98s10.571-4.75 10.571-10.56c0-1.32-.268-2.578-.715-3.74 5.822-.24 11.122-.708 15.416-1.595 3.31-.688 6.057-1.56 8.15-2.915 2.091-1.354 3.578-3.41 3.578-5.83 0-1.017-.489-1.939-1.046-2.585-.558-.646-1.184-1.148-1.872-1.65-1.37-1.01-2.96-2.083-4.57-3.85-3.221-3.534-6.607-9.81-6.607-23.595 0-10.876-6.456-19.47-16.353-22.055a7.024 7.024 0 0 0 .496-2.585c0-3.87-3.173-7.04-7.048-7.04zm0 3.52a3.494 3.494 0 0 1 3.524 3.52A3.494 3.494 0 0 1 65 20.56a3.494 3.494 0 0 1-3.524-3.52A3.494 3.494 0 0 1 65 13.52zm4.13 9.13c9.394 1.67 15.251 8.924 15.251 19.03 0 14.376 3.661 21.76 7.488 25.96 1.913 2.097 3.847 3.41 5.12 4.345.634.468 1.109.86 1.322 1.1.213.24.165.22.165.275 0 1.1-.51 1.904-1.982 2.86-1.473.956-3.868 1.843-6.937 2.475C83.417 79.967 74.677 80.4 65 80.4c-9.677 0-18.417-.433-24.557-1.705-3.07-.632-5.464-1.52-6.937-2.475-1.473-.956-1.982-1.76-1.982-2.86 0-.055-.048-.034.165-.275.213-.24.688-.632 1.321-1.1 1.274-.935 3.208-2.248 5.121-4.345 3.827-4.2 7.488-11.584 7.488-25.96 0-10.1 5.864-17.297 15.252-18.975 1.17.86 2.58 1.375 4.129 1.375 1.562 0 2.96-.557 4.13-1.43zM58.942 83.81c1.976.041 3.985.11 6.057.11 2.072 0 4.081-.069 6.057-.11a7.137 7.137 0 0 1 .99 3.63A7.014 7.014 0 0 1 65 94.48a7.014 7.014 0 0 1-7.048-7.04c0-1.334.351-2.571.991-3.63z"
    />
  </g>
</svg>
