<svg
  id="icon-spa"
  xmlns="http://www.w3.org/2000/svg"
  width="100%"
  height="100%"
  viewBox="0 0 130 130"
>
  <g fill-rule="nonzero">
    <path
      d="M65.06 10c-7.255 0-12.346 5.515-15.573 10.641-2.508 3.983-3.706 7.227-4.253 8.788-.509-.03-.584-.06-1.437-.06-2.98 0-7.794.292-12.458 2.033-4.665 1.741-9.262 5.141-10.961 11.06-2.18 7.6 1.407 14.183 5.33 18.652 2.995 3.415 5.743 5.298 7.128 6.218-.51 1.531-1.46 4.722-1.797 9.266-.434 5.903.464 13.264 6.29 18.114C40.18 97.088 43.518 98 46.731 98c9.141 0 16.898-6.135 18.448-7.413 1.632 1.12 9.815 6.576 18.987 6.576 2.89 0 5.84-.59 8.445-2.272 2.98-1.928 4.68-4.894 5.57-8.01.891-3.117 1.041-6.442.839-9.506-.322-4.932-1.348-8.534-1.797-10.043 1.228-.92 3.968-3.05 7.008-6.696 3.826-4.588 7.51-11.105 5.57-18.174-1.744-6.352-7.457-9.625-12.818-11.24-5.046-1.524-9.823-1.71-12.039-1.733-.516-1.494-1.752-4.782-4.312-8.848C77.406 15.515 72.315 10 65.06 10zm0 3.826c5.256 0 9.419 4.215 12.338 8.848 2.92 4.633 4.373 9.266 4.373 9.266l.42 1.435 1.496-.06h.66c1.766 0 6.76.127 11.5 1.555 4.739 1.427 8.976 3.998 10.242 8.608 1.445 5.284-1.34 10.567-4.792 14.707C97.845 62.325 93.99 65 93.99 65l-1.198.837.419 1.375s1.61 4.835 1.977 10.402c.18 2.78.052 5.694-.66 8.19-.71 2.496-1.946 4.521-4.012 5.859-1.88 1.21-4.006 1.674-6.35 1.674-8.19 0-18.028-6.576-18.028-6.576l-1.198-.837-1.078.956s-9.239 7.294-17.13 7.294c-2.508 0-4.822-.62-6.948-2.391-4.492-3.737-5.3-9.663-4.912-14.946.39-5.283 1.977-9.565 1.977-9.565l.539-1.495-1.318-.837s-4.005-2.376-7.487-6.337c-3.481-3.96-6.266-9.161-4.552-15.125 1.31-4.566 4.665-7.01 8.625-8.489 3.96-1.48 8.43-1.793 11.14-1.793 1.588 0 2.516.12 2.516.12l1.558.119.479-1.495s1.452-4.633 4.372-9.266 7.083-8.848 12.339-8.848zM65 40.668c-5.174 0-.839 13.511-.839 13.511s-11.282-8.242-13.117-3.347c-1.834 4.894 12.578 4.961 12.578 4.961s-10.96 8.288-7.247 11.479C60.089 70.462 65 56.81 65 56.81s4.53 13.75 8.625 10.462c4.088-3.296-7.247-11.479-7.247-11.479s14.494-.082 12.578-4.961c-1.91-4.88-13.117 3.347-13.117 3.347S70.174 40.67 65 40.67z"
    />
  </g>
</svg>
