<svg
  id="icon-concierge"
  xmlns="http://www.w3.org/2000/svg"
  width="100%"
  height="100%"
  viewBox="0 0 130 130"
>
  <g fill-rule="nonzero">
    <path
      d="M68.55 11c-10.038 0-17.315 3.973-21.136 9.828-3.591 5.504-3.94 12.5-1.519 18.953-.894 1.117-1.645 2.569-1.455 4.85v.128c.34 2.488 1.084 4.243 2.025 5.488.459.606 1.139.622 1.708.957.34 2.21.99 4.451 1.899 6.254.514 1.02 1.028 1.922 1.582 2.68.245.335.57.55.823.83-.024 1.747-.127 3.318-.254 4.977h-.063a1.953 1.953 0 0 0-1.012.256s-3.441 2.185-6.265 6.19C32.36 75.31 24 85.449 24 94.726c0 1.125.91 2.042 2.025 2.042h33.729c.388.12.815.12 1.202 0h7.214c.388.12.815.12 1.203 0h33.602A2.038 2.038 0 0 0 105 94.726c0-11.183-10.006-20.197-21.073-22.144-.522-.702-2.665-3.518-5.695-5.743a.96.96 0 0 0-.127-.128c-.102-.072-.213-.12-.316-.191a2.026 2.026 0 0 0-1.266-.447 90.316 90.316 0 0 1-.19-5.041c.222-.272.546-.455.76-.766a20.304 20.304 0 0 0 1.582-2.744c.87-1.803 1.55-3.925 1.962-5.999.648-.335 1.392-.359 1.898-1.021.973-1.284 1.543-3.111 1.772-5.616.127-1.484.024-2.824-.443-3.956-.15-.36-.403-.694-.633-1.021.657-1.428 1.076-3.064 1.266-4.914.277-2.649.166-5.6-.57-8.488-.735-2.887-2.104-5.695-4.303-7.85-1.898-1.858-4.564-2.998-7.657-3.318l-1.582-3.19A2.01 2.01 0 0 0 68.55 11zm-1.202 4.212l1.392 2.808a2.01 2.01 0 0 0 1.835 1.148c2.816 0 4.762.95 6.265 2.425 1.503 1.476 2.563 3.59 3.164 5.935.601 2.346.728 4.858.506 7.02-.221 2.162-.894 3.957-1.392 4.595a2.052 2.052 0 0 0 .95 3.19c-.009.017-.04.04 0 .128.142.351.331 1.077.252 2.042-.182 1.987-.672 3.063-1.012 3.51-.34.447-.514.383-.443.383a2.023 2.023 0 0 0-1.962 1.723c-.26 1.74-1.06 3.885-1.898 5.616-.42.87-.83 1.627-1.203 2.17-.371.542-.767.877-.57.765a2.06 2.06 0 0 0-1.012 1.723c0 2.776.198 4.54.38 7.403v.383c0 .207-.016.423-.127.638-.11.223-.3.43-.57.702-.53.527-1.368 1.03-2.277 1.468-.815.39-1.59.686-2.215.893-.103.032-.222.096-.316.128-.396.12-.823.223-.95.255h-3.29a20.209 20.209 0 0 1-3.48-1.276c-.91-.439-1.749-.941-2.279-1.468-.53-.526-.696-.933-.696-1.34a2.12 2.12 0 0 0-.127-.83c.174-2.64.317-4.3.317-7.147a2.043 2.043 0 0 0-1.013-1.787c.15.088-.245-.175-.632-.702a14.573 14.573 0 0 1-1.266-2.106c-.846-1.683-1.606-3.845-1.772-5.616a2.036 2.036 0 0 0-1.835-1.85c.071.016.024 0-.127 0a1.158 1.158 0 0 1-.316-.32c-.356-.47-.862-1.627-1.14-3.51v-.063c-.007-.032.009-.032 0-.064-.03-1.547.918-2.409.76-2.297a2.047 2.047 0 0 0 .696-2.489c-2.483-5.664-2.128-11.726.886-16.337 2.864-4.387 8.266-7.538 16.517-7.85zM50.83 71.562c.23.956.499 1.946.823 3.126.751 2.744 1.732 5.927 2.721 8.998 1.226 3.79 2.278 6.805 3.038 8.998h-6.139L45.136 84.9l3.923-2.808a2.054 2.054 0 0 0 .823-2.17l-1.455-5.552c.838-1.165 1.684-2.13 2.404-2.808zm27.211.51c1.147 1.124 2.025 2.201 2.468 2.744l-1.392 5.105a2.054 2.054 0 0 0 .823 2.17l3.923 2.808-6.138 7.785h-6.139c.76-2.193 1.812-5.209 3.038-8.998.989-3.071 1.97-6.254 2.721-8.998.269-.989.49-1.787.696-2.616zm-22.591 1.34c.72.518 1.479.925 2.215 1.276 1.091.527 2.143.886 2.974 1.149l1.835 4.595-2.278 7.913a432.546 432.546 0 0 1-1.962-5.935c-.98-3.031-1.993-6.166-2.72-8.807-.025-.072-.048-.12-.064-.191zm18.098 0c-.016.072-.04.12-.063.191-.728 2.64-1.74 5.776-2.721 8.807-.72 2.217-1.337 4.1-1.962 5.935l-2.278-7.913 1.835-4.595c.83-.263 1.883-.622 2.974-1.149.372-.175.768-.359 1.14-.574.213-.12.419-.247.632-.383.15-.096.293-.215.443-.32zm-28.793 3.063l.823 3.127-4.556 3.255c-.451.327-.744.83-.815 1.388-.071.55.087 1.108.435 1.547l5.442 6.892H28.493c1.115-6.206 7-13.656 16.263-16.209zm39.424.191c8.132 1.82 15.093 8.488 16.264 16.018h-17.53l5.443-6.892c.222-.255.372-.566.443-.893a1.376 1.376 0 0 0 0-.256 2.042 2.042 0 0 0-.823-1.786l-4.556-3.255.76-2.936z"
    />
  </g>
</svg>
