<svg
  id="icon-chat"
  xmlns="http://www.w3.org/2000/svg"
  width="100%"
  height="100%"
  viewBox="0 0 130 130"
>
  <g fill-rule="nonzero">
    <path
      d="M54.44 12C36.173 12 21 25.267 21 41.938c0 8.066 3.596 15.377 9.35 20.752-.846 2.511-2.64 4.51-4.565 6.087-1.073.879-2.117 1.633-2.97 2.38-.426.373-.818.705-1.155 1.217-.337.512-.674 1.398-.44 2.27l.22.663.605.388c1.829 1.044 4.05 1.217 6.38 1.051 2.33-.166 4.847-.754 7.315-1.439 3.403-.94 6.318-2.061 8.745-3.043 4.84 11.261 16.988 19.091 31.075 19.091 2.44 0 4.764-.387 6.93-.719 2.454 1.12 6.848 2.968 11.605 4.261 4.943 1.349 9.996 2.352 13.64.277l.66-.388.165-.664c.234-.864-.055-1.694-.385-2.213-.33-.519-.68-.892-1.1-1.273-.839-.768-1.904-1.542-2.97-2.435-1.918-1.605-3.72-3.625-4.62-6.087 5.734-5.375 9.35-12.652 9.35-20.697 0-13.136-9.515-24.342-22.55-28.333C82.085 20.799 69.325 12 54.44 12zm0 3.542c16.582 0 29.755 11.884 29.755 26.396 0 14.499-13.337 26.397-29.92 26.397-2.379 0-4.716-.173-6.82-.664l-.55-.166-.55.22c-.206.09-.64.285-.88.388-.041.014-.124-.014-.165 0a1.743 1.743 0 0 0-1.1.498c-2.489 1.031-5.768 2.318-9.405 3.32-2.33.644-4.682 1.128-6.655 1.273-.873.063-1.237-.2-1.925-.276.564-.443 1.038-.796 1.76-1.384 2.344-1.923 5.232-4.704 6.16-8.854l.22-1.051-.77-.72c-5.63-4.835-9.075-11.565-9.075-18.98 0-14.5 13.338-26.397 29.92-26.397zm32.835 21.582c.33.124.667.249.99.387-.227.298-.385.65-.385 1.051 0 .976.79 1.771 1.76 1.771.811 0 1.444-.58 1.65-1.328 3.905 2.172 7.164 5.112 9.57 8.578-.213-.09-.42-.166-.66-.166-.97 0-1.76.795-1.76 1.77 0 .976.79 1.771 1.76 1.771.935 0 1.698-.733 1.76-1.66a24.719 24.719 0 0 1 2.035 4.372c-.144.256-.275.519-.275.83 0 .664.399 1.19.935 1.494.42 1.757.66 3.563.66 5.423 0 .664-.055 1.335-.11 1.993-.832.138-1.485.837-1.485 1.715 0 .692.42 1.259.99 1.55-1.21 5.312-4.2 10.064-8.47 13.723l-.825.72.275 1.107c.894 3.5 3.087 5.99 5.17 7.858-.213-.09-.42-.166-.66-.166-.97 0-1.76.795-1.76 1.77 0 .18.062.333.11.499a27.196 27.196 0 0 1-3.52-.72c-3.767-1.024-7.439-2.483-9.9-3.542.57-.29.99-.857.99-1.549 0-.975-.79-1.77-1.76-1.77s-1.76.795-1.76 1.77c0 .242.076.45.165.664l-.275.055c-2.276.353-4.634.72-6.93.72-.254 0-.516.007-.77 0 .454-.318.77-.837.77-1.439 0-.975-.79-1.77-1.76-1.77s-1.76.795-1.76 1.77c0 .491.179.955.495 1.273-2.647-.235-5.197-.747-7.59-1.55-.137-.837-.832-1.494-1.705-1.494-.42 0-.797.145-1.1.388-1.43-.637-2.784-1.336-4.07-2.159a1.773 1.773 0 0 0 1.65-1.77c0-.976-.79-1.771-1.76-1.771s-1.76.795-1.76 1.77c0 .201.048.374.11.554a28.501 28.501 0 0 1-4.785-4.538c.31.27.715.443 1.155.443.97 0 1.76-.796 1.76-1.771 0-.975-.79-1.77-1.76-1.77s-1.76.795-1.76 1.77c0 .401.158.754.385 1.051-1.224-1.508-2.296-3.099-3.135-4.814.275-.138.495-.353.66-.609 1.801.284 3.63.498 5.445.498.825 0 1.664-.055 2.475-.11.316.29.75.442 1.21.442.57 0 1.052-.29 1.375-.72 2.681-.366 5.26-.974 7.7-1.88-.144.255-.275.518-.275.83 0 .975.79 1.77 1.76 1.77s1.76-.795 1.76-1.77c0-.817-.578-1.453-1.32-1.66a34.817 34.817 0 0 0 4.07-2.104c.24.125.481.222.77.222.97 0 1.76-.796 1.76-1.771 0-.042-.055-.07-.055-.11a32.862 32.862 0 0 0 4.07-3.542c.605-.187 1.024-.699 1.155-1.328 1.107-1.28 2.159-2.601 3.025-4.04.2.076.378.166.605.166.97 0 1.76-.796 1.76-1.771 0-.623-.344-1.12-.825-1.439 1.54-3.43 2.42-7.18 2.42-11.123 0-1.64-.158-3.251-.44-4.814zm7.645 4.98c-.97 0-1.76.796-1.76 1.771 0 .975.79 1.77 1.76 1.77s1.76-.795 1.76-1.77-.79-1.77-1.76-1.77zm-5.28 5.313c-.97 0-1.76.795-1.76 1.77 0 .976.79 1.771 1.76 1.771s1.76-.795 1.76-1.77c0-.976-.79-1.771-1.76-1.771zm5.28 5.312c-.97 0-1.76.796-1.76 1.771 0 .975.79 1.77 1.76 1.77s1.76-.795 1.76-1.77-.79-1.77-1.76-1.77zm-5.28 5.313c-.97 0-1.76.795-1.76 1.77 0 .976.79 1.771 1.76 1.771s1.76-.795 1.76-1.77c0-.976-.79-1.771-1.76-1.771zm10.56 0c-.97 0-1.76.795-1.76 1.77 0 .976.79 1.771 1.76 1.771s1.76-.795 1.76-1.77c0-.976-.79-1.771-1.76-1.771zm-15.84 5.312c-.97 0-1.76.796-1.76 1.771 0 .975.79 1.77 1.76 1.77s1.76-.795 1.76-1.77-.79-1.77-1.76-1.77zm10.56 0c-.97 0-1.76.796-1.76 1.771 0 .975.79 1.77 1.76 1.77s1.76-.795 1.76-1.77-.79-1.77-1.76-1.77zm-15.84 5.313c-.97 0-1.76.795-1.76 1.77 0 .976.79 1.771 1.76 1.771s1.76-.795 1.76-1.77c0-.976-.79-1.771-1.76-1.771zm10.56 0c-.97 0-1.76.795-1.76 1.77 0 .976.79 1.771 1.76 1.771s1.76-.795 1.76-1.77c0-.976-.79-1.771-1.76-1.771zm10.56 0c-.97 0-1.76.795-1.76 1.77 0 .976.79 1.771 1.76 1.771s1.76-.795 1.76-1.77c0-.976-.79-1.771-1.76-1.771zm-36.96 5.312c-.97 0-1.76.796-1.76 1.771 0 .975.79 1.77 1.76 1.77S65 76.726 65 75.75s-.79-1.77-1.76-1.77zm10.56 0c-.97 0-1.76.796-1.76 1.771 0 .975.79 1.77 1.76 1.77s1.76-.795 1.76-1.77-.79-1.77-1.76-1.77zm10.56 0c-.97 0-1.76.796-1.76 1.771 0 .975.79 1.77 1.76 1.77s1.76-.795 1.76-1.77-.79-1.77-1.76-1.77zm10.56 0c-.97 0-1.76.796-1.76 1.771 0 .975.79 1.77 1.76 1.77s1.76-.795 1.76-1.77-.79-1.77-1.76-1.77zm-26.4 5.313c-.97 0-1.76.795-1.76 1.77 0 .976.79 1.771 1.76 1.771s1.76-.795 1.76-1.77c0-.976-.79-1.771-1.76-1.771zm10.56 0c-.97 0-1.76.795-1.76 1.77 0 .976.79 1.771 1.76 1.771s1.76-.795 1.76-1.77c0-.976-.79-1.771-1.76-1.771zm10.56 0c-.97 0-1.76.795-1.76 1.77 0 .976.79 1.771 1.76 1.771s1.76-.795 1.76-1.77c0-.976-.79-1.771-1.76-1.771zm5.28 5.312c-.97 0-1.76.796-1.76 1.771 0 .975.79 1.77 1.76 1.77s1.76-.795 1.76-1.77-.79-1.77-1.76-1.77zm6.71 6.087c.076.063.144.16.22.222.729.608 1.251.982 1.815 1.439-.591.055-1.238.062-1.925.055.11-.228.22-.45.22-.72 0-.373-.13-.712-.33-.996z"
    />
  </g>
</svg>
