<svg
  id="icon-youtube"
  xmlns="http://www.w3.org/2000/svg"
  width="100%"
  height="100%"
  viewBox="0 0 130 130"
>
  <g fill-rule="evenodd">
    <path
      d="M39.456 16l6.133 18.17v12.114h4.09V34.171L55.811 16h-4.09l-4.088 12.114L43.544 16h-4.088zm22.49 8.076c-2.181 0-3.251.339-4.585 1.42-1.278 1.064-1.63 1.884-1.55 4.637v10.094c0 2.012.336 3.336 1.566 4.512 1.278 1.175 2.484 1.545 4.568 1.545 2.18 0 3.37-.37 4.6-1.545 1.278-1.128 1.534-2.5 1.534-4.512V30.133c0-1.783-.32-3.47-1.558-4.598-1.278-1.16-2.595-1.46-4.576-1.46zm10.222 0v18.17c0 1.964 2.004 4.038 4.089 4.038 2.084 0 3.186-1.033 4.088-2.019v2.02h4.09v-22.21h-4.09v16.152c-.023 1.38-1.669 2.02-2.044 2.02-.423 0-2.044-.087-2.044-2.02V24.076h-4.09zm-10.223 4.038c.615 0 2.045-.008 2.045 2.019v10.094c0 1.956-1.382 2.02-2.045 2.02-.615 0-2.044-.024-2.044-2.02V30.133c0-1.649.886-2.02 2.044-2.02zm2.979 22.05c-10.31-.023-20.612 0-30.923.158-1.39.04-2.779.237-4.105.663-1.07.355-2.092.844-3.018 1.482a10.594 10.594 0 0 0-2.772 2.808c-.519.765-.934 1.6-1.245 2.468-.512 1.396-.743 2.871-.783 4.346a634.113 634.113 0 0 0 0 19.874c.04 1.262.208 2.508.543 3.73.647 2.303 1.885 4.456 3.69 6.073a11.551 11.551 0 0 0 4.025 2.342c1.182.395 2.42.592 3.665.631 20.669.379 41.353.316 62.021 0 1.39-.04 2.78-.236 4.105-.662a11.909 11.909 0 0 0 3.02-1.483 10.745 10.745 0 0 0 2.778-2.808c.512-.765.927-1.6 1.246-2.468.503-1.396.735-2.87.775-4.346.104-6.9.032-13.809 0-20.702-.024-1.49-.24-2.98-.735-4.385a10.773 10.773 0 0 0-1.214-2.492 10.563 10.563 0 0 0-2.731-2.839 11.449 11.449 0 0 0-3.139-1.57c-1.381-.441-2.827-.638-4.28-.662-10.302-.047-20.613-.134-30.923-.158zm15.613 4.07c5.135.008 10.27.047 15.398.126.814.024 1.629.118 2.42.316 1.27.33 2.467.954 3.386 1.884.311.316.583.655.83 1.026a7.1 7.1 0 0 1 .807 1.703c.32.93.447 1.909.479 2.895.104 6.9.104 13.801 0 20.694-.032.986-.16 1.964-.48 2.894a7.1 7.1 0 0 1-.806 1.704c-.247.37-.519.71-.83 1.025-.919.93-2.117 1.554-3.387 1.885-.79.197-1.605.292-2.42.315-20.564.316-41.137.126-61.71 0a8.695 8.695 0 0 1-2.579-.418 7.52 7.52 0 0 1-1.509-.71 6.65 6.65 0 0 1-1.078-.796c-1.262-1.136-2.093-2.658-2.524-4.267-.231-.86-.335-1.75-.367-2.642-.104-6.514-.032-13.036 0-19.558.016-.994.144-1.98.447-2.926a7.182 7.182 0 0 1 .799-1.72c.247-.394.543-.772.87-1.104.95-.962 2.18-1.585 3.49-1.908.847-.205 1.717-.284 2.58-.292 15.397 0 30.795-.173 46.184-.126zm-45.17 4.164v4.038h4.089v24.227h4.089V62.436h4.089v-4.038H35.367zm30.667 0v28.265h4.09v-2.019c.79.907 1.94 2.043 4.088 2.02 1.27-.016 2.252-1.026 2.907-1.822.67-.797 1.182-1.728 1.182-3.226V69.502c0-1.743-.559-2.926-1.27-3.817-.71-.883-1.749-1.356-3.075-1.356-.67 0-1.333.189-1.988.52-.67.324-1.374.9-1.845 1.625v-8.076h-4.089zm-16.356 6.057v18.17c0 1.262.551 1.885 1.023 2.493.527.662 1.653 1.545 2.643 1.545.799 0 1.661.032 2.508-.441.854-.418 1.246-.694 2.004-1.578v2.02h4.09v-22.21h-4.09v16.153c-.367.473-.383 2.003-2.044 2.018-1.494.016-2.045-1.553-2.045-2.018V64.455h-4.089zm37.208 0c-1.94 0-3.737.465-4.696 1.435-1.19 1.207-1.837 2.563-1.837 4.393v9.503c0 2.059.567 3.66 1.654 4.827 1.086 1.167 2.603 1.735 4.544 1.735 2.124 0 3.745-.52 4.784-1.648 1.102-1.073 1.277-2.713 1.277-4.914v-1.198h-4.089v1.01c0 1.214-.12 2.152-.407 2.483-.28.371-.807.537-1.637.544-.75.008-1.318-.197-1.597-.662-.296-.426-.448-1.144-.448-2.271v-3.123h8.178v-6.286c0-2.019-.335-3.273-1.39-4.345-1.03-1.073-2.395-1.483-4.336-1.483zm-14.718 3.028c1.126 0 2.044 1.01 2.044 3.029v10.142c0 1.112-.918 1.971-2.044 1.971-1.127 0-2.029-.425-2.045-1.009V69.502c.016-1.017.918-2.019 2.045-2.019zm14.31 1.01c1.127 0 2.045.78 2.045 2.019v2.019h-4.089v-2.02c.016-1.08.919-2.018 2.045-2.018z"
    />
  </g>
</svg>
