<svg
  id="icon-family"
  xmlns="http://www.w3.org/2000/svg"
  width="100%"
  height="100%"
  viewBox="0 0 130 130"
>
  <g fill-rule="nonzero">
    <path
      d="M39.038 9c-5.712 0-10.384 4.697-10.384 10.44 0 5.743 4.672 10.44 10.384 10.44 5.713 0 10.385-4.697 10.385-10.44C49.423 13.697 44.751 9 39.038 9zm0 3.48c3.847 0 6.924 3.093 6.924 6.96s-3.077 6.96-6.924 6.96c-3.846 0-6.923-3.093-6.923-6.96s3.077-6.96 6.923-6.96zM31.25 31.62c-5.253 0-9.52 4.289-9.52 9.57v23.164a1.317 1.317 0 0 0 0 .326 1.7 1.7 0 0 0 .055.49c.257 2.63 2.46 4.73 5.138 4.73.609 0 1.183-.13 1.73-.326v21.75c0 2.549 2.117 4.676 4.652 4.676h2.975c1.13 0 2.136-.53 2.975-1.25.804.686 1.764 1.25 2.92 1.25h2.921c2.454 0 4.652-2.005 4.652-4.676V69.683c.453.129.912.217 1.406.217 2.677 0 4.881-2.1 5.138-4.73.007-.075.047-.143.054-.218a1.825 1.825 0 0 0 0-.272V41.19c0-5.281-4.266-9.57-9.52-9.57H31.25zm0 3.48h15.577c3.4 0 6.058 2.671 6.058 6.09V64.68c0 .965-.771 1.74-1.731 1.74-.588 0-1.095-.313-1.406-.761V45.54a1.752 1.752 0 0 0-.859-1.53 1.74 1.74 0 0 0-1.744 0c-.541.32-.866.905-.859 1.53v18.107a1.72 1.72 0 0 0-.324 1.033c0 .598.135 1.149.324 1.686v24.958c0 .809-.527 1.196-1.19 1.196h-2.92c-.805 0-1.245-.53-1.245-1.196a1.817 1.817 0 0 0-.162-.653V67.616a1.732 1.732 0 0 0-.581-1.312 1.732 1.732 0 0 0-1.366-.428 1.734 1.734 0 0 0-1.514 1.74v24.36c-.203.367-.582.544-1.028.544h-2.975c-.926 0-1.19-.265-1.19-1.196V45.54a1.734 1.734 0 0 0-1.893-1.794 2.014 2.014 0 0 0-.216.054 1.742 1.742 0 0 0-1.352 1.74v19.14c0 .965-.77 1.74-1.73 1.74-.92 0-1.678-.72-1.732-1.631v-.109a1.317 1.317 0 0 0 0-.326V41.19c0-3.419 2.657-6.09 6.058-6.09zm58.576 6.96a1.725 1.725 0 0 0-1.298.979L79.495 61.2h-14.82c-.824.156-1.42.89-1.406 1.74 0 6.709 3.428 12.615 8.654 16.421-3.042 1.353-5.192 4.398-5.192 7.939 0 4.785 3.894 8.7 8.654 8.7s8.653-3.915 8.653-8.7a8.676 8.676 0 0 0-.81-3.643c.838.088 1.683.163 2.541.163 1.515 0 2.995-.163 4.435-.435-.601 1.183-.973 2.501-.973 3.915 0 4.785 3.894 8.7 8.654 8.7s8.653-3.915 8.653-8.7c0-3.99-2.724-7.361-6.382-8.374 4.787-3.71 7.897-9.23 8.06-15.497a.813.813 0 0 0 .053-.108v-.381a1.169 1.169 0 0 0 0-.218c-.108-9.841-7.653-18.025-17.74-20.608a1.756 1.756 0 0 0-.703-.054zm1.136 3.97c7.497 2.412 12.73 8.217 13.521 15.17H83.39l7.573-15.17zM67.109 64.68h37.32c-.994 8.734-8.775 15.66-18.66 15.66-9.884 0-17.666-6.926-18.66-15.66zm8.276 17.4c2.886 0 5.192 2.318 5.192 5.22 0 2.902-2.306 5.22-5.192 5.22-2.887 0-5.193-2.318-5.193-5.22 0-2.902 2.306-5.22 5.193-5.22zm22.5 0c2.886 0 5.192 2.318 5.192 5.22 0 2.902-2.306 5.22-5.192 5.22-2.887 0-5.193-2.318-5.193-5.22 0-2.902 2.306-5.22 5.193-5.22z"
    />
  </g>
</svg>
