<svg
  id="icon-flights"
  xmlns="http://www.w3.org/2000/svg"
  width="100%"
  height="100%"
  viewBox="0 0 130 130"
>
  <g fill-rule="nonzero">
    <path
      d="M48.329 15.057c-.578.028-1.233.199-1.804.852-.769.867-.712 2.095-.395 2.955.197.532.994 2.393 2.143 5.227 1.148 2.834 2.593 6.513 4.06 10.114 2.417 5.937 4.031 9.843 4.792 11.704H37.954c-.705-1.364-3.996-7.77-4.68-9.09a3.288 3.288 0 0 0-1.748-1.535c-.663-.241-1.276-.27-1.86-.284h-1.298c-.113 0-.747-.078-1.466.455-.719.532-.902 1.52-.846 2.159.043.461.064.646.17 1.193.105.547.281 1.257.45 2.102.339 1.69.74 3.878 1.185 6.023.853 4.112 1.684 7.812 1.748 8.125-.148.717-3.405 16.37-3.553 17.102-.148.71.155 1.832.79 2.33.634.497 1.184.511 1.522.511h1.24c.917-.007 1.48.057 2.313-.34a2.802 2.802 0 0 0 1.015-.853c.197-.291.26-.476.338-.625.684-1.321 3.975-7.727 4.68-9.091h19.171c-.761 1.86-2.375 5.767-4.793 11.704-1.466 3.601-2.91 7.28-4.06 10.114-1.148 2.834-1.945 4.695-2.142 5.227-.317.86-.374 2.088.395 2.955.768.866 1.705.909 2.368.852.69-.057 2.657-.277 4.229-.454 1.804-.2 2.96-1.556 3.214-1.875.148-.185.48-.59 1.128-1.42.648-.832 1.522-1.975 2.593-3.353 2.15-2.763 5.019-6.378 7.838-10 5.37-6.91 10.227-13.125 10.713-13.75h26.333c3.883 0 6.76-1.62 8.57-3.523.91-.952 1.586-1.96 2.03-2.898.445-.937.677-1.76.677-2.67 0-.916-.289-1.733-.733-2.67a10.916 10.916 0 0 0-1.973-2.898c-1.819-1.896-4.758-3.523-8.628-3.523H78.608c-.486-.625-5.342-6.84-10.713-13.75-2.82-3.622-5.688-7.237-7.838-10-1.071-1.378-1.945-2.521-2.593-3.352-.649-.831-.98-1.236-1.128-1.42-.254-.32-1.41-1.677-3.214-1.876-1.572-.177-3.538-.397-4.23-.454a4.974 4.974 0 0 0-.563 0zm1.692 3.75c.888.085 1.712.17 2.706.284.698.078.409.064.79.568h.056c-.056-.07.423.533 1.071 1.364.649.83 1.523 1.974 2.594 3.352 2.15 2.756 4.962 6.435 7.781 10.057 5.639 7.244 11.221 14.432 11.221 14.432l.564.681h28.08c2.897 0 4.793 1.144 6.034 2.444a7.587 7.587 0 0 1 1.353 1.931c.282.59.338 1.116.338 1.08 0-.028-.063.49-.338 1.08a7.412 7.412 0 0 1-1.353 1.931c-1.234 1.293-3.066 2.444-5.977 2.444H76.804l-.564.681s-5.582 7.188-11.22 14.432c-2.82 3.622-5.632 7.301-7.782 10.057-1.071 1.378-1.945 2.521-2.594 3.352-.648.831-1.127 1.435-1.071 1.364l-.056.057c-.332.447-.113.433-.79.511-.994.114-1.818.199-2.706.284.317-.795.704-1.775 1.578-3.92 1.15-2.834 2.65-6.456 4.117-10.057l5.807-14.261 1.015-2.5H35.811l-.507.965s-4.3 8.324-5.131 9.944a.715.715 0 0 0-.226 0c.648-3.19 3.214-16.023 3.214-16.023l.113-.341-.113-.398s-.86-4.126-1.748-8.409c-.444-2.138-.902-4.346-1.24-6.023-.127-.632-.19-1.072-.282-1.534.105.015.24.05.282.057.86 1.67 5.13 9.887 5.13 9.887l.508.965h26.727l-1.015-2.5-5.807-14.26c-1.466-3.602-2.968-7.224-4.117-10.058-.874-2.145-1.261-3.125-1.578-3.92z"
    />
  </g>
</svg>
