<svg
  id="icon-kids-2"
  xmlns="http://www.w3.org/2000/svg"
  width="100%"
  height="100%"
  viewBox="0 0 130 130"
>
  <g fill-rule="nonzero">
    <path
      d="M64.31 9.739c-.052.013-.106.033-.16.053L25.784 21.41a1.993 1.993 0 0 0-.213.053A6.025 6.025 0 0 0 22 26.951c0 4.017 2.744 7.707 6.714 8.366 3.151.546 5.915-.999 7.62-3.357 1.48 1.985 3.697 3.357 6.289 3.357 2.69 0 4.989-1.445 6.447-3.517.373.453.66.966 1.12 1.332 1.765 1.393 4.11 2.185 6.607 2.185 2.318 0 4.463-.772 6.128-2.025v12.79a1.715 1.715 0 0 0 .846 1.498 1.721 1.721 0 0 0 1.719 0c.533-.313.852-.886.846-1.499V33.4c1.705 1.206 3.817 1.918 6.128 1.918 3.137 0 5.962-1.405 7.727-3.517 1.465 2.085 3.783 3.517 6.448 3.517 2.624 0 4.875-1.365 6.34-3.357 1.706 2.291 4.43 3.757 7.514 3.357h.054c3.97-.66 6.714-4.35 6.714-8.366 0-2.385-1.439-4.616-3.73-5.382h-.053L65.11 9.792a1.726 1.726 0 0 0-.64-.053h-.16zm.32 3.517l37.835 11.563c.78.26 1.386 1.106 1.386 2.132 0 2.445-1.639 4.57-3.784 4.956h-.053c-2.951.353-5.382-1.665-5.382-4.583h-3.41c0 2.445-2.139 4.583-4.583 4.583-2.498 0-4.637-1.925-4.637-4.583a1.703 1.703 0 0 0-1.705-1.679c-.932 0-1.692.746-1.705 1.679 0 2.218-2.638 4.583-6.128 4.583-1.765 0-3.384-.573-4.476-1.439-1.093-.866-1.652-1.925-1.652-3.144a1.703 1.703 0 0 0-1.705-1.679c-.933 0-1.692.746-1.706 1.679 0 2.218-2.637 4.583-6.128 4.583-1.765 0-3.384-.573-4.476-1.439-1.092-.866-1.652-1.925-1.652-3.144a1.703 1.703 0 0 0-1.705-1.679c-.933 0-1.692.746-1.705 1.679 0 2.445-2.192 4.583-4.636 4.583-2.498 0-4.583-1.925-4.583-4.583a1.703 1.703 0 0 0-1.705-1.679c-.933 0-1.692.746-1.706 1.679 0 2.93-2.424 5.089-5.329 4.583h-.053c-2.171-.36-3.837-2.491-3.837-4.956 0-1.026.62-1.932 1.546-2.345l37.675-11.35zm20.41 25.099a14.923 14.923 0 0 0-3.197.32c-2.518.539-5.662 2.071-8.047 5.595-1.605 2.411-3.723 5.009-8.313 5.009-2.997 0-4.276-.64-7.14-.64-2.532 0-4.477.473-6.129 1.226-1.418-.726-2.964-1.226-4.796-1.226-2.304 0-4.582.713-6.34 2.345-1.726 1.599-2.892 4.01-3.465 7.087h-.053c-.013.054.013.107 0 .16-.286 1.28-.173 2.545.96 3.677.033.04.066.073.106.107a8.12 8.12 0 0 0 3.197 1.652c.613.16 1.266.28 2.078.053.813-.227 1.706-1.2 1.812-2.132.227-2.058.786-3.277 1.386-3.836.213-.2.653-.06.906-.16-.1 1.145-.38 2.777-.427 3.037v.16c0 .007-.266 1.02-.799 2.132s-1.279 2.47-2.025 3.783c-.746 1.312-1.505 2.604-2.131 3.677-.627 1.072-1.106 1.818-1.386 2.451v.053c-.54 1.406-.653 2.785-.213 3.944.44 1.159 1.379 2.025 2.398 2.451 2.025.84 4.61.167 5.915-1.972h.053c.007-.013-.007-.04 0-.053 2.618-4.196 6.455-11.244 15.4-11.244 3.67 0 7.22 2.305 10.072 5.01 2.85 2.704 4.816 5.561 5.862 6.82 1.432 1.665 3.603 2.198 5.275 1.492 1.672-.706 2.744-2.857 2.078-4.849-1.245-3.65-2.99-7.06-4.37-9.858-.685-1.4-1.312-2.638-1.705-3.624-.393-.986-.486-1.765-.48-1.865v-.053c.08-1.752.42-3.644.853-4.636.2-.453.314-.62.32-.64.014.014-.013.02.054.054l.053.053c1.419.713 1.678 1.252 3.304 2.877 1.045 1.046 2.724 1.2 3.89.533 1.165-.666 1.918-2.025 1.918-3.57 0-2.192.18-6.255-3.783-11.723-.007-.027-.06-.147-.054-.267a.454.454 0 0 1 .054-.213c.253-.32.386-.713.373-1.12 0-.652-.253-1.105-.587-1.438a1.944 1.944 0 0 0-1.438-.586 1.14 1.14 0 0 0-.213 0c-.047 0-.154.007-.267 0-.233-.007-.546-.053-.96-.053zm-.373 3.463c0 .293.047.607.106.906.06.307.214.653.533 1.066l-.053.053c3.697 4.983 3.25 7.36 3.25 9.912 0 .406-.1.433-.16.48-1.331-1.36-2.09-2.458-3.996-3.41v.052c-.013-.006-.04.007-.053 0-1-.513-2.318-.592-3.25-.053-.947.553-1.433 1.426-1.813 2.291-.759 1.732-1.025 3.81-1.119 5.809-.08 1.179.28 2.138.746 3.304a54.618 54.618 0 0 0 1.759 3.89c1.392 2.824 3.07 6.141 4.21 9.485.186.566.086.48-.16.586-.247.107-.713.187-1.332-.533-.66-.792-2.964-4.136-6.128-7.14-3.164-3.004-7.388-5.915-12.417-5.915-10.81 0-15.833 8.899-18.33 12.896v.053c-.414.706-1.193.8-1.706.586-.26-.107-.44-.226-.533-.48-.086-.233-.086-.726.16-1.438.06-.134.546-1.066 1.172-2.132.627-1.066 1.42-2.378 2.185-3.73a65.913 65.913 0 0 0 2.078-3.943c.567-1.18 1.006-2.139 1.12-3.251h.053c.006-.047-.007-.113 0-.16.226-1.525.033-3.104.586-4.902.146-.46.087-.96-.153-1.38a1.726 1.726 0 0 0-1.126-.805c-2.005-.42-4.043.026-5.489 1.385-1.252 1.173-1.931 2.925-2.291 5.01-.546-.18-1.272-.54-1.599-.8.014.013-.006-.053 0-.053.087.013-.06-.5-.053-.533a.795.795 0 0 0 .053-.107c.467-2.637 1.36-4.316 2.452-5.328 1.092-1.013 2.437-1.44 4.05-1.44 1.565 0 2.697.354 3.836 1.066.533.34 1.206.36 1.759.054 1.272-.706 2.81-1.12 5.329-1.12 2.251 0 3.663.64 7.14.64 5.942 0 9.272-3.803 11.084-6.501h.053c.007-.007-.006-.047 0-.053 1.879-2.758 4.057-3.704 5.915-4.103a10.371 10.371 0 0 1 2.132-.214zM64.47 67.663a1.993 1.993 0 0 0-.213.053 1.709 1.709 0 0 0-1.333 1.706v13.641H26.423c-2.418 0-4.423 2.005-4.423 4.423v5.809c0 .939.766 1.705 1.705 1.705h82.01c.94 0 1.706-.766 1.706-1.705v-5.809c0-2.418-2.005-4.423-4.423-4.423H66.336V69.422a1.705 1.705 0 0 0-1.865-1.759zm-38.048 18.81h76.575c.653 0 1.012.36 1.012 1.013v4.104h-78.6v-4.104c0-.652.36-1.012 1.013-1.012z"
    />
  </g>
</svg>
