<svg
  id="icon-euro-price-tag"
  xmlns="http://www.w3.org/2000/svg"
  width="100%"
  height="100%"
  viewBox="0 0 130 130"
>
  <g fill-rule="nonzero">
    <path
      d="M71.483 12.236c-.619.007-1.245.036-1.878.114-1.259.163-2.639.59-3.699 1.65l-41.37 41.37c-2.041 2.041-2.041 5.413 0 7.454l31.64 31.64c2.041 2.041 5.413 2.041 7.454 0L105 53.094c1.053-1.053 1.487-2.447 1.65-3.7.164-1.251.114-2.489.114-3.698V18.61c0-3.5-2.874-6.373-6.373-6.373H73.304c-.59 0-1.202-.007-1.821 0zm.057 3.642c.533-.014 1.145 0 1.764 0h27.087a2.705 2.705 0 0 1 2.731 2.731v27.087c0 1.266-.007 2.411-.114 3.244-.106.832-.277 1.244-.569 1.536L61.07 91.903a1.644 1.644 0 0 1-2.333 0l-.227-.285-31.412-31.354a1.644 1.644 0 0 1 0-2.333l41.427-41.37c.284-.285.754-.463 1.593-.57.42-.056.89-.099 1.423-.113zm18.835 5.463c-4.004 0-7.283 3.279-7.283 7.284 0 4.004 3.279 7.283 7.283 7.283 4.005 0 7.284-3.279 7.284-7.283 0-4.005-3.279-7.284-7.284-7.284zm0 3.642a3.613 3.613 0 0 1 3.642 3.642 3.613 3.613 0 0 1-3.642 3.642 3.613 3.613 0 0 1-3.642-3.642 3.613 3.613 0 0 1 3.642-3.642z"
    />
  </g>
</svg>
