<svg
  id="icon-family-2"
  xmlns="http://www.w3.org/2000/svg"
  width="100%"
  height="100%"
  viewBox="0 0 130 130"
>
  <g fill-rule="nonzero">
    <path
      d="M44.76 17c-8.107 0-14.72 6.727-14.72 14.974 0 8.248 6.613 14.975 14.72 14.975 8.108 0 14.72-6.727 14.72-14.975C59.48 23.727 52.868 17 44.76 17zm0 3.744c6.117 0 11.04 5.008 11.04 11.23 0 6.223-4.923 11.231-11.04 11.231-6.117 0-11.04-5.008-11.04-11.23 0-6.223 4.923-11.231 11.04-11.231zm47.84 20.59c-6.073 0-11.04 5.052-11.04 11.23 0 1.77.431 3.422 1.15 4.914l-21.735-6.142c-.014-.008-.043.007-.057 0-5.837-1.967-12.65-2.515-16.158-2.515-3.342 0-10.53.533-16.56 2.515h-.057C22.637 53.273 19 58.538 19 64.38v23.748C19 89.16 19.827 90 20.84 90h47.84c1.013 0 1.84-.84 1.84-1.872V73.446l5.06 1.17a14.086 14.086 0 0 0-1.38 6.025v7.487c0 1.031.827 1.872 1.84 1.872h33.12c1.013 0 1.84-.84 1.84-1.872v-7.487c0-5.22-2.997-9.812-7.417-12.167h-.058c-3.73-1.798-7.755-2.807-10.925-2.807-3.155 0-7.152 1.023-10.867 2.807-.015.008-.044-.007-.058 0-1.502.702-2.774 1.704-3.852 2.867l-8.74-2.048a1.807 1.807 0 0 0-1.546.359c-.438.358-.69.892-.697 1.455v15.15H22.68V64.38c0-4.248 2.58-8.036 6.613-9.476.014-.007.043.007.057 0 5.37-1.755 12.506-2.34 15.41-2.34 3.105 0 9.868.578 15.065 2.34h.058l28.405 8.013h.057c.553.234 1.136.388 1.725.527.058.022.115.044.173.058.754.169 1.552.293 2.357.293 6.073 0 11.04-5.053 11.04-11.23 0-6.18-4.967-11.232-11.04-11.232zm0 3.743c4.09 0 7.36 3.327 7.36 7.487s-3.27 7.487-7.36 7.487c-.51 0-1.013-.073-1.495-.175-.058-.015-.115-.044-.172-.059a1.598 1.598 0 0 0-.173-.058c-.022-.007-.036.007-.058 0l-.977-.293c-2.645-1.133-4.485-3.787-4.485-6.902 0-4.16 3.27-7.487 7.36-7.487zm0 24.333c2.336 0 6.016.848 9.258 2.398.021.015.035.044.057.059 3.263 1.77 5.405 5.038 5.405 8.774v5.615H77.88v-5.615c0-3.817 1.977-7.217 5.348-8.774h.057c3.263-1.572 6.965-2.457 9.315-2.457z"
    />
  </g>
</svg>
