<svg
  id="icon-beauty"
  xmlns="http://www.w3.org/2000/svg"
  width="100%"
  height="100%"
  viewBox="0 0 130 130"
>
  <g fill-rule="nonzero">
    <path
      d="M51.146 13.425c-1.992.245-3.848 1.676-4.375 3.883-.007.026-.046.026-.052.051a333.76 333.76 0 0 0-3.073 13.876c-1.068 5.443-1.98 10.886-1.98 14.342v27.959c-.572-.11-1.021-.311-1.666-.311-5.54 0-10 4.433-10 9.94v3.314c0 5.508 4.46 9.941 10 9.941s10-4.433 10-9.94V68.357c1.862.401 3.333 2.097 3.333 4.038V86.17c0 5.112 3.75 9.656 8.959 10.251h.052c5.97.596 10.99-4.18 10.99-9.94v-3.004c0-4.873-3.373-9.229-8.334-10.044-.02-.007-.033.006-.052 0-1.146-.22-2.233-.155-3.281.052V45.577c0-7.003-3.19-22.063-4.532-28.218a5.063 5.063 0 0 0-4.947-3.934h-.834a1.12 1.12 0 0 0-.208 0zm18.385.155a1.678 1.678 0 0 0-1.432 1.89c.13.912.983 1.553 1.901 1.423h15v3.314H69.844a1.666 1.666 0 0 0-1.589 1.735A1.668 1.668 0 0 0 70 23.52h15v3.313H69.688a1.67 1.67 0 0 0-1.51 1.812A1.675 1.675 0 0 0 70 30.148h15v3.314H69.688a1.67 1.67 0 0 0-1.51 1.812A1.675 1.675 0 0 0 70 36.775h15v3.314H69.688a1.67 1.67 0 0 0-1.51 1.812A1.675 1.675 0 0 0 70 43.402h15v3.314H69.688a1.67 1.67 0 0 0-1.51 1.812A1.675 1.675 0 0 0 70 50.03h15v3.313H69.688a1.67 1.67 0 0 0-1.51 1.812A1.675 1.675 0 0 0 70 56.657h15v3.313H69.688a1.67 1.67 0 0 0-1.51 1.813A1.675 1.675 0 0 0 70 63.284h15v25.68c0 4.078 3.398 7.456 7.5 7.456s7.5-3.378 7.5-7.456v-67.1c0-4.55-3.757-8.284-8.333-8.284H69.53zm-17.969 3.158h.626c.891 0 1.497.59 1.666 1.346 1.328 6.103 4.48 21.571 4.48 27.493V75.71a1.65 1.65 0 0 0 .774 1.41c.488.312 1.1.344 1.621.092 1.035-.518 2.344-.764 3.594-.518h.104c3.34.53 5.573 3.391 5.573 6.782v3.003c0 3.838-3.281 6.996-7.292 6.628h-.052c-3.437-.421-5.99-3.456-5.99-6.938V72.396c0-4.077-3.398-7.455-7.5-7.455-2.232 0-4.166-1.922-4.166-4.142V45.577c0-2.841.872-8.297 1.927-13.669a336.431 336.431 0 0 1 3.02-13.772v-.052c.164-.731.958-1.262 1.615-1.346zm36.771.155h3.334c2.76 0 5 2.227 5 4.97v67.101c0 2.22-1.934 4.143-4.167 4.143-2.233 0-4.167-1.923-4.167-4.143V61.938c.046-.22.046-.453 0-.673V55.31c.046-.22.046-.453 0-.673v-5.955c.046-.22.046-.453 0-.673v-5.954c.046-.22.046-.453 0-.673V35.43c.046-.22.046-.453 0-.673v-5.954c.046-.22.046-.453 0-.673v-5.954c.046-.22.046-.453 0-.674v-4.608zm-36.666 36.45a3.322 3.322 0 0 0-3.334 3.314 3.322 3.322 0 0 0 3.334 3.313A3.322 3.322 0 0 0 55 56.657a3.322 3.322 0 0 0-3.333-3.314zM45 66.96c.514.35 1.074.615 1.667.828V86.48c0 3.773-2.871 6.628-6.667 6.628s-6.667-2.855-6.667-6.628v-3.313c0-3.773 2.871-6.628 6.667-6.628.846 0 1.862.253 2.812.57a1.679 1.679 0 0 0 1.491-.227c.43-.304.69-.796.697-1.326V66.96zm-5 12.892c-1.836 0-3.333 1.489-3.333 3.314v3.313c0 1.825 1.497 3.314 3.333 3.314s3.333-1.489 3.333-3.314v-3.313c0-1.825-1.497-3.314-3.333-3.314zm23.333 0c-1.836 0-3.333 1.489-3.333 3.314v3.313c0 1.825 1.497 3.314 3.333 3.314s3.334-1.489 3.334-3.314v-3.313c0-1.825-1.498-3.314-3.334-3.314z"
    />
  </g>
</svg>
