<svg
  id="icon-reception"
  xmlns="http://www.w3.org/2000/svg"
  width="100%"
  height="100%"
  viewBox="0 0 130 130"
>
  <g fill-rule="nonzero">
    <path
      d="M65 10c-5.677 0-10.32 4.643-10.32 10.32 0 5.677 4.643 10.32 10.32 10.32 5.677 0 10.32-4.643 10.32-10.32C75.32 14.643 70.677 10 65 10zm0 3.44a6.85 6.85 0 0 1 6.88 6.88A6.85 6.85 0 0 1 65 27.2a6.85 6.85 0 0 1-6.88-6.88A6.85 6.85 0 0 1 65 13.44zm-5.16 18.92c-6.611 0-12.04 5.429-12.04 12.04v5.16h3.44V44.4c0-4.737 3.863-8.6 8.6-8.6h10.32c4.737 0 8.6 3.863 8.6 8.6v5.16h3.44V44.4c0-6.611-5.429-12.04-12.04-12.04H59.84zm34.4 10.32v1.72h3.44v-1.72h-3.44zm1.72 1.72c-4.132 0-7.632 2.976-8.439 6.88H23.56A1.713 1.713 0 0 0 22 53v6.88c0 .947.773 1.72 1.72 1.72h1.72v32.68c0 .947.773 1.72 1.72 1.72h75.68c.947 0 1.72-.773 1.72-1.72V61.6h1.72c.947 0 1.72-.773 1.72-1.72V53c0-.947-.773-1.72-1.72-1.72h-1.881c-.806-3.904-4.307-6.88-8.439-6.88zm0 3.44c2.237 0 4.119 1.451 4.838 3.44h-9.675c.718-1.989 2.6-3.44 4.837-3.44zm-70.52 6.88h79.12v3.44H27.482a1.748 1.748 0 0 0-.698 0H25.44v-3.44zm3.44 6.88h72.24v30.96H28.88V61.6z"
    />
  </g>
</svg>
