<svg
  id="icon-activity"
  xmlns="http://www.w3.org/2000/svg"
  width="100%"
  height="100%"
  viewBox="0 0 130 130"
>
  <g fill-rule="nonzero">
    <path
      d="M84.35 11.107c-5.053.162-10.508 1.942-16.017 5.59a1.744 1.744 0 1 0 1.934 2.903c11.624-7.7 21.514-6.222 28.434.699 4.233 4.233 6.35 9.58 5.698 15.749-.652 6.167-4.152 13.235-11.557 20.64-7.41 7.41-15.016 11.347-21.66 12.416-6.646 1.068-12.35-.632-16.502-4.784-2.956-2.956-4.683-6.719-5.053-11.019v-.161c-.16-2.043-.033-4.186.43-6.45a1.716 1.716 0 0 0-.41-1.814 1.707 1.707 0 0 0-1.82-.383 1.725 1.725 0 0 0-1.102 1.498 26.353 26.353 0 0 0-.484 6.934c-.06.208-.074.43-.054.645.142 1.646-.047 5.409-.806 9.03-.759 3.621-2.163 7.216-3.709 8.761l-.752.753a4.289 4.289 0 0 0-1.613-.323c-1.101 0-2.23.403-3.063 1.236L23.666 85.605c-1.135 1.135-1.196 2.68-.86 4.085.336 1.404 1.163 2.829 2.419 4.085 1.256 1.256 2.68 2.083 4.085 2.419 1.404.336 2.95.275 4.085-.86l12.577-12.578c1.25-1.25 1.54-3.124.914-4.676l.753-.753c1.545-1.545 5.14-2.909 8.761-3.655 3.621-.745 7.377-.947 9.03-.806.161.007.322-.013.484-.054 1.874.128 3.816.048 5.805-.268 7.552-1.21 15.742-5.637 23.542-13.438 7.8-7.8 11.765-15.567 12.524-22.736.76-7.169-1.794-13.619-6.665-18.49-3.984-3.984-8.99-6.383-14.62-6.719a25.375 25.375 0 0 0-2.15-.054zM52.96 12.72c-8.526 0-15.48 6.954-15.48 15.48s6.954 15.48 15.48 15.48 15.48-6.954 15.48-15.48-6.954-15.48-15.48-15.48zm-.323 3.44h.323C59.632 16.16 65 21.528 65 28.2v.323c-2.298-.652-4.972-1.962-7.686-4.677-2.728-2.728-4.025-5.388-4.677-7.686zm-3.386.591c.766 2.896 2.392 6.262 5.644 9.514 3.245 3.245 6.625 4.918 9.514 5.697a12.007 12.007 0 0 1-7.687 7.687c-.772-2.896-2.445-6.262-5.697-9.514-3.245-3.245-6.618-4.918-9.514-5.698a11.984 11.984 0 0 1 7.74-7.686zm35.045 1.666c-4.481.222-9.278 2.15-14.136 5.805-.76.578-.9 1.66-.323 2.42.578.758 1.66.9 2.42.322 4.46-3.36 8.606-4.925 12.2-5.107 3.595-.18 6.659.955 9.192 3.494 2.99 2.99 4.105 6.665 3.278 11.127-.826 4.46-3.762 9.735-9.19 15.157-5.423 5.429-11.114 8.815-16.072 10.051-4.958 1.236-8.99.41-11.879-2.472-2.801-2.809-3.668-6.679-2.58-11.449a1.736 1.736 0 0 0-.403-1.794 1.722 1.722 0 1 0-2.93 1.041c-1.27 5.59-.281 10.952 3.44 14.674 3.83 3.83 9.44 4.777 15.212 3.333 5.771-1.445 11.92-5.2 17.684-10.965 5.764-5.765 9.104-11.523 10.105-16.932 1-5.408-.518-10.46-4.247-14.19-3.157-3.164-7.29-4.736-11.77-4.514zm-43.376 9.46c2.305.652 4.958 1.949 7.686 4.677 2.735 2.728 4.031 5.381 4.676 7.686h-.322A12.012 12.012 0 0 1 40.92 28.2v-.323zm7.955 34.4c.249.45.524.86.806 1.29a1.796 1.796 0 0 0-.054.323 32.658 32.658 0 0 1-.86 4.193c-.188.61-.02 1.27.43 1.72.45.45 1.11.618 1.72.43a32.504 32.504 0 0 1 3.924-.807c.168-.027.33-.087.484-.161.45.302.927.591 1.397.86-.342.06-.678.087-1.02.161-3.938.807-7.956 2.097-10.482 4.623l-.538.484-1.075-1.075.484-.538c2.526-2.526 3.803-6.544 4.623-10.481.074-.343.1-.679.161-1.021zm-9.621 12.9a.94.94 0 0 1 .645.27l3.655 3.654a.872.872 0 0 1 0 1.237L30.976 92.86c-.06.007-.336.128-.86 0-.699-.168-1.646-.678-2.472-1.505-.827-.826-1.337-1.773-1.505-2.472-.128-.524-.007-.8 0-.86l12.523-12.578c.175-.174.37-.269.592-.269z"
    />
  </g>
</svg>
