<svg
  id="icon-map-marker"
  xmlns="http://www.w3.org/2000/svg"
  width="100%"
  height="100%"
  viewBox="0 0 130 130"
>
  <g fill-rule="nonzero">
    <path
      d="M70.16 9c-9.265 0-16.804 7.37-17.146 16.553l-8.6 3.923-19.941-9.996A1.716 1.716 0 0 0 22 21.039V82.95c-.008.665.369 1.27.967 1.559l20.64 10.319a1.738 1.738 0 0 0 1.505 0l19.94-9.997 21.608 9.997a1.716 1.716 0 0 0 1.505-.054l18.92-10.319c.558-.295.907-.873.914-1.505V21.04a1.73 1.73 0 0 0-.84-1.465 1.715 1.715 0 0 0-1.686-.04L87.09 29.53c.155-1.122.269-2.23.269-3.332C87.36 16.718 79.64 9 70.16 9zm0 3.44c7.62 0 13.76 6.14 13.76 13.758 0 6.389-3.675 14.397-7.471 20.691-3.138 5.2-5.295 7.786-6.289 9.03-.98-1.203-3.138-3.682-6.289-8.868-3.601-5.932-7.075-13.463-7.417-19.832a1.7 1.7 0 0 0-.054-1.343A13.738 13.738 0 0 1 70.16 12.44zm0 6.879c-4.73 0-8.6 3.87-8.6 8.599 0 4.73 3.87 8.599 8.6 8.599 4.73 0 8.6-3.87 8.6-8.6 0-4.729-3.87-8.598-8.6-8.598zm0 3.44c2.869 0 5.16 2.29 5.16 5.159a5.135 5.135 0 0 1-5.16 5.16 5.135 5.135 0 0 1-5.16-5.16 5.135 5.135 0 0 1 5.16-5.16zm-44.72 1.074l18.168 9.083c.456.215.994.215 1.45 0l8.063-3.655c.854 6.88 4.415 13.907 7.848 19.563 3.944 6.496 7.901 11.179 7.901 11.179.336.383.82.598 1.33.584a1.704 1.704 0 0 0 1.304-.638s3.903-4.756 7.847-11.286c2.795-4.636 5.617-10.151 7.042-15.693l.752.107a1.74 1.74 0 0 0 1.021-.215l16.394-8.921v57.99l-17.254 9.404L65.7 81.393a1.713 1.713 0 0 0-1.451 0L44.36 91.335l-18.92-9.459V23.833z"
    />
  </g>
</svg>
