<svg
  id="icon-construction-2"
  xmlns="http://www.w3.org/2000/svg"
  width="100%"
  height="100%"
  viewBox="0 0 130 130"
>
  <g fill-rule="evenodd">
    <path
      d="M41.46 0c-4.915 0-8.942 4.027-8.942 8.942 0 4.923 4.027 8.943 8.943 8.943 4.922 0 8.942-4.02 8.942-8.943 0-4.915-4.02-8.942-8.942-8.942zm0 3.252c3.17 0 5.691 2.534 5.691 5.69 0 3.163-2.521 5.691-5.69 5.691-3.157 0-5.691-2.528-5.691-5.69 0-3.157 2.534-5.691 5.69-5.691zM29.267 14.989s-10.39.533-11.533.61c-1.15.076-2.331.45-3.15 1.27-.293.292-.928 1.041-1.982 2.185-1.055 1.143-2.426 2.616-3.76 4.064-2.668 2.897-5.284 5.691-5.284 5.691h.05v.05c-1.206 1.316-1.62 2.929-1.27 4.167.356 1.251 1.099 2.033 2.033 2.49.736.362 1.772.673 2.947.508.482-.07.978-.229 1.473-.457l2.744 1.372c-.82 1.72-1.455 3.613-1.728 4.522-.19.628-2.407 8.174-4.674 15.852-1.13 3.836-2.287 7.673-3.15 10.62C1.118 70.879.54 72.766.406 73.268c-.171.666-.444 1.994-.152 3.556.292 1.563 1.43 3.41 3.608 4.167 1.18.412 2.35.368 3.302 0 .953-.369 1.658-1.055 2.134-1.677.877-1.15 1.074-2.198 1.118-2.388h.05l.052-.203L18.9 54.67l6.25 5.792 1.93 15.294v.153h.051c.007.14.013 1.194.56 2.438.577 1.322 2.057 2.948 4.318 2.948.972 0 1.836-.166 2.591-.56.756-.393 1.353-1.047 1.677-1.727.648-1.366.559-2.706.559-4.014 0-2.572-.508-13.287-.559-14.277-.063-1.252-.368-2.427-.965-3.456v-.05c-.769-1.321-5.38-9.66-5.996-10.772l.254-.508 8.994 4.522c.4 1.251.959 2.375 1.829 3.252.94.946 2.42 1.473 3.861 1.168.604-.127 1.213-.374 1.728-.71l8.637 4.267c-.628.972-1.238 1.823-1.778 2.388-.768.807-1.315 1.067-1.626 1.067-.965 0-1.924.076-2.845.457-.921.382-1.772 1.125-2.236 2.134-.838 1.823-6.96 14.481-6.96 14.481-.248.508-.217 1.105.088 1.582.299.47.82.762 1.385.756H79.67c.565.006 1.086-.286 1.384-.756.305-.477.337-1.074.089-1.582 0 0-2.7-5.729-5.538-11.788-2.84-6.059-5.888-12.524-6.351-13.617-.68-1.587-1.43-2.8-2.389-3.607-.959-.807-2.14-1.169-3.2-1.169-.833 0-2.312.229-3.506 1.423-1.023 1.022-2.128 2.686-3.811 5.487l-8.74-4.42c.026-.629-.095-1.258-.253-1.93-.248-1.049-1.321-6.955-2.287-12.348-.965-5.392-1.88-10.466-1.88-10.466-.184-1.01-.68-1.791-1.168-2.592v-.05c-.026-.293-.134-.572-.305-.813l-.102-.102c-.114-.152-1.6-2.153-5.284-4.675-3.589-2.457-5.189-3.194-6.656-3.251-.057 0-.146-.051-.203-.051h-.203zm-.05 3.252h.05c.083.025.165.038.254.05h.051c.375.013 1.397.274 4.929 2.693 3.43 2.35 4.42 3.792 4.471 3.862v.05c.044.07.095.14.152.204.356.406.705 1.086.864 1.982 0 0 .915 5.068 1.88 10.466.966 5.399 1.975 10.969 2.337 12.5.14.577.166.908.153 1.117v.051c-.095.089-.184.19-.254.305v.05c-.102.039-.216.039-.508.102-.47.102-.572.09-.915-.254-.343-.343-.756-1.124-1.067-2.184-.013-.051-.082-.343-.102-.407-.012-.05-.031-.102-.05-.152-.61-2.185-2.795-11.039-4.014-15.955-.153-.635-.667-1.117-1.309-1.225-.641-.115-1.283.171-1.638.717l-6.199 9.45-12.042-6.045c1.353-1.9 4.7-6.637 6.91-10.06.35-.509.375-1.176.076-1.71-.304-.54-.882-.863-1.498-.831l-3.862.203c-.4.02-.781.178-1.067.457l-8.13 8.079-.05.05c-.178.166-.35.293-.508.407-.02.013-.032.038-.051.051-.032.013-.07.032-.102.05-.089.045-.171.096-.254.153-.063.038-.095.121-.152.153-.267.133-.534.178-.712.203-.406.057-.711-.032-1.067-.203.127.063-.241-.229-.305-.457-.063-.23-.184-.432.458-1.118l.05-.051s2.566-2.795 5.234-5.69c1.334-1.449 2.706-2.929 3.76-4.066 1.054-1.136 1.88-2.032 1.88-2.032.305-.305.248-.305 1.067-.356.813-.05 10.918-.59 11.28-.61zm-10.721 8.332c-2.28 3.335-4.535 6.568-5.234 7.571l-1.575-.813 6.809-6.758zM35.21 37.091c.781 3.176 1.613 6.427 2.287 9.146l-6.25-3.1 3.963-6.046zm-20.68 1.321l12.144 6.097-.66 1.321c-.223.47-.204 1.016.05 1.474 0 0 5.443 9.933 6.402 11.584.16.273.528 1.404.56 2.033.044.883.558 11.972.558 14.074 0 1.308-.108 2.33-.254 2.642-.076.159-.063.134-.203.203-.14.07-.502.204-1.118.204-.914 0-1.086-.362-1.372-1.017-.286-.654-.305-1.371-.305-1.371v-.153l-1.981-16.005c-.045-.387-.223-.75-.508-1.016l-8.536-7.876c-.394-.355-.94-.489-1.455-.368-.514.12-.94.49-1.137.978L7.418 75.808c-.019.05-.038.102-.05.152 0 0-.21.832-.661 1.423-.222.299-.476.47-.711.559-.235.089-.49.146-1.067-.05-1.137-.395-1.328-.909-1.474-1.678-.146-.768-.006-1.727.102-2.134.006-.031.66-2.286 1.524-5.233.864-2.947 2.02-6.783 3.15-10.62 2.268-7.671 4.56-15.464 4.675-15.852.19-.629.92-2.477 1.626-3.963zM63.056 52.03c.114-.038.222 0 .61 0 .362 0 .635.045 1.066.407.432.362.985 1.111 1.525 2.388.61 1.435 3.563 7.66 6.402 13.718 2.274 4.859 3.639 7.844 4.42 9.502H43.24c1.385-2.871 5.05-10.474 5.843-12.195.133-.292.248-.38.559-.508.311-.127.845-.203 1.575-.203 1.594 0 2.877-.953 3.963-2.083.94-.985 1.791-2.255 2.642-3.659l.051-.05c.013-.02.038-.032.051-.051.546-.286.876-.858.864-1.474 1.816-3.03 3.004-4.63 3.658-5.284.362-.362.495-.47.61-.508z"
      transform="translate(-19401 -113) translate(19361 73) translate(40 40) translate(24 14)"
    />
  </g>
</svg>
