<svg
  id="icon-covid-virus"
  xmlns="http://www.w3.org/2000/svg"
  width="100%"
  height="100%"
  viewBox="0 0 130 130"
>
  <g fill-rule="evenodd">
    <path
      d="M40.516 0c-1.063.15-1.809 1.138-1.658 2.201.15 1.063 1.138 1.81 2.2 1.658h1.93v3.98c-3.587.189-7.07.837-10.311 1.99l-.724-1.93.844-.361c.905-.384 1.38-1.38 1.1-2.322-.278-.942-1.22-1.53-2.185-1.357-.166.038-.332.098-.483.181l-5.246 2.292c-.98.43-1.432 1.583-.995 2.563.43.98 1.583 1.425 2.563.995l.844-.362.724 1.81c-3.189 1.53-6.084 3.512-8.684 5.849l-2.774-2.835 1.387-1.387c.603-.572.776-1.47.422-2.223-.362-.762-1.16-1.199-1.99-1.093-.43.045-.837.24-1.146.542L10.726 15.8c-.746.769-.739 1.997.03 2.744.769.746 1.998.738 2.744-.03l1.387-1.388L17.72 19.9c-2.337 2.601-4.32 5.496-5.85 8.684l-1.809-.723.362-.845c.31-.633.257-1.38-.143-1.96-.407-.572-1.085-.889-1.786-.814-.083.015-.166.038-.242.06-.625.129-1.138.558-1.387 1.146l-2.291 5.247c-.385.64-.362 1.44.045 2.058.415.618 1.146.95 1.885.844.73-.105 1.349-.626 1.567-1.334l.362-.844 1.93.723c-1.153 3.242-1.802 6.724-1.99 10.312h-3.98v-1.93c.022-.557-.204-1.093-.603-1.47-.407-.384-.958-.572-1.508-.52-.083.016-.166.038-.241.06-.897.204-1.53 1.01-1.508 1.93v7.72c-.007.693.355 1.341.958 1.696.603.346 1.341.346 1.945 0 .603-.355.964-1.003.957-1.697v-1.93h3.98c.188 3.589.837 7.071 1.99 10.313l-1.93.723-.362-.844c-.339-.776-1.145-1.244-1.99-1.146-.61.076-1.138.445-1.44.98-.293.535-.324 1.176-.067 1.734l2.291 5.247c.43.98 1.583 1.432 2.563.995.98-.43 1.425-1.583.995-2.563l-.362-.845 1.81-.723c1.522 3.173 3.46 6.09 5.789 8.684l-2.774 2.774-1.387-1.387c-.415-.445-1.018-.671-1.628-.604-.754.076-1.395.58-1.636 1.29-.249.716-.053 1.507.49 2.027l5.608 5.609c.769.746 1.998.738 2.744-.03.746-.77.739-1.998-.03-2.744l-1.387-1.387 2.774-2.774c2.593 2.329 5.51 4.266 8.684 5.789l-.724 1.809-.844-.362c-.28-.136-.596-.196-.905-.18-.935.007-1.726.678-1.892 1.59-.158.92.354 1.824 1.229 2.148l5.246 2.292c.641.384 1.44.361 2.058-.046.618-.414.95-1.145.844-1.884-.105-.731-.625-1.35-1.334-1.568l-.844-.362.724-1.93c3.24 1.154 6.724 1.802 10.312 1.99v3.98h-2.291c-1.064.098-1.848 1.048-1.75 2.111.098 1.063 1.048 1.847 2.11 1.749h7.72c.693.008 1.342-.354 1.696-.957.347-.603.347-1.342 0-1.945-.354-.603-1.003-.965-1.696-.958h-1.93v-3.98c3.588-.188 7.07-.836 10.312-1.99l.724 1.93-.844.362c-.71.219-1.23.837-1.335 1.568-.105.739.226 1.47.845 1.884.618.407 1.417.43 2.057.046l5.247-2.292c.95-.317 1.508-1.312 1.266-2.284-.233-.98-1.176-1.613-2.17-1.455-.234.023-.453.083-.664.181l-.844.362-.724-1.81c3.189-1.53 6.083-3.512 8.684-5.849l2.774 2.835-1.387 1.387c-.769.746-.777 1.974-.03 2.743.746.77 1.975.777 2.744.03l5.608-5.608c.626-.58.791-1.5.414-2.261-.369-.77-1.206-1.191-2.042-1.056-.438.06-.845.28-1.146.604l-1.387 1.387-2.834-2.774c2.336-2.601 4.319-5.496 5.85-8.684l1.808.723-.362.845c-.43.98.015 2.133.995 2.563.98.437 2.134-.016 2.563-.995l2.292-5.247c.279-.626.211-1.35-.189-1.907-.399-.558-1.055-.867-1.74-.807h-.182c-.625.128-1.138.558-1.387 1.146l-.362.844-1.93-.723c1.154-3.242 1.802-6.724 1.99-10.312h3.98v1.93c-.007.693.355 1.341.958 1.696.603.346 1.342.346 1.945 0 .603-.355.965-1.003.957-1.697v-7.719c.023-.557-.203-1.093-.603-1.47-.407-.384-.957-.572-1.507-.52-.083.016-.166.038-.242.06-.897.204-1.53 1.01-1.507 1.93v1.93h-3.98c-.189-3.588-.837-7.07-1.99-10.312l1.93-.723.361.844c.219.708.837 1.229 1.568 1.334.739.106 1.47-.226 1.885-.844.407-.618.43-1.417.045-2.058l-2.292-5.247c-.346-.799-1.183-1.274-2.05-1.145-.61.075-1.138.444-1.44.98-.294.535-.324 1.176-.068 1.733l.362.845-1.809.723c-1.523-3.173-3.46-6.09-5.79-8.684l2.775-2.774 1.387 1.387c.746.77 1.975.777 2.744.03.769-.746.776-1.974.03-2.743l-5.608-5.609c-.362-.384-.86-.595-1.387-.603-.121.008-.242.03-.362.06-.724.129-1.304.656-1.508 1.358-.203.708.008 1.462.543 1.96l1.387 1.386-2.774 2.774c-2.593-2.329-5.51-4.266-8.684-5.789l.724-1.809.844.362c.98.43 2.133-.015 2.563-.995.437-.98-.015-2.133-.995-2.563L58.607 4.04c-.339-.165-.716-.226-1.085-.18-.852.128-1.515.806-1.628 1.658-.113.852.354 1.673 1.146 2.02l.844.362-.724 1.93c-3.241-1.154-6.724-1.802-10.312-1.99V3.86h1.93c.693.007 1.342-.355 1.696-.958.347-.603.347-1.342 0-1.945C50.12.354 49.47-.008 48.778 0h-8.262zm4.402 11.578c18.144 0 32.806 14.662 32.806 32.806S63.062 77.19 44.918 77.19 12.113 62.528 12.113 44.384s14.661-32.806 32.805-32.806zm0 5.79c-3.173 0-5.789 2.615-5.789 5.789 0 3.173 2.616 5.79 5.79 5.79 3.173 0 5.789-2.617 5.789-5.79 0-3.174-2.616-5.79-5.79-5.79zm0 3.86c1.086 0 1.93.843 1.93 1.929 0 1.085-.844 1.93-1.93 1.93-1.085 0-1.93-.845-1.93-1.93 0-1.086.845-1.93 1.93-1.93zM31.23 24.905c-3.173 0-5.789 2.615-5.789 5.789 0 3.173 2.616 5.79 5.79 5.79 3.173 0 5.788-2.617 5.788-5.79 0-3.174-2.615-5.79-5.789-5.79zm27.378 0c-3.173 0-5.789 2.615-5.789 5.789 0 3.173 2.616 5.79 5.79 5.79 3.173 0 5.789-2.617 5.789-5.79 0-3.174-2.616-5.79-5.79-5.79zm-27.378 3.86c1.086 0 1.93.843 1.93 1.929 0 1.085-.844 1.93-1.93 1.93-1.085 0-1.93-.845-1.93-1.93 0-1.086.845-1.93 1.93-1.93zm27.378 0c1.086 0 1.93.843 1.93 1.929 0 1.085-.844 1.93-1.93 1.93-1.085 0-1.93-.845-1.93-1.93 0-1.086.845-1.93 1.93-1.93zm-34.916 9.829c-3.173 0-5.789 2.615-5.789 5.789 0 3.173 2.616 5.79 5.79 5.79 3.173 0 5.788-2.617 5.788-5.79 0-3.174-2.615-5.79-5.789-5.79zm21.227 0c-3.173 0-5.789 2.615-5.789 5.789 0 3.173 2.616 5.79 5.79 5.79 3.173 0 5.789-2.617 5.789-5.79 0-3.174-2.616-5.79-5.79-5.79zm21.227 0c-3.173 0-5.789 2.615-5.789 5.789 0 3.173 2.616 5.79 5.79 5.79 3.173 0 5.789-2.617 5.789-5.79 0-3.174-2.616-5.79-5.79-5.79zm-42.454 3.86c1.086 0 1.93.843 1.93 1.929 0 1.085-.844 1.93-1.93 1.93-1.085 0-1.93-.845-1.93-1.93 0-1.086.845-1.93 1.93-1.93zm21.227 0c1.086 0 1.93.843 1.93 1.929 0 1.085-.844 1.93-1.93 1.93-1.085 0-1.93-.845-1.93-1.93 0-1.086.845-1.93 1.93-1.93zm21.227 0c1.086 0 1.93.843 1.93 1.929 0 1.085-.844 1.93-1.93 1.93-1.085 0-1.93-.845-1.93-1.93 0-1.086.845-1.93 1.93-1.93zM31.23 52.283c-3.173 0-5.789 2.616-5.789 5.789 0 3.174 2.616 5.79 5.79 5.79 3.173 0 5.788-2.616 5.788-5.79 0-3.173-2.615-5.79-5.789-5.79zm27.378 0c-3.173 0-5.789 2.616-5.789 5.789 0 3.174 2.616 5.79 5.79 5.79 3.173 0 5.789-2.616 5.789-5.79 0-3.173-2.616-5.79-5.79-5.79zm-27.378 3.86c1.086 0 1.93.844 1.93 1.929 0 1.086-.844 1.93-1.93 1.93-1.085 0-1.93-.844-1.93-1.93 0-1.085.845-1.93 1.93-1.93zm27.378 0c1.086 0 1.93.844 1.93 1.929 0 1.086-.844 1.93-1.93 1.93-1.085 0-1.93-.844-1.93-1.93 0-1.085.845-1.93 1.93-1.93zm-13.689 3.678c-3.173 0-5.789 2.616-5.789 5.79 0 3.173 2.616 5.788 5.79 5.788 3.173 0 5.789-2.615 5.789-5.789 0-3.173-2.616-5.79-5.79-5.79zm0 3.86c1.086 0 1.93.844 1.93 1.93 0 1.085-.844 1.929-1.93 1.929-1.085 0-1.93-.844-1.93-1.93 0-1.085.845-1.93 1.93-1.93z"
      transform="translate(-16033 -113) translate(15993 73) translate(40 40) translate(20 10)"
    />
  </g>
</svg>
