<svg
  id="icon-environment"
  xmlns="http://www.w3.org/2000/svg"
  width="100%"
  height="100%"
  viewBox="0 0 130 130"
>
  <g fill-rule="nonzero">
    <path
      d="M41 10c-11.023 0-20 8.977-20 20v48c0 11.023 8.977 20 20 20h48c11.023 0 20-8.977 20-20V30c0-11.023-8.977-20-20-20H41zm0 4h48c8.861 0 16 7.139 16 16v48c0 8.861-7.139 16-16 16H41c-8.861 0-16-7.139-16-16V30c0-8.861 7.139-16 16-16zm32.055 14c-.897.002-1.782.027-2.653.07-6.966.35-13.084 2-18.12 4.47-10.074 4.937-16.057 13.213-15.204 21.151.592 5.569 2.902 8.81 5.2 10.457.447.322.873.539 1.292.75-3.443 4.827-5.841 9.857-6.55 14.82a2 2 0 1 0 3.96.563c.547-3.824 2.467-8.047 5.329-12.258.183.335.34.664.574 1.008a16.393 16.393 0 0 0 5.219 4.899c4.561 2.673 11.399 3.122 18.691-2.473 9.214-7.089 14.275-15.395 17.488-22.418 1.607-3.512 2.761-6.71 3.742-9.258.981-2.547 1.873-4.448 2.5-5.183a2 2 0 0 0-.906-3.203C86.24 29.009 79.333 27.985 73.055 28zm-.235 4.008c5.263-.002 11.104.887 17.313 2.668-.598 1.179-1.263 2.159-1.844 3.668-1.005 2.61-2.119 5.697-3.644 9.031-3.052 6.669-7.707 14.307-16.29 20.91-6.327 4.855-10.868 4.168-14.234 2.195-1.683-.986-3.044-2.39-3.934-3.699a7.819 7.819 0 0 1-1.117-2.445 63.383 63.383 0 0 1 3.89-4.375c6.495-6.627 14.836-12.51 22.864-16.137a2 2 0 0 0-.734-3.836 2 2 0 0 0-.914.188C65.622 44.04 56.962 50.16 50.102 57.16a70.503 70.503 0 0 0-4.028 4.496 5.79 5.79 0 0 1-1.469-.758c-1.396-1.001-3.052-2.934-3.55-7.632v-.004c-.6-5.574 3.949-12.703 12.988-17.133 4.52-2.215 10.104-3.741 16.559-4.066a44.39 44.39 0 0 1 2.218-.055z"
    />
  </g>
</svg>
