<svg
  id="icon-devices"
  xmlns="http://www.w3.org/2000/svg"
  width="100%"
  height="100%"
  viewBox="0 0 130 130"
>
  <g fill-rule="nonzero">
    <path
      d="M28.88 14C25.097 14 22 17.087 22 20.857V86c0 3.77 3.097 6.857 6.88 6.857H65V89.43H28.88A3.407 3.407 0 0 1 25.44 86V20.857a3.407 3.407 0 0 1 3.44-3.428h48.16a3.407 3.407 0 0 1 3.44 3.428v15.429h3.44V20.857c0-3.77-3.097-6.857-6.88-6.857H28.88zm1.398 6.857c-.82.154-1.411.877-1.398 1.714v56.572a1.72 1.72 0 0 0 1.72 1.714H65V77.43H32.32V24.286H73.6v12h3.44V22.57a1.72 1.72 0 0 0-1.72-1.714H30.277zM71.88 38c-2.829 0-5.16 2.324-5.16 5.143v49.714c0 2.82 2.331 5.143 5.16 5.143h30.96c2.829 0 5.16-2.324 5.16-5.143V43.143c0-2.82-2.331-5.143-5.16-5.143H71.88zm0 3.429h30.96c.974 0 1.72.743 1.72 1.714v49.714c0 .971-.746 1.714-1.72 1.714H71.88c-.974 0-1.72-.743-1.72-1.714V43.143c0-.971.746-1.714 1.72-1.714zm3.118 3.428c-.82.154-1.411.877-1.398 1.714v37.715A1.72 1.72 0 0 0 75.32 86H99.4c.947 0 1.72-.77 1.72-1.714V46.57a1.72 1.72 0 0 0-1.72-1.714H74.997zm2.042 3.429h20.64V82.57H77.04V48.286zM52.96 82.57a2.576 2.576 0 0 0-2.58 2.572 2.576 2.576 0 0 0 2.58 2.571 2.576 2.576 0 0 0 2.58-2.571 2.576 2.576 0 0 0-2.58-2.572zm34.4 5.143a2.576 2.576 0 0 0-2.58 2.572 2.576 2.576 0 0 0 2.58 2.571 2.576 2.576 0 0 0 2.58-2.571 2.576 2.576 0 0 0-2.58-2.572z"
    />
  </g>
</svg>
