<svg
  id="icon-user-group-man-man"
  xmlns="http://www.w3.org/2000/svg"
  width="100%"
  height="100%"
  viewBox="0 0 130 130"
>
  <g fill-rule="nonzero">
    <path
      d="M57.017 14.713c-8.188.15-13.42 3.46-15.665 8.606-2.143 4.9-1.664 11.087-.11 17.487-.835.98-1.499 2.295-1.26 4.275.26 2.159.856 3.694 1.699 4.77.465.589 1.075.644 1.643.931.308 1.837.821 3.673 1.588 5.208.438.884.938 1.7 1.424 2.357.22.295.534.466.767.713.014 2.165.02 3.967-.164 6.249-.568 1.377-1.897 2.487-4.053 3.563-2.226 1.11-5.122 2.138-8.052 3.399-2.93 1.26-5.943 2.795-8.326 5.207-2.382 2.412-4.067 5.722-4.327 10.087l-.11 1.864h70.33l-.11-1.864c-.185-3.036-1.04-5.55-2.355-7.62h19.992l-.11-1.864c-.225-3.734-1.684-6.64-3.724-8.716-2.04-2.076-4.594-3.37-7.066-4.44-2.471-1.069-4.895-1.87-6.737-2.795-1.78-.891-2.786-1.789-3.231-2.85a56.142 56.142 0 0 1-.165-5.099c.171-.192.445-.329.603-.548.417-.576.835-1.275 1.205-2.028.623-1.282 1.047-2.796 1.314-4.33.46-.254.945-.296 1.315-.768.753-.96 1.253-2.262 1.479-4.112v-.054c.191-1.604-.329-2.68-.986-3.564.726-2.377 1.616-6.125 1.314-10.031-.17-2.152-.712-4.324-2.026-6.14-1.246-1.726-3.287-2.994-5.86-3.453-1.672-1.857-4.307-2.686-7.395-2.686-4.252.075-7.552 1.13-9.97 3.015-1.101-.685-2.389-1.186-3.833-1.48-1.842-2.392-5.156-3.29-8.983-3.29h-.055zm.055 3.508h.055c3.526.014 5.813 1.048 6.463 2.193l.438.712.822.11c2.437.336 3.834 1.322 4.82 2.686.986 1.364 1.533 3.268 1.698 5.372.328 4.207-.883 9.107-1.643 11.402l-.439 1.37 1.205.713c-.075-.048.671.46.493 1.919-.205 1.72-.616 2.61-.93 3.015-.316.404-.48.383-.494.383l-1.479.11-.164 1.425c-.164 1.521-.774 3.371-1.479 4.824-.356.726-.719 1.364-1.04 1.81-.322.445-.665.691-.493.602l-.932.493v1.042c0 2.542-.102 4.625.165 7.565v.219l.11.22c.999 2.692 3.313 4.371 5.86 5.645 2.547 1.275 5.47 2.214 8.216 3.4 2.348 1.013 4.498 2.22 6.244 3.727.007.007-.007.048 0 .055.082.082.178.157.274.219.11.13.24.24.383.329.007.007.048-.007.055 0l.165.164c1.478 1.5 2.41 3.488 2.903 5.975H26.125c.493-2.48 1.417-4.474 2.903-5.975 1.87-1.891 4.416-3.31 7.175-4.495 2.76-1.185 5.662-2.124 8.216-3.399 2.554-1.274 4.916-2.953 5.916-5.646l.11-.438c.266-2.94.164-5.023.164-7.565V57.36l-.931-.493c.157.082-.22-.157-.548-.603a12.74 12.74 0 0 1-1.096-1.809c-.725-1.453-1.321-3.323-1.479-4.824l-.164-1.425-1.479-.11c-.013 0-.178.02-.493-.383-.315-.405-.725-1.295-.93-3.015-.172-1.46.567-1.967.492-1.919l1.15-.713-.328-1.26c-1.65-6.36-1.938-12.136-.22-16.062 1.712-3.912 5.204-6.372 12.489-6.523zm22.786 1.754h.054c2.917.014 4.738.877 5.204 1.7l.438.712.822.164c1.992.275 3.101.994 3.889 2.084.787 1.089 1.232 2.644 1.369 4.385.274 3.48-.74 7.626-1.37 9.538l-.438 1.316 1.205.712c-.157-.096.466.24.33 1.37-.172 1.42-.542 2.125-.768 2.413-.226.288-.28.226-.219.219l-1.479.11-.11 1.425c-.13 1.233-.677 2.748-1.26 3.947-.293.596-.56 1.124-.82 1.48-.158.212-.268.37-.33.438h-.054c-.007.007 0 .055 0 .055l-.931.439v1.041c0 2.131-.062 3.92.164 6.414v.22l.11.218c.883 2.364 2.923 3.79 5.094 4.88 2.17 1.089 4.6 1.91 6.901 2.904 2.3.994 4.389 2.125 5.916 3.673 1.15 1.172 1.869 2.727 2.3 4.605H86.814c-2.157-1.83-4.649-3.097-7.12-4.166-2.917-1.261-5.78-2.289-7.998-3.399-2.129-1.069-3.47-2.151-4.053-3.508-.192-2.31-.178-4.118-.164-6.304.226-.247.554-.418.767-.713.479-.664.938-1.473 1.369-2.357.746-1.535 1.287-3.378 1.588-5.208.548-.287 1.137-.356 1.589-.932.842-1.075 1.438-2.61 1.698-4.769.233-1.918-.41-3.186-1.205-4.166.856-2.782 1.951-7.277 1.588-11.895-.198-2.522-.842-5.036-2.355-7.126-.007-.014.007-.041 0-.055 1.65-1.096 3.998-1.795 7.34-1.864z"
    />
  </g>
</svg>
