<svg
  id="icon-experiences"
  xmlns="http://www.w3.org/2000/svg"
  width="100%"
  height="100%"
  viewBox="0 0 130 130"
>
  <g fill-rule="nonzero">
    <path
      d="M88.913 14c-5.791 0-10.522 4.71-10.522 10.476 0 5.767 4.73 10.476 10.522 10.476 5.791 0 10.522-4.71 10.522-10.476C99.435 18.71 94.705 14 88.913 14zm0 3.81c3.722 0 6.696 2.96 6.696 6.666 0 3.706-2.974 6.667-6.696 6.667-3.721 0-6.696-2.961-6.696-6.667 0-3.705 2.975-6.666 6.696-6.666zM67.87 25.429c-1.906 0-3.602.706-5.007 1.733a1.97 1.97 0 0 0-.53.305L46.13 40.466c-.21.17-.381.38-.5.617-2.115 1.749-3.588 4.271-3.588 7.203 0 2.82 1.375 5.245 3.326 6.979.15.29.366.543.643.729l.12.082c.081.06.171.126.29.2l13.855 9.39-2.802 16.556c0 .022-.008.067-.008.052v.044l-.03.186c-.022.112-.03.231-.03.358v.014c-.03.201-.06.365-.06.648 0 3.66 3.02 6.666 6.696 6.666 3.438 0 6.278-2.633 6.636-5.96l-.022.127 3.819-21.733c.022-.127.03-.253.03-.38v-.007c.022-.201.06-.38.06-.618 0-1.63-.8-3.013-1.906-4.055a1.9 1.9 0 0 0-.553-.64l-8.37-6.153 7.832-6.897 6.015 7.782c.172.23.396.417.658.55C79.28 53.25 80.626 54 82.217 54h15.305c3.146 0 5.739-2.582 5.739-5.714 0-3.133-2.593-5.715-5.74-5.715H85.088L74.984 29.18l.06.096a8.616 8.616 0 0 0-7.174-3.846zm0 3.81c1.681 0 3.13.847 3.983 2.142l.067.09 10.686 14.151c.359.476.927.759 1.524.759h13.392c1.083 0 1.913.826 1.913 1.905 0 1.079-.83 1.904-1.913 1.904H82.217a1.887 1.887 0 0 1-1.546-.796 1.851 1.851 0 0 0-.688-.58l.359.179-6.995-9.063a1.877 1.877 0 0 0-1.33-.73 1.93 1.93 0 0 0-1.45.462l-11.134 9.814c-.441.387-.673.938-.65 1.518.03.573.313 1.109.777 1.45l9.871 7.24-.194-.438c.142.32.374.602.665.796.508.35.837.907.837 1.577 0 .067-.007.171-.037.327-.067.372-.023.76.134 1.11l-.224-.514-3.721 21.153c-.008.045-.015.082-.015.126-.157 1.451-1.33 2.56-2.833 2.56-1.606 0-2.87-1.257-2.87-2.857 0-.052.016-.194.053-.432 0-.052.008-.104.008-.156v-.007c.007-.008.007-.015.007-.03a1.907 1.907 0 0 0-1.592-1.964l1.869.312-.262 1.607 2.997-17.76a1.901 1.901 0 0 0-.807-1.898L49 53.412v.997c0-.558-.24-1.079-.658-1.443-.007 0-.007 0-.015-.008-.037-.03-.067-.06-.104-.089-1.428-1.042-2.354-2.693-2.354-4.583a5.652 5.652 0 0 1 2.533-4.732c.523-.358.837-.953.837-1.578v.893l14.826-11.905-.837-.134c.56.09 1.128-.067 1.562-.431.852-.73 1.898-1.16 3.079-1.16zM38.217 59.713C28.734 59.714 21 67.415 21 76.857S28.734 94 38.217 94c9.483 0 17.218-7.7 17.218-17.143 0-9.442-7.735-17.143-17.218-17.143zm53.566 0c-9.483 0-17.218 7.701-17.218 17.143S82.3 94 91.783 94 109 86.3 109 76.857c0-9.442-7.734-17.143-17.217-17.143zm-53.566 3.81c7.42 0 13.392 5.945 13.392 13.333 0 7.389-5.971 13.333-13.392 13.333-7.42 0-13.39-5.944-13.39-13.333 0-7.388 5.97-13.333 13.39-13.333zm53.566 0c7.42 0 13.39 5.945 13.39 13.333 0 7.389-5.97 13.333-13.39 13.333-7.42 0-13.392-5.944-13.392-13.333 0-7.388 5.971-13.333 13.392-13.333z"
    />
  </g>
</svg>
