<svg
  id="icon-banquets"
  xmlns="http://www.w3.org/2000/svg"
  width="100%"
  height="100%"
  viewBox="0 0 130 130"
>
  <g fill-rule="nonzero">
    <path
      d="M64.537 9c-9.394 0-17.526 5.628-21.18 13.676a21.403 21.403 0 0 0-3.75-.06 20.853 20.853 0 0 0-5.326 1.15c-11.097 3.91-16.981 16.133-13.07 27.23 1.95 5.544 6.444 11.414 11.86 15.612 4.826 3.744 10.544 6.263 15.975 5.265l.303 2.965 2.602-1.21c.242.43.446.764.726 1.27a474.577 474.577 0 0 1 4.175 7.746c1.498 2.852 2.973 5.802 4.055 8.29 1.081 2.489 1.694 4.728 1.694 5.204-.015.598.25 1.165.711 1.543a1.93 1.93 0 0 0 1.649.394c.197-.053.378-.136.545-.242a.903.903 0 0 0 .12-.06c.114-.092.212-.19.303-.303.144-.121.265-.265.363-.424.091-.189.152-.393.182-.605a2.02 2.02 0 0 0 0-.303v-.726a2.02 2.02 0 0 0 0-.302c0-.023.151-.832.484-1.876a58.513 58.513 0 0 1 1.392-3.873c1.202-3.003 2.836-6.687 4.478-10.287a752.65 752.65 0 0 1 4.599-9.864c.393-.832.65-1.445.968-2.118l2.48 1.15.364-3.45c5.181.424 10.522-2.102 15.068-5.687 5.484-4.335 9.977-10.303 11.92-15.976 3.889-11.346-2.148-23.766-13.494-27.654a21.692 21.692 0 0 0-7.866-1.15c-2.164.083-4.282.514-6.294 1.21C76.398 11.52 70.77 9 64.537 9zm0 3.873c5.605 0 10.628 2.383 14.16 6.172.076.09.152.167.242.242a19.314 19.314 0 0 1 4.963 12.95c0 5.355-2.277 12.602-5.93 18.275-1.604 2.488-3.412 4.66-5.386 6.293-.016.008-.046-.007-.06 0-.205.106-.394.25-.546.424a1.031 1.031 0 0 0-.181.181c-.023.015-.038.046-.06.06-2.292 1.695-4.758 2.663-7.202 2.663-1.686 0-3.388-.484-5.022-1.331-3.109-1.611-6.014-4.569-8.411-8.29-3.654-5.673-5.93-12.92-5.93-18.275 0-2.186.362-4.274 1.028-6.233.023-.06.045-.12.06-.181.197-.265.326-.583.364-.908v-.182c2.92-6.989 9.848-11.86 17.911-11.86zm22.45 5.325a18.044 18.044 0 0 1 6.476.968c9.364 3.207 14.341 13.328 11.134 22.692-1.604 4.683-5.802 10.34-10.71 14.221-4.91 3.88-10.349 5.87-14.584 4.417-1.105-.378-2.096-.998-3.026-1.815 1.846-1.755 3.517-3.812 4.962-6.051 4.054-6.294 6.535-13.986 6.535-20.393 0-5.053-1.664-9.735-4.417-13.555 1.195-.295 2.383-.439 3.63-.484zm-44.9 8.23c-.484 1.868-.786 3.797-.786 5.809 0 6.407 2.48 14.1 6.535 20.393 2.262 3.51 5.068 6.626 8.29 8.714-1.603 3.146-3.76 5.415-6.414 6.353-4.123 1.453-9.448-.423-14.281-4.175-4.834-3.752-8.986-9.236-10.59-13.797-3.215-9.122 1.588-19.114 10.71-22.33a16.964 16.964 0 0 1 6.536-.967zm31.104 34.734c.476.446.983.832 1.513 1.21l-1.997 2.118 2.178 1.029c-.31.643-.59 1.188-.968 1.997a809.528 809.528 0 0 0-4.6 9.924 294.673 294.673 0 0 0-2.843 6.475V67.092h2.904l-1.21-3.57c1.778-.477 3.442-1.301 5.023-2.36zm-13.616 1.936c.432.16.893.303 1.332.424l-1.21 3.57H62.6v18.275a170.358 170.358 0 0 0-2.3-4.538c-1.52-2.897-3.055-5.658-4.235-7.806-.227-.409-.348-.666-.545-1.03l1.997-.907-2.179-2.36c1.725-1.528 3.132-3.442 4.236-5.628z"
    />
  </g>
</svg>
