<svg
  id="icon-wind"
  xmlns="http://www.w3.org/2000/svg"
  width="100%"
  height="100%"
  viewBox="0 0 130 130"
>
  <g fill-rule="evenodd">
    <path
      d="M24.831 0c-5.1 0-9.588 2.686-12.12 6.712-.386.577-.428 1.318-.11 1.935.318.618.946 1.014 1.64 1.035.695.02 1.345-.337 1.7-.934 1.861-2.958 5.128-4.928 8.89-4.928 5.918 0 10.655 4.825 10.502 10.786-.147 5.737-5.228 10.225-11.076 10.225H2.865c-.689-.01-1.33.353-1.677.948s-.347 1.33 0 1.926c.348.595.988.956 1.677.947h21.392c7.81 0 14.693-6.033 14.897-13.95C39.36 6.648 32.846 0 24.83 0zM67.81 7.64c-6.462 0-12.111 3.582-15.042 8.872-.332.597-.32 1.326.032 1.911.352.586.99.94 1.672.928.683-.012 1.307-.388 1.639-.985 2.28-4.115 6.647-6.905 11.699-6.905 7.682 0 13.813 6.4 13.345 14.199-.428 7.112-6.721 12.542-13.942 12.542H2.865c-.689-.01-1.33.352-1.677.947s-.347 1.331 0 1.926c.348.595.988.957 1.677.948h64.347c9.141 0 17.2-6.909 17.754-16.132.598-9.935-7.334-18.25-17.157-18.25zM2.865 51.573c-.689-.01-1.33.352-1.677.947s-.347 1.331 0 1.926c.348.595.988.957 1.677.947h40.493c5.848 0 10.929 4.489 11.076 10.226.153 5.96-4.584 10.785-10.501 10.785-3.763 0-7.03-1.97-8.89-4.928-.356-.597-1.006-.954-1.7-.933-.694.021-1.322.417-1.64 1.034-.319.617-.277 1.359.109 1.936 2.532 4.025 7.02 6.712 12.12 6.712 8.015 0 14.53-6.647 14.323-14.703-.204-7.916-7.087-13.95-14.897-13.95H2.865z"
      transform="translate(-17331 -113) translate(17291 73) translate(40 40) translate(22 15)"
    />
  </g>
</svg>
