<svg
  id="icon-radio"
  xmlns="http://www.w3.org/2000/svg"
  width="100%"
  height="100%"
  viewBox="0 0 130 130"
>
  <g fill-rule="nonzero">
    <path
      d="M99.2 9c-1.68 0-3.087 1.158-3.487 2.727l-55.125 15.17c-.015-.006-.043.008-.057 0-1.21-.951-2.679-1.533-4.331-1.533-3.333 0-6.117 2.33-6.919 5.454H23.6c-1.969 0-3.6 1.648-3.6 3.637v50.909C20 87.352 21.631 89 23.6 89h82.8c1.969 0 3.6-1.648 3.6-3.636v-50.91c0-1.988-1.631-3.636-3.6-3.636H43.119c-.07-.277-.183-.532-.282-.795l53.832-14.83c.654.66 1.54 1.08 2.531 1.08 1.99 0 3.6-1.627 3.6-3.637S101.19 9 99.2 9zm-63 20c1.343 0 2.475.732 3.094 1.818h-6.188C33.725 29.732 34.857 29 36.2 29zm-12.6 5.455h82.8v50.909H23.6v-50.91zm57.6 5.454c-7.073 0-13.26 3.771-16.763 9.432-.007.007-.049-.007-.056 0a1.82 1.82 0 0 0-.675 1.25 1.61 1.61 0 0 0-.056.17 20.136 20.136 0 0 0-2.194 8.41v.056a1.877 1.877 0 0 0 0 1.364c.099 2.976.886 5.781 2.138 8.295.007.015-.007.043 0 .057a1.83 1.83 0 0 0 .956 1.705h.056c3.516 5.54 9.605 9.261 16.594 9.261 10.75 0 19.47-8.707 19.744-19.489a.851.851 0 0 0 .056-.113v-.057a1.383 1.383 0 0 0 0-.34v-.228a1.916 1.916 0 0 0-.056-.341C100.64 48.58 91.93 39.909 81.2 39.909zm0 3.636c4.81 0 9.077 2.117 12.037 5.455H69.162c2.96-3.338 7.236-5.455 12.038-5.455zm-45 1.819c-1.99 0-3.6 1.626-3.6 3.636 0 2.01 1.61 3.636 3.6 3.636S39.8 51.01 39.8 49c0-2.01-1.61-3.636-3.6-3.636zm30.544 7.272h28.912c.837 1.69 1.477 3.488 1.688 5.455H65.056c.211-1.967.851-3.764 1.688-5.455zM36.2 58.091c-1.99 0-3.6 1.626-3.6 3.636 0 2.01 1.61 3.637 3.6 3.637s3.6-1.627 3.6-3.637-1.61-3.636-3.6-3.636zm28.856 3.636h32.288a16.338 16.338 0 0 1-1.575 5.455H66.687c-.822-1.676-1.42-3.509-1.63-5.455zm3.994 9.091h24.3a16.195 16.195 0 0 1-12.15 5.455 16.207 16.207 0 0 1-12.15-5.455z"
    />
  </g>
</svg>
