<svg
  id="icon-connectivity"
  xmlns="http://www.w3.org/2000/svg"
  width="100%"
  height="100%"
  viewBox="0 0 130 130"
>
  <g fill-rule="nonzero">
    <path
      d="M6.269 56.174c.014.08.036.16.058.233a1.864 1.864 0 0 0 1.86 1.454h56.867l-11.687 11.69a1.874 1.874 0 0 0-.523 1.745 1.849 1.849 0 0 0 1.308 1.454 1.869 1.869 0 0 0 1.89-.523l14.885-14.89L72.207 56l-1.28-1.338-14.885-14.889a1.886 1.886 0 0 0-2.675 0 1.887 1.887 0 0 0 0 2.676l11.687 11.69H8.188a1.86 1.86 0 0 0-1.919 2.036zM34.237 89.5H97.5v-67H34.237v18.611a1.872 1.872 0 0 0 .923 1.636 1.878 1.878 0 0 0 1.875 0c.582-.342.93-.967.923-1.636V26.222h55.82v59.556h-55.82v-14.89a1.872 1.872 0 0 0-.923-1.635 1.878 1.878 0 0 0-1.875 0c-.581.342-.93.967-.923 1.636V89.5z"
    />
  </g>
</svg>
