<svg
  id="icon-playbill"
  xmlns="http://www.w3.org/2000/svg"
  width="100%"
  height="100%"
  viewBox="0 0 130 130"
>
  <g fill-rule="nonzero">
    <path
      d="M30.478 16v65.247h1.87c18.199 0 32.812 7.26 32.812 7.26l.84.416.84-.415s14.613-7.26 32.812-7.26h1.87V16h-1.87C81.256 16 67.198 22.75 66 23.34 64.802 22.75 50.744 16 32.348 16h-1.87zm3.74 3.896c15.416.437 27.393 5.512 29.912 6.648v57.507c-3.98-1.711-15.168-5.971-29.913-6.365v-57.79zm63.565 0v57.79c-14.745.394-25.933 4.654-29.913 6.365V26.544c2.52-1.136 14.496-6.211 29.913-6.648zM23 25.32v63.383h1.87c23.917 0 40.37 7.297 40.37 7.297l.76.335.76-.335s16.453-7.297 40.37-7.297H109V25.321h-3.74v59.786c-22.806.386-38.216 6.787-39.26 7.238-1.044-.451-16.454-6.852-39.26-7.238V25.32H23z"
    />
  </g>
</svg>
