<svg
  id="icon-shopping-bag"
  xmlns="http://www.w3.org/2000/svg"
  width="100%"
  height="100%"
  viewBox="0 0 130 130"
>
  <g fill-rule="nonzero">
    <path
      d="M65 8c-6.874 0-12.52 5.663-12.52 12.559h-9.277l-.168 1.57-4.862 43.059-.223 2.018h54.1l-.223-2.019-4.862-43.058-.168-1.57h-9.278C77.52 13.663 71.874 8 65 8zm0 3.588c4.925 0 8.942 4.03 8.942 8.97H56.058c0-4.94 4.017-8.97 8.942-8.97zm-18.611 12.56h6.092v2.298c-1.07.624-1.789 1.759-1.789 3.083a3.58 3.58 0 0 0 3.577 3.589 3.58 3.58 0 0 0 3.577-3.589c0-1.324-.72-2.46-1.788-3.083v-2.299h17.884v2.299c-1.069.624-1.788 1.759-1.788 3.083a3.58 3.58 0 0 0 3.577 3.589 3.58 3.58 0 0 0 3.577-3.589c0-1.324-.72-2.46-1.789-3.083v-2.299h6.092l4.415 39.47H41.974l4.415-39.47zm-12.072 31.9a1.726 1.726 0 0 0-.447.169l-12.073 5.607a1.569 1.569 0 0 0-.167.056l-.168.056a1.81 1.81 0 0 0-.503.224.833.833 0 0 0-.112.056v.056a1.8 1.8 0 0 0-.559 2.187v6.335a1.793 1.793 0 0 0 .895 1.57l42.923 25.118a1.775 1.775 0 0 0 1.788 0l42.923-25.118c.56-.322.902-.925.895-1.57v-6.28a1.8 1.8 0 0 0-.671-2.298 1.668 1.668 0 0 0-.391-.224l-.056-.056a1.885 1.885 0 0 0-.336-.112L96.13 56.217a1.732 1.732 0 0 0-.838-.168c-.866.007-1.6.63-1.753 1.478a1.8 1.8 0 0 0 1.138 1.998l9.334 4.26L65 86.662 25.99 63.786l9.333-4.261a1.793 1.793 0 0 0 1.173-2.124 1.779 1.779 0 0 0-2.012-1.352h-.167zm-10.452 10.71l40.24 23.547a1.775 1.775 0 0 0 1.79 0l40.24-23.548v2.972L65 93.837 23.865 69.73v-2.972z"
    />
  </g>
</svg>
