<svg
  id="icon-sunburn"
  xmlns="http://www.w3.org/2000/svg"
  width="100%"
  height="100%"
  viewBox="0 0 130 130"
>
  <g fill-rule="evenodd">
    <path
      d="M44.972 0c-.59.007-1.14.31-1.47.802L33.61 15.637v.008c-.126.19-1.096.583-1.314.54l-17.487-3.5c-.59-.113-1.203.07-1.624.499-.43.421-.612 1.033-.5 1.624l3.502 17.487c.042.218-.359 1.188-.549 1.314L.802 43.502C.302 43.832 0 44.395 0 45s.302 1.167.802 1.498l14.835 9.893h.008c.19.126.583 1.096.54 1.314l-3.5 17.494c-.113.584.07 1.196.499 1.624.421.422 1.033.605 1.624.493l17.487-3.502c.225-.042 1.188.359 1.314.549l9.893 14.835c.33.5.893.802 1.498.802s1.167-.302 1.498-.802l9.893-14.835v-.008c.126-.19 1.096-.583 1.314-.54l17.494 3.5c.584.113 1.196-.07 1.624-.499.422-.421.605-1.033.493-1.624l-3.502-17.487c-.042-.225.352-1.188.541-1.314h.007l14.836-9.893c.5-.33.802-.893.802-1.498s-.302-1.167-.802-1.498L74.363 33.61h-.008c-.19-.126-.583-1.096-.54-1.314l3.5-17.487c.113-.59-.07-1.203-.499-1.631-.421-.422-1.033-.605-1.624-.493l-17.487 3.502c-.225.042-1.188-.359-1.314-.549L46.498.802C46.16.288 45.584-.014 44.972 0zM45 5.048l8.395 12.586c1.132 1.702 3.017 2.482 5.014 2.082l14.843-2.968-2.968 14.843c-.4 1.997.38 3.882 2.082 5.014L84.959 45l-12.593 8.395c-1.702 1.132-2.482 3.01-2.082 5.014l2.968 14.843-14.843-2.968c-1.997-.4-3.882.38-5.014 2.082L45 84.959l-8.395-12.593c-1.132-1.702-3.017-2.482-5.014-2.082l-14.843 2.968 2.968-14.843c.4-1.997-.38-3.882-2.082-5.014L5.048 45l12.586-8.395c1.702-1.132 2.482-3.017 2.082-5.014l-2.968-14.843 14.843 2.968c1.997.4 3.882-.38 5.014-2.082L45 5.048zM45 21.6c-12.902 0-23.4 10.498-23.4 23.4S32.098 68.4 45 68.4 68.4 57.902 68.4 45 57.902 21.6 45 21.6zm0 3.6c10.955 0 19.8 8.845 19.8 19.8S55.955 64.8 45 64.8 25.2 55.955 25.2 45 34.045 25.2 45 25.2z"
      transform="translate(-16641 -113) translate(16601 73) translate(40 40) translate(20 10)"
    />
  </g>
</svg>
