<svg
  id="icon-tasting"
  xmlns="http://www.w3.org/2000/svg"
  width="100%"
  height="100%"
  viewBox="0 0 130 130"
>
  <g fill-rule="evenodd">
    <path
      d="M35.972 0l-.285 1.434s-3.6 17.701-3.6 27.088v1.782c0 11.796 9.595 21.392 21.391 21.392h1.783v12.833l-5.57 1.233L31.014 48.13H3.788c-.097-.013-.195-.02-.292-.02l-.195.02H2.27l-.306.954c-.105.195-.167.411-.188.634-.258.87-1.776 6.4-1.776 16.239 0 8.32 2.326 14.852 2.326 14.852L2.75 82h64.125l-3.26-3.078-4.289-4.052H74.87v-1.783c0-2.91-2.04-5.445-4.875-6.079l-11.169-2.479V51.696h1.783C72.405 51.696 82 42.1 82 30.304v-1.782c0-9.317-3.6-27.088-3.6-27.088L78.114 0H35.972zm2.96 3.565h36.223c.3 1.54 1.706 8.997 2.576 16.044H36.35c.877-7.061 2.283-14.505 2.583-16.044zm-2.966 19.609H78.12c.181 1.95.314 3.809.314 5.348v1.782c0 9.867-7.96 17.826-17.826 17.826h-3.287c-.104-.013-.202-.027-.306-.027-.084.007-.174.014-.258.027h-3.28c-9.867 0-17.826-7.959-17.826-17.826v-1.782c0-1.546.132-3.405.314-5.348zM8.05 51.696h21.544l28.313 26.739H36.362L8.05 51.695zm-3.454 1.643l26.572 25.096H5.376c-.467-1.449-1.81-5.968-1.81-12.478 0-6.455.577-10.432 1.03-12.618zm15.66.912c-.111 0-.216.014-.313.042-.766.25-.606 1.427.362 2.632s2.375 1.985 3.147 1.74c.766-.243.606-1.42-.362-2.624-.85-1.059-2.033-1.79-2.834-1.79zm13.467 6.413c-.16-.007-.306.014-.438.056-1.066.341-.843 1.97.501 3.642 1.337 1.671 3.287 2.75 4.345 2.41 1.066-.342.843-1.964-.501-3.636-1.17-1.462-2.806-2.472-3.907-2.472zm23.32 7.117l12.172 2.709c.543.118.968.438 1.323.814H55.546l-2.736-2.583 4.233-.94zM36.69 69.55c-.112 0-.223.02-.314.048-.773.244-.612 1.42.362 2.626.968 1.211 2.375 1.991 3.14 1.747.767-.25.607-1.427-.361-2.632-.85-1.058-2.027-1.782-2.827-1.79z"
      transform="translate(-18021 -113) translate(17981 73) translate(40 40) translate(24 14)"
    />
  </g>
</svg>
