<svg
  id="icon-my-orders"
  xmlns="http://www.w3.org/2000/svg"
  width="100%"
  height="100%"
  viewBox="0 0 130 130"
>
  <g fill-rule="nonzero">
    <path
      d="M36.333 10C28.351 10 22 16.35 22 24.333v57.334C22 89.649 28.35 96 36.333 96h57.334C101.649 96 108 89.65 108 81.667V32.524l-4.095 4.735v44.408c0 5.735-4.503 10.238-10.238 10.238H36.333c-5.735 0-10.238-4.503-10.238-10.238V24.333c0-5.735 4.503-10.238 10.238-10.238h54.07L93.667 10H36.333zm66.036 7.679L62.76 64.389 46.124 48.842l-2.816 3.007 18.237 16.957 1.6 1.472 1.343-1.6 40.952-48.375-3.071-2.623z"
    />
  </g>
</svg>
