<svg
  id="icon-picture"
  xmlns="http://www.w3.org/2000/svg"
  width="100%"
  height="100%"
  viewBox="0 0 130 130"
>
  <g fill-rule="nonzero">
    <path
      d="M20 17v72h90V17H20zm3.6 3.6h82.8v46.8H87.177l-12.6-9H63.945l-7.354-7.355-8.761 1.758-7.749-11.63L23.6 57.655V20.6zm63.9 10.8c-4.45 0-8.1 3.65-8.1 8.1 0 4.45 3.65 8.1 8.1 8.1 4.45 0 8.1-3.65 8.1-8.1 0-4.45-3.65-8.1-8.1-8.1zm0 3.6c2.503 0 4.5 1.997 4.5 4.5S90.003 44 87.5 44a4.477 4.477 0 0 1-4.5-4.5c0-2.503 1.997-4.5 4.5-4.5zM39.519 46.827l6.651 9.97 9.24-1.842L62.454 62h10.968l12.6 9H106.4v14.4H23.6V62.745l15.919-15.918z"
    />
  </g>
</svg>
