<svg
  id="icon-alert"
  xmlns="http://www.w3.org/2000/svg"
  width="100%"
  height="100%"
  viewBox="0 0 130 130"
>
  <g fill-rule="evenodd">
    <path
      d="M43 0C19.274 0 0 19.274 0 43s19.274 43 43 43 43-19.274 43-43S66.726 0 43 0zm0 3.74c21.705 0 39.26 17.555 39.26 39.26S64.706 82.26 43 82.26 3.74 64.706 3.74 43 21.294 3.74 43 3.74zm-2.242 19.257c-.56 0-.749.371-.749.745v25.24c0 .56.375.748.749.748h4.298c.56 0 .748-.375.748-.749V23.742c0-.56-.374-.745-.748-.745h-4.298zm0 33.652c-.56 0-.749.371-.749.745v4.864c0 .56.375.745.749.745h4.484c.56 0 .749-.371.749-.745v-4.864c0-.56-.375-.745-.749-.745h-4.484z"
      transform="translate(-19171 -113) translate(19131 73) translate(40 40) translate(22 14)"
    />
  </g>
</svg>
