<svg
  id="icon-guest-male"
  xmlns="http://www.w3.org/2000/svg"
  width="100%"
  height="100%"
  viewBox="0 0 130 130"
>
  <g fill-rule="nonzero">
    <path
      d="M65 13.014c-23.174 0-42 18.773-42 41.882 0 23.11 18.826 41.882 42 41.882s42-18.773 42-41.882c0-23.109-18.826-41.882-42-41.882zm0 3.642c21.2 0 38.348 17.1 38.348 38.24 0 10.44-4.193 19.881-10.978 26.777-3.341-2.446-7.414-3.673-10.864-4.897-1.943-.69-3.69-1.372-4.965-2.134-1.22-.73-1.9-1.479-2.257-2.34-.168-2.088-.134-3.77-.121-5.755.22-.22.505-.374.73-.64a17.402 17.402 0 0 0 1.595-2.247c.888-1.471 1.535-3.27 1.897-5.093.554-.282 1.145-.343 1.595-.914.83-1.056 1.391-2.543 1.64-4.613.221-1.829-.37-3.086-1.13-4.051.818-2.668 1.831-6.91 1.487-11.3-.19-2.415-.799-4.846-2.265-6.867-1.4-1.93-3.672-3.317-6.58-3.82-1.847-2.091-4.782-3.076-8.289-3.076h-.032c-7.857.144-12.927 3.386-15.097 8.333-2.064 4.703-1.62 10.559-.14 16.655-.796.965-1.42 2.247-1.194 4.126.25 2.07.81 3.556 1.64 4.613.45.572 1.041.632 1.595.914.362 1.822 1.009 3.618 1.897 5.089.518.858 1.06 1.62 1.594 2.248.226.266.51.424.731.643.012 1.984.046 3.665-.12 5.755-.358.858-1.036 1.608-2.255 2.34-1.273.765-3.018 1.452-4.957 2.145-3.446 1.231-7.517 2.467-10.868 4.894-6.79-6.897-10.985-16.342-10.985-26.785 0-21.14 17.147-38.24 38.348-38.24zm-.143 10.915c3.368.004 5.487.998 6.067 2.013l.446.78.888.12c2.294.318 3.576 1.206 4.494 2.472.918 1.266 1.428 3.033 1.583 5.018.312 3.97-.828 8.657-1.551 10.826l-.46 1.377 1.245.754c-.127-.077.585.343.424 1.675-.195 1.62-.61 2.445-.888 2.799-.278.353-.397.308-.367.306l-1.505.124-.161 1.497c-.138 1.287-.863 3.042-1.712 4.446a14.113 14.113 0 0 1-1.255 1.775c-.38.447-.784.723-.632.644l-.977.508v1.103c0 2.411-.098 4.383.157 7.191l.021.242.086.228c.719 1.928 2.219 3.289 3.905 4.296 1.687 1.007 3.622 1.735 5.618 2.443 3.288 1.167 6.717 2.315 9.33 4.012A38.254 38.254 0 0 1 65 93.136a38.255 38.255 0 0 1-24.606-8.909c2.628-1.687 6.062-2.838 9.345-4.012 1.994-.712 3.924-1.444 5.606-2.454 1.683-1.01 3.177-2.37 3.895-4.292l.086-.228.021-.242c.253-2.806.157-4.778.157-7.191v-1.103l-.977-.512c.153.08-.252-.197-.632-.644a14.023 14.023 0 0 1-1.255-1.77c-.849-1.406-1.574-3.162-1.712-4.447l-.16-1.497-1.506-.124c.029.002-.09.047-.367-.306-.278-.354-.692-1.178-.888-2.8-.16-1.331.56-1.757.424-1.674l1.16-.701-.34-1.312c-1.57-6.03-1.808-11.518-.192-15.201 1.615-3.68 4.85-6.014 11.798-6.146z"
    />
  </g>
</svg>
