<svg
  id="icon-sunburn-2"
  xmlns="http://www.w3.org/2000/svg"
  width="100%"
  height="100%"
  viewBox="0 0 130 130"
>
  <g fill-rule="evenodd">
    <path
      d="M44.087 0c-.58.01-1.116.304-1.438.786l-9.657 14.483c-.331.442-.87.663-1.417.586l-17.058-3.416c-.579-.116-1.178.065-1.596.482-.417.418-.598 1.017-.482 1.596l3.416 17.062c.078.548-.146 1.088-.59 1.42l-14.48 9.65c-.49.328-.785.879-.785 1.469 0 .59.295 1.14.786 1.468l14.483 9.658c.443.332.662.868.586 1.416l-3.409 17.082c-.115.579.066 1.177.484 1.594.418.416 1.016.597 1.594.48l17.061-3.418c.548-.082 1.084.145 1.414.59h.003l9.647 14.475c.328.491.879.786 1.469.786.59 0 1.14-.295 1.468-.786l9.658-14.483c.33-.441.867-.659 1.413-.579l17.078 3.409c.58.117 1.178-.064 1.596-.482.418-.418.599-1.017.482-1.596l-3.419-17.068c-.082-.547.14-1.086.583-1.417l14.486-9.661c.491-.327.786-.878.786-1.468s-.295-1.141-.786-1.469l-14.486-9.66c-.44-.33-.656-.867-.576-1.41l3.409-17.072c.117-.58-.064-1.178-.482-1.596-.418-.418-1.017-.599-1.596-.482L56.66 15.844c-.549.079-1.088-.144-1.42-.589L45.586.785c-.333-.5-.898-.795-1.5-.785zm.03 4.946l8.238 12.346c.017.025.034.049.052.072 1.106 1.484 2.947 2.246 4.777 1.975.03-.005.06-.01.09-.017l14.558-2.912-2.912 14.559-.014.079c-.277 1.832.486 3.677 1.975 4.78l.073.052 12.35 8.238-12.35 8.237c-.025.017-.05.034-.073.052-1.49 1.104-2.254 2.946-1.978 4.78.004.03.008.058.014.087l2.915 14.558-14.565-2.912-.083-.014c-1.831-.275-3.673.485-4.777 1.972l-.052.076-8.237 12.35L35.89 70.96c-.015-.023-.031-.046-.048-.068-1.1-1.494-2.946-2.26-4.78-1.986l-.087.014-14.548 2.916 2.905-14.57c.007-.029.013-.059.018-.089.265-1.828-.497-3.666-1.979-4.77-.023-.018-.047-.035-.072-.052L4.946 44.118l12.343-8.228.072-.048c1.488-1.1 2.254-2.938 1.989-4.77-.005-.031-.01-.062-.018-.093L16.42 16.42l14.545 2.912c.03.007.062.013.093.018 1.83.268 3.667-.494 4.77-1.979.018-.023.035-.047.052-.072l8.238-12.353zm.014 16.24c-10.144 0-17.895 6.2-21.193 14.163-3.299 7.964-2.2 17.826 4.973 25 7.173 7.172 17.035 8.27 25 4.973 7.963-3.299 14.162-11.05 14.162-21.194 0-12.65-10.292-22.941-22.942-22.941zm0 3.53c10.742 0 19.412 8.67 19.412 19.412 0 8.723-5.208 15.127-11.984 17.933-6.776 2.807-14.985 1.959-21.152-4.208-6.167-6.167-7.015-14.376-4.209-21.153 2.807-6.776 9.21-11.984 17.933-11.984zM33.533 35.308c-1.925.024-3.468 1.6-3.452 3.525.016 1.925 1.586 3.475 3.51 3.466 1.926-.008 3.482-1.571 3.482-3.496 0-.927-.368-1.817-1.023-2.472-.656-.656-1.545-1.024-2.472-1.023h-.045zm21.176 0c-1.925.024-3.468 1.6-3.452 3.525.017 1.925 1.586 3.475 3.511 3.466 1.925-.008 3.481-1.571 3.481-3.496 0-.927-.367-1.817-1.023-2.472-.655-.656-1.545-1.024-2.472-1.023h-.045zM44.131 47.675c-4.255-.182-8.428 1.206-11.711 3.922-.51.394-.766 1.034-.666 1.671.1.637.54 1.168 1.146 1.387.607.218 1.284.088 1.767-.339 2.628-2.174 5.974-3.288 9.382-3.126.055.003.11.003.165 0 3.407-.162 6.754.952 9.382 3.126.483.427 1.16.557 1.767.339.606-.219 1.045-.75 1.145-1.387.1-.637-.154-1.277-.665-1.671-3.283-2.716-7.457-4.104-11.712-3.922z"
      transform="translate(-16871 -113) translate(16831 73) translate(40 40) translate(21 11)"
    />
  </g>
</svg>
