<svg
  id="icon-bar"
  xmlns="http://www.w3.org/2000/svg"
  width="100%"
  height="100%"
  viewBox="0 0 130 130"
>
  <g fill-rule="nonzero">
    <path
      d="M38.89 9C27.372 9 18 18.257 18 29.633c0 11.377 9.372 20.634 20.89 20.634 4.399 0 8.501-1.38 11.875-3.68L64.853 63.49c-.033.12-.047.247-.054.373V82.79c-1.612.3-4.986.98-9.122 2.186-2.652.773-5.317 1.693-7.449 2.826-1.066.567-1.997 1.206-2.753 1.973-.756.766-1.403 1.78-1.403 2.985 0 .94.776 1.707 1.727 1.707h41.455a1.72 1.72 0 0 0 1.728-1.707c0-1.206-.648-2.219-1.404-2.985-.755-.767-1.687-1.406-2.753-1.973-2.132-1.133-4.797-2.053-7.449-2.826a95.502 95.502 0 0 0-9.122-2.186V63.862a1.761 1.761 0 0 0-.054-.32L95.513 30.7a1.68 1.68 0 0 0 .21-1.806 1.733 1.733 0 0 0-1.56-.967H59.726C58.841 17.337 49.827 9 38.89 9zm0 3.732c8.88 0 16.126 6.665 17.003 15.195h-7.557c.708-.586 1.032-1.246.594-2.08-1.498-2.845-6.781 1.22-8.637 2.773l-.054-.053a1.79 1.79 0 0 0-.594-.48c.419-2.559 1.215-8.964-1.889-8.637-3.144.333-.985 6.564-.054 8.904-.189.18-.337.4-.432.64-2.004-1.06-8.299-4.126-9.122-.96-.918 3.532 8.32 2.759 9.392 2.666l.162.213c-.64.6-7.132 6.784-4.264 8.744 2.611 1.78 4.784-5.425 5.344-7.465L48.39 43.71c-2.72 1.8-5.971 2.825-9.5 2.825-9.467 0-17.112-7.55-17.112-16.9 0-9.351 7.645-16.902 17.112-16.902zm3.67 18.607h47.933l-4.264 5.119H46.825l-4.265-5.119zm7.125 8.531h33.683L66.527 60.13 49.685 39.87zm16.842 46.118c.256.047 4.952.86 9.878 2.293 2.53.733 5.047 1.626 6.801 2.56.142.08.189.132.324.212H49.523c.135-.08.183-.133.324-.213 1.755-.933 4.271-1.826 6.802-2.56 4.925-1.432 9.621-2.245 9.878-2.292z"
    />
  </g>
</svg>
