<svg
  id="icon-coctail"
  xmlns="http://www.w3.org/2000/svg"
  width="100%"
  height="100%"
  viewBox="0 0 130 130"
>
  <g fill-rule="evenodd">
    <path
      d="M79.357.71c-.097.013-.187.027-.276.055-.035.013-.076.034-.11.055L64.853 4.35c-.503.123-.93.468-1.158.937L47.812 37.05c-.427.883-.055 1.944.828 2.372.882.427 1.944.055 2.371-.827l5.018-9.982c3.675 1.013 6.742 2.42 8.824 4.026 2.178 1.682 3.198 3.446 3.198 5.184v.165c-.965.579-2.109 1.137-3.364 1.654-5.135 2.11-12.47 3.475-20.57 3.475s-15.434-1.365-20.57-3.475c-1.212-.496-2.308-1.04-3.253-1.599.007-.076.007-.145 0-.22 0-.945.545-2.379 1.434-3.585.89-1.206 2.13-2.178 3.088-2.537.841-.296 1.33-1.179 1.13-2.054-.192-.869-1.013-1.455-1.902-1.365-.172.014-.338.048-.496.11-1.861.697-3.46 2.09-4.688 3.75-.758 1.02-1.344 2.158-1.71 3.364-.84-.992-1.24-1.944-1.268-2.867.014-.131.014-.255 0-.386.145-1.51 1.53-3.413 4.247-5.074.84-.503 1.11-1.592.606-2.426-.503-.841-1.585-1.11-2.426-.607-3.357 2.054-5.742 4.805-5.9 8.052-.042.165-1.056 3.887-1.986 8.602-4.17-2.743-6.894-7.341-6.894-12.683 0-8.203 6.797-15 15-15 8.204 0 15 6.797 15 15 0 2.116-.365 4.163-1.103 5.79-.413.896-.013 1.958.883 2.371.896.414 1.958.014 2.371-.882 1.027-2.254 1.379-4.805 1.379-7.28 0-.165-.048-.33-.055-.496 2.212-.358 4.577-.496 7.114-.496 1.585 0 3.109 0 4.577.165.896.104 1.716-.537 1.82-1.433.103-.897-.538-1.717-1.434-1.82-1.71-.193-3.378-.22-4.963-.22-2.578 0-5.06.172-7.445.55-.145-.682-.338-1.337-.552-1.985 2.496-.337 5.219-.44 7.997-.44 2.206 0 4.432.15 6.728.33.972.076 1.826-.655 1.902-1.627.076-.972-.655-1.827-1.627-1.902-2.295-.18-4.618-.331-7.003-.331-3.22 0-6.473.179-9.486.662-3.198-5.625-9.237-9.486-16.103-9.486C8.382 9.588 0 17.971 0 28.118c0 7.114 3.991 13.166 9.816 16.378-.538 3.22-.992 6.535-.992 9.21C8.824 73.186 24.637 89 44.118 89c19.48 0 35.294-15.813 35.294-35.294 0-9.127-3.585-21.673-3.585-21.673-.2-2.874-2.13-5.35-4.908-7.28-2.757-1.909-6.459-3.384-10.754-4.466l6.342-12.74L79.853 4.24c.972-.138 1.654-1.04 1.516-2.013-.137-.972-1.04-1.654-2.012-1.516zM58.51 23.485c4.343 1.02 7.962 2.523 10.368 4.191 2.254 1.565 3.35 3.15 3.474 4.578v.331c-.014.958-.434 1.943-1.324 2.977-.654-2.109-2.199-3.977-4.19-5.514-2.434-1.882-5.646-3.337-9.376-4.412l1.048-2.15zm15.11 14.449c1.014 4.39 2.261 10.76 2.261 15.772 0 17.578-14.186 31.765-31.764 31.765S12.353 71.284 12.353 53.706c0-4.267 1.303-10.995 2.316-15.662.18.207.352.414.552.607 1.75 1.71 4.143 3.074 7.003 4.246 5.722 2.35 13.408 3.75 21.894 3.75 6.831 0 13.125-.903 18.308-2.482C62.013 55.43 58.18 64.68 58.18 64.68c-.379.896.042 1.937.938 2.316.896.38 1.937-.041 2.316-.937 0 0 4.425-10.513 4.577-23.162 2.86-1.172 5.253-2.537 7.004-4.246.227-.22.4-.483.606-.717z"
      transform="translate(-18251 -113) translate(18211 73) translate(40 40) translate(22 10)"
    />
  </g>
</svg>
