<svg
  id="icon-music"
  xmlns="http://www.w3.org/2000/svg"
  width="100%"
  height="100%"
  viewBox="0 0 130 130"
>
  <g fill-rule="nonzero">
    <path
      d="M22 19v3.429h86V19H22zm43.161 7.018c-2.754 0-3.44 1.553-3.44 3.268v29.143c0 3.77-1.518 6.696-8.223 6.696-9.635 0-13.6 2.41-13.6 8.41 0 4.112.874 10.072 13.6 10.072 11.697 0 11.663-8.873 11.663-13.5v-26.09c0-2.23.72-2.731 2.096-2.731 8.6 0 6.504 5.143 18.544 5.143 0 0 3.279.194 3.279-2.893v-9.107c0-2.572-1.041-3.268-3.279-3.268-12.04 0-9.285-5.143-20.64-5.143zM22 36.143v3.428h36.12v-3.428H22zm70.52 0v3.428H108v-3.428H92.52zM22 53.286v3.428h36.12v-3.428H22zm46.44 0v3.428H108v-3.428H68.44zM22 70.429v3.428h14.459s-.336-2.23.698-3.428H22zm46.44 0c0 2.397-.322 3.428-.322 3.428H108V70.43H68.44zM22 87.57V91h86v-3.429H22z"
    />
  </g>
</svg>
