<svg
  id="icon-beach-2"
  xmlns="http://www.w3.org/2000/svg"
  width="100%"
  height="100%"
  viewBox="0 0 130 130"
>
  <g fill-rule="nonzero">
    <path
      d="M64.785 9.592a1.749 1.749 0 0 0-1.505 1.775v3.605c-6.578.49-15.937 3.745-24.295 8.876C29.908 29.416 22 37.21 22 46.497c0 5.265 4.461 9.63 9.998 9.63 2.586 0 4.945-1.117 6.718-2.69.444-.39.867-.84 1.237-1.291.268.417.577.82.913 1.183 1.68 1.816 4.139 2.798 6.934 2.798 3.393 0 6.087-1.473 7.794-3.443.215-.25.403-.498.591-.754.564.666 1.263 1.238 1.989 1.776 1.464 1.09 3.252 1.923 5.106 2.26v27.382c0 .148.02.29.054.43-5.543.565-9.675 3.659-9.675 3.659a1.732 1.732 0 0 0 2.042 2.797s4.32-3.12 9.299-3.12c4.979 0 9.299 3.12 9.299 3.12a1.732 1.732 0 0 0 2.043-2.797s-4.133-3.094-9.676-3.659c.034-.14.054-.282.054-.43V55.965c1.861-.343 3.648-1.21 5.106-2.313a12.77 12.77 0 0 0 1.667-1.506c.268.417.577.82.913 1.183 1.68 1.816 4.139 2.798 6.934 2.798 3.393 0 6.087-1.473 7.794-3.443.228-.263.45-.525.645-.807a10.45 10.45 0 0 0 1.559 1.667c1.793 1.54 4.125 2.583 6.665 2.583 5.536 0 9.997-4.365 9.997-9.63 0-9.267-7.807-17.074-16.824-22.649-8.318-5.138-17.697-8.392-24.456-8.876v-3.605a1.731 1.731 0 0 0-.564-1.325 1.743 1.743 0 0 0-1.371-.45zm-.43 10.275c.363.141.76.161 1.129.054.645.968 1.404 2.199 2.257 4.142 1.834 4.196 3.669 10.807 4.031 20.55-1.505.552-4.306 1.507-6.933 1.507-2.614 0-5.214-.955-6.612-1.506.35-10.49 2.198-17.148 4.032-21.142.759-1.655 1.464-2.75 2.096-3.605zm-9.514.484c-1.189.794-2.156 1.21-3.386 2.206-5.818 4.7-11.758 11.862-12.9 21.627l-.054.053S33.845 46.12 31.3 46.12c-1.955 0-4.582-1.062-5.698-1.56 1.075-6.577 7.384-13.005 15.211-17.807 4.576-2.81 9.5-4.929 14.03-6.402zm14.728 0c2.056.975 4.374 2.078 6.88 3.981 5.502 4.176 10.877 10.659 11.663 20.659-1.518.524-3.708 1.13-6.073 1.13-2.963 0-5.57-.922-6.827-1.453-.369-10.208-2.324-17.37-4.353-22.003-.464-1.05-.833-1.493-1.29-2.314zm8.062.807c3.89 1.433 8.009 3.268 11.771 5.595 7.78 4.808 13.969 11.257 14.997 17.86-.894.485-3.098 1.507-5.537 1.507-3.157 0-7.31-1.883-7.31-1.883H91.5c-1.035-10.813-7.075-18.09-13.008-22.595-.309-.235-.55-.262-.86-.484zm-18.114.215c-.14.276-.235.343-.376.646-2.062 4.499-4.004 11.708-4.354 22.649-1.075.51-3.426 1.452-6.826 1.452-2.593 0-4.622-.578-6.02-1.076.854-8.89 6.161-15.352 11.664-19.797 2.157-1.742 4.038-2.79 5.912-3.874zm-21.23 26.63c-.196.827-.86 1.944-1.882 2.851-1.236 1.097-2.869 1.83-4.408 1.83-3.016 0-5.408-1.85-6.235-4.304 1.492.585 3.48 1.183 5.537 1.183 2.801 0 5.516-.955 6.987-1.56zm53.427.054c1.458.598 4.105 1.506 7.148 1.506 2.077 0 3.931-.531 5.322-1.076-.86 2.401-3.212 4.197-6.181 4.197-1.586 0-3.246-.68-4.462-1.722-1.028-.88-1.653-1.95-1.827-2.905zm-19.941.269c-.182.551-.84 1.62-2.043 2.528-1.35 1.016-3.138 1.722-4.569 1.776a1.294 1.294 0 0 0-.322 0 .802.802 0 0 0-.108.054c-1.438-.081-3.198-.8-4.515-1.776-1.182-.88-1.86-1.896-2.042-2.528 1.572.558 3.883 1.183 6.665 1.183 2.842 0 5.287-.665 6.934-1.237zm3.87.108c1.525.544 3.655 1.13 6.396 1.13 2.13 0 3.997-.31 5.482-.7-.248.551-.55 1.083-.967 1.56-1.129 1.305-2.762 2.26-5.214 2.26-2.016 0-3.42-.653-4.407-1.722-.592-.639-1.015-1.5-1.29-2.528zm-21.554.16c-.269.647-.591 1.272-1.075 1.83-1.129 1.305-2.762 2.26-5.214 2.26-2.016 0-3.42-.653-4.407-1.722-.518-.558-.86-1.291-1.13-2.152 1.465.404 3.387.753 5.698.753 2.701 0 4.663-.484 6.128-.968zM39.2 80.229c-.947 0-1.72.773-1.72 1.721 0 .949.773 1.722 1.72 1.722s1.72-.773 1.72-1.722c0-.948-.773-1.721-1.72-1.721zm10.32 0c-.947 0-1.72.773-1.72 1.721 0 .949.773 1.722 1.72 1.722s1.72-.773 1.72-1.722c0-.948-.773-1.721-1.72-1.721zm30.96 0c-.947 0-1.72.773-1.72 1.721 0 .949.773 1.722 1.72 1.722s1.72-.773 1.72-1.722c0-.948-.773-1.721-1.72-1.721zm10.32 0c-.947 0-1.72.773-1.72 1.721 0 .949.773 1.722 1.72 1.722s1.72-.773 1.72-1.722c0-.948-.773-1.721-1.72-1.721zm-56.76 5.164c-.947 0-1.72.774-1.72 1.722s.773 1.721 1.72 1.721 1.72-.773 1.72-1.721c0-.948-.773-1.722-1.72-1.722zm10.32 0c-.947 0-1.72.774-1.72 1.722s.773 1.721 1.72 1.721 1.72-.773 1.72-1.721c0-.948-.773-1.722-1.72-1.722zm41.28 0c-.947 0-1.72.774-1.72 1.722s.773 1.721 1.72 1.721 1.72-.773 1.72-1.721c0-.948-.773-1.722-1.72-1.722zm10.32 0c-.947 0-1.72.774-1.72 1.722s.773 1.721 1.72 1.721 1.72-.773 1.72-1.721c0-.948-.773-1.722-1.72-1.722zM39.2 90.557c-.947 0-1.72.773-1.72 1.721 0 .949.773 1.722 1.72 1.722s1.72-.773 1.72-1.722c0-.948-.773-1.721-1.72-1.721zm10.32 0c-.947 0-1.72.773-1.72 1.721 0 .949.773 1.722 1.72 1.722s1.72-.773 1.72-1.722c0-.948-.773-1.721-1.72-1.721zm10.32 0c-.947 0-1.72.773-1.72 1.721 0 .949.773 1.722 1.72 1.722s1.72-.773 1.72-1.722c0-.948-.773-1.721-1.72-1.721zm10.32 0c-.947 0-1.72.773-1.72 1.721 0 .949.773 1.722 1.72 1.722s1.72-.773 1.72-1.722c0-.948-.773-1.721-1.72-1.721zm10.32 0c-.947 0-1.72.773-1.72 1.721 0 .949.773 1.722 1.72 1.722s1.72-.773 1.72-1.722c0-.948-.773-1.721-1.72-1.721zm10.32 0c-.947 0-1.72.773-1.72 1.721 0 .949.773 1.722 1.72 1.722s1.72-.773 1.72-1.722c0-.948-.773-1.721-1.72-1.721z"
    />
  </g>
</svg>
