<svg
  id="icon-signpost"
  xmlns="http://www.w3.org/2000/svg"
  width="100%"
  height="100%"
  viewBox="0 0 130 130"
>
  <g fill-rule="nonzero">
    <path
      d="M64.124 11c-2.397 0-4.382 1.988-4.382 4.388v4.388H38.544a1.747 1.747 0 0 0-1.588 1.755v21.06c0 .968.787 1.756 1.753 1.756h21.033v5.265H31.533a1.75 1.75 0 0 0-1.205.658l-8.763 10.531a1.755 1.755 0 0 0 0 2.194l8.763 10.53c.336.419.836.659 1.37.659h28.044V97h3.505V74.184H65V97h3.505V74.184h22.786c.966 0 1.753-.789 1.753-1.755V51.367c0-.966-.787-1.755-1.753-1.755H68.505v-5.265h29.797c.534 0 1.034-.24 1.37-.658l8.763-10.53a1.755 1.755 0 0 0 0-2.195l-8.763-10.53a1.749 1.749 0 0 0-1.37-.658H68.505v-4.388c0-2.4-1.985-4.388-4.381-4.388zm0 3.51c.5 0 .876.377.876.878v4.388h-1.753v-4.388c0-.5.377-.878.877-.878zm-23.662 8.776H97.48l7.284 8.775-7.284 8.776H40.46V23.286zm22.785 21.06H65v5.266h-1.753v-5.265zM32.52 53.123h57.02v17.551h-57.02l-7.284-8.775 7.284-8.776z"
    />
  </g>
</svg>
