<svg
  id="icon-kids"
  xmlns="http://www.w3.org/2000/svg"
  width="100%"
  height="100%"
  viewBox="0 0 130 130"
>
  <g fill-rule="nonzero">
    <path
      d="M45.286 11.657c-1.087.03-1.786.12-1.786.12l-1.429.179-.238 1.373s-1.622 8.594 1.19 16.247a17.502 17.502 0 0 0-.833 5.316c0 3.353.96 6.496 2.62 9.258l-14.465 7.168h-.06v.06c-3.742 1.807-5.222 6.413-3.273 10.154.015.007-.008.045 0 .06 1.77 3.696 6.242 5.166 9.94 3.345l.238-.06 6.131-2.33v2.27c-.23.052-.483.112-.714.18-7.15 2.09-10.603 10.497-8.274 18.516 2.33 8.019 9.755 13.26 16.905 11.17 4.308-1.262 7.27-4.861 8.452-9.259 2.024.09 4.07.12 6.31.12 2.217 0 4.249-.03 6.25-.12 1.168 4.405 4.137 7.997 8.452 9.258 7.15 2.091 14.636-3.15 16.965-11.17 2.329-8.018-1.183-16.485-8.334-18.575-.156-.045-.32-.082-.476-.12v-2.09l6.37 2.449v-.06a7.556 7.556 0 0 0 3.154.717c2.76 0 5.55-1.524 6.845-4.301.008-.015-.015-.052 0-.06 1.719-3.763.29-8.34-3.333-10.154L87.07 44.27c1.712-2.793 2.739-5.966 2.739-9.378 0-1.851-.298-3.628-.834-5.316 2.813-7.653 1.19-16.247 1.19-16.247l-.237-1.373-1.429-.18s-2.708-.328-5.952.06c-2.94.351-6.54 1.27-8.988 3.883A27.524 27.524 0 0 0 66 14.644c-2.649 0-5.171.395-7.56 1.075-2.447-2.613-6.049-3.532-8.988-3.883a28.64 28.64 0 0 0-4.166-.179zm1.547 3.883c.543-.008 1.243.007 2.203.119 1.852.224 3.765.732 5.238 1.613-3.55 1.702-6.518 4.136-8.631 7.108-.647-3.823-.357-7.302-.179-8.78.432-.03.826-.053 1.37-.06zm38.334 0c.543.007.937.03 1.369.06.178 1.478.468 4.957-.179 8.78-2.113-2.972-5.082-5.406-8.63-7.108 1.472-.881 3.385-1.389 5.237-1.613.96-.112 1.66-.127 2.203-.12zM66 18.466c11.34 0 20 7.519 20 16.426 0 8.908-8.66 16.426-20 16.426S46 43.8 46 34.892c0-8.907 8.66-16.426 20-16.426zm-7.619 9.736c-3.132 0-5.714 2.591-5.714 5.735 0 3.143 2.582 5.734 5.714 5.734 3.132 0 5.714-2.591 5.714-5.734 0-3.144-2.582-5.735-5.714-5.735zm12.202.896a2.22 2.22 0 0 0-.238.06 1.895 1.895 0 0 0-1.488 1.344c-.2.702.008 1.448.536 1.941l1.488 1.494-1.488 1.493a1.942 1.942 0 0 0 0 2.747c.759.762 1.979.762 2.738 0l1.488-1.493 1.488 1.493c.76.762 1.98.762 2.738 0a1.942 1.942 0 0 0 0-2.747l-1.488-1.493 1.488-1.494a1.907 1.907 0 0 0 .41-2.24 1.895 1.895 0 0 0-2.017-1.045 1.917 1.917 0 0 0-1.13.538l-1.489 1.493-1.488-1.493a1.908 1.908 0 0 0-1.548-.598zm-12.202 2.927c1.071 0 1.905.836 1.905 1.912a1.884 1.884 0 0 1-1.905 1.91 1.884 1.884 0 0 1-1.905-1.91c0-1.076.834-1.912 1.905-1.912zm-11.25 15.231C51.499 52.08 58.344 55.141 66 55.141c7.59 0 14.375-3.017 18.75-7.765l15.417 7.406c1.696.852 2.515 3.121 1.607 5.078v.06c-.625 1.38-1.987 2.09-3.393 2.09-.446 0-1.183-.15-1.607-.359l-.12-.06h-.059l-8.988-3.464-2.56-.955v7.406c-5.632.538-10.758 5.13-12.618 11.528a17.96 17.96 0 0 0-.715 5.555c-1.778.067-3.63.06-5.714.06-2.083 0-3.936.007-5.714-.06a17.74 17.74 0 0 0-.715-5.555c-1.837-6.331-6.882-10.908-12.44-11.528v-7.645l-2.56 1.015-8.988 3.465h-.119l-.06.06c-1.949 1.045-4.114.29-5-1.613h-.059v-.06c-1.041-1.956-.29-4.13 1.607-5.018h.06l15.119-7.526zm-1.607 21.085c4.293-.164 8.794 3.263 10.416 8.84 1.853 6.37-1.004 12.402-5.773 13.798-4.77 1.396-10.35-2.173-12.203-8.541-1.852-6.37.945-12.402 5.715-13.798a7.804 7.804 0 0 1 1.845-.299zm40 0a7.562 7.562 0 0 1 2.738.299c4.77 1.396 7.626 7.429 5.774 13.798-1.853 6.368-7.493 9.937-12.262 8.541-4.77-1.396-7.567-7.429-5.714-13.798 1.503-5.174 5.468-8.519 9.464-8.84z"
    />
  </g>
</svg>
