<svg
  id="icon-concierge-2"
  xmlns="http://www.w3.org/2000/svg"
  width="100%"
  height="100%"
  viewBox="0 0 130 130"
>
  <g fill-rule="nonzero">
    <path
      d="M24.52 28c-.697 0-1.15.35-1.38.573-.23.222-.31.415-.402.573-.18.315-.295.551-.403.86a21.035 21.035 0 0 0-.632 2.29c-.41 1.849-.805 4.312-1.208 7.048C19.69 44.808 19 51.254 19 55.5c0 4.247.69 10.692 1.495 16.156.402 2.736.798 5.2 1.208 7.047.2.924.424 1.676.632 2.292.108.308.223.544.402.86.094.157.173.35.403.572.23.222.683.573 1.38.573h.288s19.427-2.8 31.797-14.667H73.395C85.765 80.2 105.193 83 105.193 83h.287c.697 0 1.15-.35 1.38-.573.23-.222.31-.415.403-.573.18-.315.294-.551.402-.86.208-.615.431-1.367.632-2.29.41-1.849.806-4.312 1.208-7.048C110.31 66.192 111 59.746 111 55.5c0-4.247-.69-10.692-1.495-16.156-.402-2.736-.798-5.2-1.207-7.047a21.035 21.035 0 0 0-.633-2.292 4.845 4.845 0 0 0-.403-.86c-.093-.157-.172-.35-.402-.572a1.955 1.955 0 0 0-1.38-.573h-.23l-.172.057s-5.52 1.275-12.248 3.782c-6.512 2.427-14.231 5.915-19.435 10.828H56.605c-5.204-4.913-12.923-8.4-19.435-10.828-6.728-2.507-12.248-3.782-12.248-3.782L24.75 28h-.23zm1.035 4.068c1.085.265 4.643 1.081 10.35 3.208 6.267 2.335 13.548 5.858 18.055 10.083a14.75 14.75 0 0 0-.69 1.834c-.216.73-.403 1.575-.575 2.463-3.17-1.174-9.71-3.323-15.295-3.323h-.172a1.841 1.841 0 0 0-1.754 1.92A1.843 1.843 0 0 0 37.4 50c5.254 0 12.513 2.52 14.835 3.38-.05.695-.115 1.39-.115 2.12 0 .73.065 1.425.115 2.12-2.322.86-9.58 3.38-14.835 3.38a1.852 1.852 0 0 0-1.617.91 1.845 1.845 0 0 0 0 1.847c.338.573.956.917 1.617.91 5.585 0 12.125-2.149 15.295-3.323.172.888.36 1.733.575 2.463.208.695.446 1.29.69 1.834-10.436 9.99-26.234 12.976-28.348 13.349-.093-.351-.18-.595-.287-1.089-.374-1.697-.812-4.146-1.208-6.818-.783-5.342-1.437-11.73-1.437-15.583 0-3.853.654-10.24 1.437-15.583.396-2.672.834-5.12 1.208-6.818.1-.458.137-.695.23-1.031zm78.89 0c.093.336.13.573.23 1.031.374 1.697.812 4.146 1.207 6.818.784 5.342 1.438 11.73 1.438 15.583 0 3.853-.654 10.24-1.438 15.583-.395 2.672-.833 5.12-1.207 6.818-.108.494-.194.738-.287 1.089-2.114-.373-17.912-3.36-28.348-13.35a14.75 14.75 0 0 0 .69-1.833c.216-.73.402-1.575.575-2.463 3.17 1.174 9.71 3.323 15.295 3.323a1.852 1.852 0 0 0 1.617-.91c.33-.573.33-1.275 0-1.847A1.852 1.852 0 0 0 92.6 61c-5.254 0-12.513-2.52-14.835-3.38.05-.695.115-1.39.115-2.12 0-.73-.065-1.425-.115-2.12C80.087 52.52 87.345 50 92.6 50a1.852 1.852 0 0 0 1.617-.91c.33-.572.33-1.274 0-1.847a1.852 1.852 0 0 0-1.617-.91c-5.585 0-12.125 2.149-15.295 3.323a27.382 27.382 0 0 0-.575-2.463 14.75 14.75 0 0 0-.69-1.834c4.507-4.225 11.787-7.748 18.055-10.083 5.707-2.127 9.265-2.943 10.35-3.208zm-46.92 14.265h14.95c.208.409.431 1.039.69 1.891.546 1.819 1.035 4.44 1.035 7.276 0 2.836-.489 5.457-1.035 7.276-.259.852-.482 1.482-.69 1.89h-14.95c-.208-.408-.431-1.038-.69-1.89-.546-1.819-1.035-4.44-1.035-7.276 0-1.067.057-2.062.172-3.036a1.22 1.22 0 0 0 0-.23c.195-1.532.54-2.929.863-4.01.259-.852.482-1.482.69-1.89z"
    />
  </g>
</svg>
