<svg
  id="icon-thumb-up"
  xmlns="http://www.w3.org/2000/svg"
  width="100%"
  height="100%"
  viewBox="0 0 130 130"
>
  <g fill-rule="nonzero">
    <path
      d="M65 12c-23.092 0-42 18.908-42 42s18.908 42 42 42 42-18.908 42-42-18.908-42-42-42zm0 3.652c21.1 0 38.348 17.248 38.348 38.348 0 21.1-17.248 38.348-38.348 38.348C43.9 92.348 26.652 75.1 26.652 54 26.652 32.9 43.9 15.652 65 15.652zm-1.557 4a2.805 2.805 0 0 0-2.05.885c-.823.85-1.27 2.2-1.408 3.723a2.713 2.713 0 0 0-.003.049c-.39 5.404-1.955 8.243-3.907 10.62-1.952 2.376-4.401 4.076-6.241 6.94l-.01.016c-1.475 2.35-2.49 4.824-3.403 6.513-.456.844-.883 1.475-1.236 1.83-.354.356-.582.466-.924.466v4.139c1.078 0 2.068-.549 2.83-1.314.76-.765 1.345-1.713 1.89-2.72 1.088-2.013 2.04-4.317 3.262-6.266 0-.002.001-.006.003-.008 1.285-1.992 3.657-3.75 5.962-6.557 2.31-2.812 4.44-6.89 4.9-13.267l-.002.053c.074-.814.229-.96.227-.958-.002.002-.006-.043.224.012.459.109 1.43 1.02 1.737 1.726l.009.024c.626 1.396.689 3.441.3 5.793-.388 2.351-1.196 4.878-1.954 6.965l-.016.044c-.402 1.179-.6 2.362-.481 3.53.118 1.166.6 2.236 1.233 2.942 1.265 1.412 2.9 1.726 4.665 1.726h8.208c1.07 0 1.791.306 2.124.582.333.277.316.327.316.554 0 1.149-.267 3.61-.267 3.61-.117.999.33 1.962 1.059 2.28 0 0 1.479.537 1.479 2.522 0 1.88-1.403 2.826-1.403 2.826-.558.368-.897 1.137-.865 1.959.033.821.431 1.539 1.016 1.829 0 0 1.252.484 1.252 2.365 0 .877-.374 1.512-.909 2.081-.534.57-1.058.845-1.058.845-.46.231-.813.734-.95 1.357-.138.624-.045 1.296.25 1.816 0 0 .537 1.008.537 2.313 0 .502-.008.76-.08 1.002-.071.242-.186.55-.773 1.015-1.174.931-4.302 2.086-10.918 2.086-8.851 0-12.672-1-15.307-1.99-2.635-.988-4.453-2.15-8.5-2.15v4.14c3.618 0 4.76.908 7.64 1.989 2.881 1.08 7.132 2.15 16.167 2.15 6.87 0 10.412-.993 12.538-2.68a6.198 6.198 0 0 0 2.08-3.056c.324-1.09.295-2.073.295-2.506 0-1.104-.238-1.934-.457-2.713.238-.196.257-.128.513-.4a7.714 7.714 0 0 0 2.074-5.3c0-1.99-.67-3.369-1.393-4.37.715-1.068 1.393-2.553 1.393-4.608 0-3.237-1.403-4.698-2.476-5.53.09-.839.205-1.631.205-2.882 0-1.644-.744-3.194-1.78-4.054-1.035-.86-2.316-1.221-3.802-1.221H69.05c-1.377 0-2.372-.457-2.633-.748-.13-.146-.133-.159-.15-.331-.018-.173-.003-.59.233-1.282.8-2.207 1.7-4.95 2.175-7.83.477-2.892.55-6.044-.663-8.76-.83-1.905-2.198-3.33-3.9-3.735a2.924 2.924 0 0 0-.669-.08z"
    />
  </g>
</svg>
