<svg
  id="icon-movies"
  xmlns="http://www.w3.org/2000/svg"
  width="100%"
  height="100%"
  viewBox="0 0 130 130"
>
  <g fill-rule="nonzero">
    <path
      d="M24 13v82h82V13H24zm3.905 3.905h7.81v5.857h-7.81v-5.857zm11.714 0h50.762v35.143H39.619V16.905zm54.667 0h7.81v5.857h-7.81v-5.857zm-66.381 9.762h7.81v5.857h-7.81v-5.857zm66.38 0h7.81v5.857h-7.81v-5.857zm-66.38 9.762h7.81v5.857h-7.81v-5.857zm66.38 0h7.81v5.857h-7.81v-5.857zm-66.38 9.761h7.81v5.858h-7.81V46.19zm66.38 0h7.81v5.858h-7.81V46.19zm-66.38 9.762h7.81v5.858h-7.81v-5.858zm11.714 0h50.762v35.143H39.619V55.952zm54.667 0h7.81v5.858h-7.81v-5.858zm-66.381 9.762h7.81v5.857h-7.81v-5.857zm66.38 0h7.81v5.857h-7.81v-5.857zm-66.38 9.762h7.81v5.857h-7.81v-5.857zm66.38 0h7.81v5.857h-7.81v-5.857zm-66.38 9.762h7.81v5.857h-7.81v-5.857zm66.38 0h7.81v5.857h-7.81v-5.857z"
    />
  </g>
</svg>
