<svg
  id="icon-jazz"
  xmlns="http://www.w3.org/2000/svg"
  width="100%"
  height="100%"
  viewBox="0 0 130 130"
>
  <g fill-rule="evenodd">
    <path
      d="M23.363 0c-.61 0-1.805.085-3.38.486-1.575.4-3.472 1.102-5.165 2.434-1.693 1.333-3.15 3.354-3.642 6.07-.486 2.685-.053 5.973 1.614 10.015l9.51 28.717c-.873-.741-1.845-1.384-2.954-1.758v-.007c-2.48-.84-5.204-.597-7.494.683-.04.02-.079.046-.118.065L.748 54.042c-.702.473-.951 1.391-.57 2.153l1.68 3.36c.203.407.564.715 1.003.846.433.138.912.092 1.313-.131l11.425-6.3c.236-.125.433-.144.683-.06.256.086.374.191.511.5l1.917 6.588c.899 3.774 4.285 6.438 8.17 6.438.282 0 .564-.013.847-.04 4.291-.426 7.553-4.212 7.553-8.596 0-.9-.164-1.792-.48-2.638L21.5 14.7l-.007-.013c-.013-.033-.02-.072-.04-.105 0-.02-.006-.033-.012-.053-.328-.905-.08-.984-.092-1.017.19.164.505.499.8 1.326 0 .013.007.02.007.033 1.372 3.596 18.69 49.179 18.69 49.179.105.36 1.523 5.027 4.928 9.81C49.317 78.836 55.197 84 63.84 84c5.197 0 9.522-2.29 12.416-5.742s4.43-8.033 4.384-12.758c-.007-.853-.072-1.739-.203-2.638 0-.013 0-.026-.007-.04-.302-1.87-1.26-4.265-2.52-7.172-1.253-2.914-2.815-6.234-4.325-9.51-1.51-3.28-2.972-6.502-4.01-9.16-1.036-2.658-1.542-4.955-1.502-5.342.006-.072.006-.138.006-.21-.065-1.93.355-2.842.854-3.42.498-.57 1.253-.918 2.23-1.187 1.195-.328 2.14-.722 2.908-1.26.768-.538 1.45-1.332 1.522-2.409.073-1.07-.557-1.988-1.253-2.526-.696-.545-1.53-.886-2.52-1.149-3.11-.807-20.239-6.483-22.746-7.336h-.013c-.794-.263-1.594-.407-2.395-.381-.807.033-1.746.217-2.441 1.09-.703.879-.61 2.158-.184 3.07.427.906 1.142 1.753 2.212 2.763 1.739 1.628 2.073 3.15 2.283 5.369.217 2.218.17 5.013 1.26 8.19.309 1.076.965 2.618 1.916 4.777.972 2.192 2.212 4.902 3.538 7.803 2.644 5.801 5.637 12.41 7.442 17.128.006.007.013.02.02.033.682 1.686 1.108 3.038 1.128 3.8.02.754.026.84-.742 1.266-.603.335-.807.243-1.483-.276-.663-.518-1.417-1.542-1.922-2.46-.027-.066-5.191-11.61-8.991-20.121.558-.853.99-1.95.413-2.9-.44-.723-1.358-1.031-2.23-1.162-1.254-2.81-1.438-3.223-2.737-6.143.511-.84.879-1.883.328-2.782-.414-.683-1.26-.991-2.08-1.136-1.307-2.92-1.615-3.616-2.79-6.247.486-.82.814-1.818.282-2.69-.4-.657-1.194-.965-1.988-1.123-2.14-4.797-5.171-11.576-5.749-12.856C32.21 2.796 27.917 0 23.362 0zm0 3.36c3.156 0 6.32 2.015 7.724 5.158.518 1.168 3.366 7.54 5.223 11.701-.295.092-.597.19-.873.328-2.23 1.063-2.434 2.875-1.607 4.587.813 1.713 2.343 2.698 4.574 1.621.223-.105.44-.25.656-.393.768 1.712.952 2.126 1.765 3.957-.275.085-.55.177-.807.295-2.225 1.07-2.435 2.874-1.608 4.587.814 1.72 2.35 2.697 4.58 1.628.198-.099.388-.236.585-.355l1.778 3.97c-.236.08-.479.152-.695.257-2.225 1.07-2.435 2.874-1.608 4.587.814 1.72 2.35 2.697 4.58 1.62.165-.071.322-.19.486-.288 3.524 7.895 8.558 19.163 8.558 19.163.013.039.033.078.052.111.65 1.188 1.549 2.54 2.842 3.537 1.293.998 3.366 1.556 5.165.552 1.627-.906 2.513-2.671 2.467-4.306-.053-1.627-.656-3.189-1.378-4.96-1.877-4.89-4.87-11.492-7.52-17.293-1.32-2.9-2.56-5.604-3.512-7.757-.951-2.159-1.64-3.885-1.785-4.384-.006-.039-.013-.072-.026-.098-.886-2.58-.853-4.955-1.09-7.455-.242-2.494-.905-5.224-3.333-7.5h-.007c-.479-.454-.55-.63-.794-.94.099.02.151.007.25.04 2.598.88 19.142 6.405 22.975 7.403.354.091.453.183.676.282-.341.177-.676.374-1.378.564-1.26.348-2.743.919-3.879 2.225-1.115 1.28-1.712 3.17-1.66 5.591-.164 1.975.63 4.056 1.706 6.805 1.09 2.796 2.573 6.057 4.089 9.345 1.516 3.288 3.071 6.602 4.298 9.437 1.22 2.835 2.107 5.27 2.284 6.379.105.755.157 1.477.164 2.179.04 3.963-1.273 7.783-3.596 10.559-2.33 2.776-5.611 4.541-9.844 4.541-7.317 0-12.154-4.266-15.33-8.728-3.176-4.463-4.482-8.925-4.482-8.925-.007-.046-.026-.085-.04-.125 0 0-17.285-45.504-18.676-49.16-.486-1.345-1.142-2.355-2.041-3.025-.9-.67-2.127-.899-3.137-.505-1.95.748-2.606 3.045-1.936 5.224.02.072.033.144.059.21l.02.059 13.354 41.6c.007.026.013.052.026.078.178.466.263.952.263 1.457 0 2.704-2.04 5.007-4.522 5.25h-.006c-.17.02-.348.026-.512.026-2.37 0-4.357-1.562-4.902-3.858l-.02-.08-1.995-6.85c-.02-.066-.046-.125-.072-.19-.473-1.09-1.398-1.983-2.52-2.363v-.007c-1.116-.38-2.363-.269-3.393.302l-9.896 5.46-.236-.473 9.653-6.45c1.457-.801 3.196-.959 4.764-.427 1.562.532 2.829 1.713 3.485 3.229l1.792 5.604-.053-.23c.184 1.103.9 1.982 1.582 2.356.676.374 1.391.381 1.391.381.604 0 1.227-.27 1.62-.623.388-.355.578-.742.697-1.057.124-.322.177-.597.203-.833.02-.119.026-.23.026-.348 0-.112.131-.02-.111-.67L16.012 18.067c-.02-.08-.045-.158-.078-.237-1.536-3.688-1.792-6.352-1.45-8.249.34-1.89 1.24-3.097 2.414-4.016 1.175-.925 2.639-1.503 3.905-1.824 1.267-.315 2.395-.381 2.56-.381zm39.801 36.967c-.643-.04-1.3.157-1.824.616-1.05.92-1.162 2.507-.25 3.55.92 1.05 2.527 1.162 3.57.244 1.05-.913 1.155-2.514.237-3.557-.46-.525-1.09-.814-1.733-.853zm3.36 6.72c-.643-.04-1.3.157-1.824.616-1.05.92-1.162 2.507-.25 3.55.92 1.05 2.527 1.162 3.57.244 1.05-.913 1.155-2.514.237-3.557-.46-.525-1.09-.814-1.733-.853zm3.36 6.72c-.643-.046-1.306.157-1.824.616-1.05.92-1.155 2.514-.243 3.557.912 1.044 2.507 1.155 3.557.237 1.05-.913 1.161-2.507.25-3.557-.46-.525-1.097-.807-1.74-.853z"
      transform="translate(-17791 -113) translate(17751 73) translate(40 40) translate(25 13)"
    />
  </g>
</svg>
