<svg
  id="icon-survey"
  xmlns="http://www.w3.org/2000/svg"
  width="100%"
  height="100%"
  viewBox="0 0 130 130"
>
  <g fill-rule="nonzero">
    <path
      d="M65 7c-3.404 0-6.188 2.363-7.023 5.5h-22.45C32.496 12.5 30 14.985 30 18v71.5c0 3.015 2.497 5.5 5.526 5.5h58.948c3.03 0 5.526-2.485 5.526-5.5V18c0-3.015-2.497-5.5-5.526-5.5H72.023C71.188 9.363 68.403 7 65 7zm0 3.667c2.058 0 3.684 1.618 3.684 3.666 0 1.01.828 1.834 1.842 1.834h5.527v3.666H53.947v-3.666h5.527a1.841 1.841 0 0 0 1.842-1.834c0-2.048 1.626-3.666 3.684-3.666zm-29.474 5.5h14.737v5.5c0 1.01.828 1.833 1.842 1.833h25.79a1.841 1.841 0 0 0 1.842-1.833v-5.5h14.737c1.043 0 1.842.795 1.842 1.833v71.5c0 1.038-.799 1.833-1.842 1.833H35.526c-1.043 0-1.842-.795-1.842-1.833V18c0-1.038.799-1.833 1.842-1.833zm49.737 21.885a1.86 1.86 0 0 0-.288.057.86.86 0 0 0-.115.058 1.842 1.842 0 0 0-1.151.802l-6.102 9.11-3.915-3.897a1.854 1.854 0 0 0-1.496-.573c-.08.015-.159.036-.23.058a1.827 1.827 0 0 0-1.44 1.289c-.194.673.008 1.39.518 1.862l5.296 5.27a.868.868 0 0 0 .116.115l.115.115.057.057.058.057.057.058c.072.043.152.078.23.114a.86.86 0 0 0 .116.057.86.86 0 0 0 .115.058h.058a.86.86 0 0 0 .115.057h.057a.86.86 0 0 0 .115.057h.231c.115.007.23.007.345 0h.058c.136-.021.273-.064.403-.114a.86.86 0 0 0 .115-.058c.057-.014.115-.035.172-.057a.868.868 0 0 0 .115-.114.86.86 0 0 0 .116-.058.978.978 0 0 0 .172-.172c.043-.057.08-.114.115-.171l.058-.058.058-.057c.021-.057.043-.115.057-.172l7.253-10.77c.461-.567.54-1.347.202-1.992a1.837 1.837 0 0 0-1.756-.988zM44.22 43.667a1.856 1.856 0 0 0-1.583 2.09 1.862 1.862 0 0 0 2.1 1.576h18.422a1.855 1.855 0 0 0 1.619-.91 1.843 1.843 0 0 0 0-1.847 1.855 1.855 0 0 0-1.62-.91H44.22zm27.977 18.276c-.08.014-.159.036-.23.057a1.827 1.827 0 0 0-1.44 1.29c-.194.672.008 1.388.518 1.861l4.203 4.182-4.203 4.183a1.852 1.852 0 0 0 0 2.635c.734.73 1.914.73 2.648 0l4.203-4.182 4.202 4.182c.734.73 1.914.73 2.648 0a1.852 1.852 0 0 0 0-2.635l-4.202-4.183 4.202-4.182a1.818 1.818 0 0 0 .396-2.148A1.837 1.837 0 0 0 83.19 62a1.86 1.86 0 0 0-1.094.516l-4.202 4.182-4.203-4.182a1.854 1.854 0 0 0-1.496-.573zM44.219 67.5a1.856 1.856 0 0 0-1.583 2.091 1.862 1.862 0 0 0 2.1 1.576h18.422a1.855 1.855 0 0 0 1.619-.91 1.843 1.843 0 0 0 0-1.847 1.855 1.855 0 0 0-1.62-.91H44.22z"
    />
  </g>
</svg>
